%TF.GenerationSoftware,KiCad,Pcbnew,8.0.5-8.0.5-0~ubuntu22.04.1*%
%TF.CreationDate,2024-10-07T14:19:06+02:00*%
%TF.ProjectId,KeyboardV0,4b657962-6f61-4726-9456-302e6b696361,v1.0.0*%
%TF.SameCoordinates,Original*%
%TF.FileFunction,Profile,NP*%
%FSLAX46Y46*%
G04 Gerber Fmt 4.6, Leading zero omitted, Abs format (unit mm)*
G04 Created by KiCad (PCBNEW 8.0.5-8.0.5-0~ubuntu22.04.1) date 2024-10-07 14:19:06*
%MOMM*%
%LPD*%
G01*
G04 APERTURE LIST*
%TA.AperFunction,Profile*%
%ADD10C,0.150000*%
%TD*%
G04 APERTURE END LIST*
D10*
X134677975Y-89605583D02*
X172460053Y-86300080D01*
X133768936Y-90688934D02*
G75*
G02*
X134677975Y-89605583I996195J87156D01*
G01*
X133768936Y-90688934D02*
X139869838Y-160422563D01*
X140953189Y-161331602D02*
G75*
G02*
X139869838Y-160422563I-87156J996195D01*
G01*
X140953188Y-161331602D02*
X177409604Y-158142079D01*
X178748432Y-158747265D02*
X193311118Y-178534670D01*
X194054185Y-178939989D02*
G75*
G02*
X193311118Y-178534670I62329J998056D01*
G01*
X194054185Y-178939989D02*
X212729738Y-180106292D01*
X212936066Y-180133645D02*
X230052098Y-183625284D01*
X230271419Y-183687715D02*
X246493449Y-189671917D01*
X246780255Y-189814129D02*
X262578406Y-199878661D01*
X263959097Y-199572570D02*
G75*
G02*
X262578406Y-199878661I-843391J537300D01*
G01*
X263959097Y-199572570D02*
X272642618Y-185942173D01*
X272796893Y-185336587D02*
G75*
G02*
X272642618Y-185942173I-997666J-68286D01*
G01*
X272796892Y-185336586D02*
G75*
G02*
X274221037Y-116240835I388091973J26563521D01*
G01*
X273358742Y-115140209D02*
G75*
G02*
X274221037Y-116240835I-131710J-991289D01*
G01*
X273358742Y-115140210D02*
X258933419Y-113223547D01*
X257640627Y-111566810D02*
X259700494Y-93487588D01*
X258820126Y-92380812D02*
G75*
G02*
X259700494Y-93487588I-113204J-993572D01*
G01*
X258820125Y-92380812D02*
X241272536Y-90381517D01*
X239943989Y-88820868D02*
X239975282Y-88153825D01*
X239089583Y-87113392D02*
G75*
G02*
X239975282Y-88153825I-113203J-993572D01*
G01*
X239089583Y-87113392D02*
X220609735Y-85007879D01*
X219279682Y-83538181D02*
X219122077Y-72096273D01*
X218183221Y-71111911D02*
G75*
G02*
X219122077Y-72096273I-61049J-998135D01*
G01*
X218183220Y-71111911D02*
X198220524Y-69890940D01*
X197182770Y-70674494D02*
G75*
G02*
X198220524Y-69890940I976706J-214581D01*
G01*
X197182770Y-70674493D02*
X196630538Y-73188072D01*
X195165479Y-74366199D02*
X175775853Y-74366199D01*
X174780716Y-75267702D02*
G75*
G02*
X175775853Y-74366199I995137J-98497D01*
G01*
X174780716Y-75267701D02*
X173822025Y-84953534D01*
X177409604Y-158142079D02*
G75*
G02*
X178748432Y-158747265I130734J-1494292D01*
G01*
X212729738Y-180106292D02*
G75*
G02*
X212936066Y-180133645I-93494J-1497083D01*
G01*
X230052098Y-183625284D02*
G75*
G02*
X230271419Y-183687715I-299822J-1469730D01*
G01*
X246493449Y-189671917D02*
G75*
G02*
X246780255Y-189814129I-519144J-1407299D01*
G01*
X258933419Y-113223548D02*
G75*
G02*
X257640627Y-111566810I197566J1486933D01*
G01*
X241272537Y-90381517D02*
G75*
G02*
X239943989Y-88820868I169804J1490358D01*
G01*
X220609736Y-85007879D02*
G75*
G02*
X219279682Y-83538181I169804J1490358D01*
G01*
X196630538Y-73188072D02*
G75*
G02*
X195165479Y-74366199I-1465059J321873D01*
G01*
X173822025Y-84953534D02*
G75*
G02*
X172460053Y-86300080I-1492706J147746D01*
G01*
M02*
