%TF.GenerationSoftware,KiCad,Pcbnew,8.0.5-8.0.5-0~ubuntu22.04.1*%
%TF.CreationDate,2024-10-07T14:19:06+02:00*%
%TF.ProjectId,KeyboardV0,4b657962-6f61-4726-9456-302e6b696361,v1.0.0*%
%TF.SameCoordinates,Original*%
%TF.FileFunction,Copper,L2,Bot*%
%TF.FilePolarity,Positive*%
%FSLAX46Y46*%
G04 Gerber Fmt 4.6, Leading zero omitted, Abs format (unit mm)*
G04 Created by KiCad (PCBNEW 8.0.5-8.0.5-0~ubuntu22.04.1) date 2024-10-07 14:19:06*
%MOMM*%
%LPD*%
G01*
G04 APERTURE LIST*
G04 Aperture macros list*
%AMRoundRect*
0 Rectangle with rounded corners*
0 $1 Rounding radius*
0 $2 $3 $4 $5 $6 $7 $8 $9 X,Y pos of 4 corners*
0 Add a 4 corners polygon primitive as box body*
4,1,4,$2,$3,$4,$5,$6,$7,$8,$9,$2,$3,0*
0 Add four circle primitives for the rounded corners*
1,1,$1+$1,$2,$3*
1,1,$1+$1,$4,$5*
1,1,$1+$1,$6,$7*
1,1,$1+$1,$8,$9*
0 Add four rect primitives between the rounded corners*
20,1,$1+$1,$2,$3,$4,$5,0*
20,1,$1+$1,$4,$5,$6,$7,0*
20,1,$1+$1,$6,$7,$8,$9,0*
20,1,$1+$1,$8,$9,$2,$3,0*%
%AMHorizOval*
0 Thick line with rounded ends*
0 $1 width*
0 $2 $3 position (X,Y) of the first rounded end (center of the circle)*
0 $4 $5 position (X,Y) of the second rounded end (center of the circle)*
0 Add line between two ends*
20,1,$1,$2,$3,$4,$5,0*
0 Add two circle primitives to create the rounded ends*
1,1,$1,$2,$3*
1,1,$1,$4,$5*%
%AMRotRect*
0 Rectangle, with rotation*
0 The origin of the aperture is its center*
0 $1 length*
0 $2 width*
0 $3 Rotation angle, in degrees counterclockwise*
0 Add horizontal line*
21,1,$1,$2,0,0,$3*%
%AMFreePoly0*
4,1,5,0.125000,-0.500000,-0.125000,-0.500000,-0.125000,0.500000,0.125000,0.500000,0.125000,-0.500000,0.125000,-0.500000,$1*%
%AMFreePoly1*
4,1,6,0.600000,-0.250000,-0.600000,-0.250000,-0.600000,1.000000,0.000000,0.400000,0.600000,1.000000,0.600000,-0.250000,0.600000,-0.250000,$1*%
%AMFreePoly2*
4,1,6,0.600000,0.200000,0.000000,-0.400000,-0.599999,0.200000,-0.600000,0.400000,0.600000,0.400000,0.600000,0.200000,0.600000,0.200000,$1*%
G04 Aperture macros list end*
%TA.AperFunction,SMDPad,CuDef*%
%ADD10RotRect,2.600000X2.600000X185.000000*%
%TD*%
%TA.AperFunction,SMDPad,CuDef*%
%ADD11R,2.600000X2.600000*%
%TD*%
%TA.AperFunction,SMDPad,CuDef*%
%ADD12RotRect,2.600000X2.600000X176.500000*%
%TD*%
%TA.AperFunction,SMDPad,CuDef*%
%ADD13RotRect,2.600000X2.600000X173.500000*%
%TD*%
%TA.AperFunction,SMDPad,CuDef*%
%ADD14RotRect,2.600000X2.600000X168.500000*%
%TD*%
%TA.AperFunction,SMDPad,CuDef*%
%ADD15RotRect,2.600000X2.600000X160.500000*%
%TD*%
%TA.AperFunction,SMDPad,CuDef*%
%ADD16RotRect,2.600000X2.600000X147.500000*%
%TD*%
%TA.AperFunction,SMDPad,CuDef*%
%ADD17RotRect,0.900000X1.200000X5.000000*%
%TD*%
%TA.AperFunction,ComponentPad*%
%ADD18RotRect,1.778000X1.778000X5.000000*%
%TD*%
%TA.AperFunction,ComponentPad*%
%ADD19C,1.905000*%
%TD*%
%TA.AperFunction,SMDPad,CuDef*%
%ADD20R,0.900000X1.200000*%
%TD*%
%TA.AperFunction,ComponentPad*%
%ADD21R,1.778000X1.778000*%
%TD*%
%TA.AperFunction,SMDPad,CuDef*%
%ADD22RotRect,0.900000X1.200000X356.500000*%
%TD*%
%TA.AperFunction,ComponentPad*%
%ADD23RotRect,1.778000X1.778000X356.500000*%
%TD*%
%TA.AperFunction,SMDPad,CuDef*%
%ADD24RotRect,0.900000X1.200000X353.500000*%
%TD*%
%TA.AperFunction,ComponentPad*%
%ADD25RotRect,1.778000X1.778000X353.500000*%
%TD*%
%TA.AperFunction,SMDPad,CuDef*%
%ADD26RotRect,0.900000X1.200000X348.500000*%
%TD*%
%TA.AperFunction,ComponentPad*%
%ADD27RotRect,1.778000X1.778000X348.500000*%
%TD*%
%TA.AperFunction,SMDPad,CuDef*%
%ADD28RotRect,0.900000X1.200000X340.500000*%
%TD*%
%TA.AperFunction,ComponentPad*%
%ADD29RotRect,1.778000X1.778000X340.500000*%
%TD*%
%TA.AperFunction,SMDPad,CuDef*%
%ADD30RotRect,0.900000X1.200000X327.500000*%
%TD*%
%TA.AperFunction,ComponentPad*%
%ADD31RotRect,1.778000X1.778000X327.500000*%
%TD*%
%TA.AperFunction,ComponentPad*%
%ADD32C,1.600000*%
%TD*%
%TA.AperFunction,ComponentPad*%
%ADD33RotRect,1.600000X1.600000X263.500000*%
%TD*%
%TA.AperFunction,SMDPad,CuDef*%
%ADD34FreePoly0,83.500000*%
%TD*%
%TA.AperFunction,SMDPad,CuDef*%
%ADD35FreePoly1,83.500000*%
%TD*%
%TA.AperFunction,SMDPad,CuDef*%
%ADD36FreePoly2,83.500000*%
%TD*%
%TA.AperFunction,SMDPad,CuDef*%
%ADD37FreePoly0,263.500000*%
%TD*%
%TA.AperFunction,SMDPad,CuDef*%
%ADD38FreePoly2,263.500000*%
%TD*%
%TA.AperFunction,SMDPad,CuDef*%
%ADD39FreePoly1,263.500000*%
%TD*%
%TA.AperFunction,SMDPad,CuDef*%
%ADD40RotRect,0.700000X1.500000X173.500000*%
%TD*%
%TA.AperFunction,SMDPad,CuDef*%
%ADD41RotRect,1.000000X0.800000X173.500000*%
%TD*%
%TA.AperFunction,SMDPad,CuDef*%
%ADD42RotRect,0.900000X1.700000X83.500000*%
%TD*%
%TA.AperFunction,ComponentPad*%
%ADD43RoundRect,0.250000X-0.418502X-0.581361X0.276998X-0.660604X0.418502X0.581361X-0.276998X0.660604X0*%
%TD*%
%TA.AperFunction,ComponentPad*%
%ADD44HorizOval,1.200000X-0.031131X-0.273232X0.031131X0.273232X0*%
%TD*%
%TA.AperFunction,ViaPad*%
%ADD45C,0.800000*%
%TD*%
%TA.AperFunction,Conductor*%
%ADD46C,0.250000*%
%TD*%
G04 APERTURE END LIST*
D10*
%TO.P,S1,1*%
%TO.N,P1*%
X153781114Y-155641923D03*
%TO.P,S1,2*%
%TO.N,outer_bottom*%
X142083323Y-154456944D03*
%TD*%
%TO.P,S2,1*%
%TO.N,P1*%
X152299466Y-138706613D03*
%TO.P,S2,2*%
%TO.N,outer_home*%
X140601675Y-137521634D03*
%TD*%
%TO.P,S3,1*%
%TO.N,P1*%
X150817819Y-121771303D03*
%TO.P,S3,2*%
%TO.N,outer_top*%
X139120028Y-120586324D03*
%TD*%
%TO.P,S4,1*%
%TO.N,P1*%
X149336171Y-104835993D03*
%TO.P,S4,2*%
%TO.N,outer_num*%
X137638380Y-103651014D03*
%TD*%
%TO.P,S5,1*%
%TO.N,P0*%
X171712619Y-154073120D03*
%TO.P,S5,2*%
%TO.N,pinky_bottom*%
X160014828Y-152888141D03*
%TD*%
%TO.P,S6,1*%
%TO.N,P0*%
X170230971Y-137137810D03*
%TO.P,S6,2*%
%TO.N,pinky_home*%
X158533180Y-135952831D03*
%TD*%
%TO.P,S7,1*%
%TO.N,P0*%
X168749323Y-120202500D03*
%TO.P,S7,2*%
%TO.N,pinky_top*%
X157051532Y-119017521D03*
%TD*%
%TO.P,S8,1*%
%TO.N,P0*%
X167267676Y-103267190D03*
%TO.P,S8,2*%
%TO.N,pinky_num*%
X155569885Y-102082211D03*
%TD*%
D11*
%TO.P,S9,1*%
%TO.N,P2*%
X189050853Y-141816199D03*
%TO.P,S9,2*%
%TO.N,ring_bottom*%
X177500853Y-139616199D03*
%TD*%
%TO.P,S10,1*%
%TO.N,P2*%
X189050853Y-124816199D03*
%TO.P,S10,2*%
%TO.N,ring_home*%
X177500853Y-122616199D03*
%TD*%
%TO.P,S11,1*%
%TO.N,P2*%
X189050853Y-107816199D03*
%TO.P,S11,2*%
%TO.N,ring_top*%
X177500853Y-105616199D03*
%TD*%
%TO.P,S12,1*%
%TO.N,P2*%
X189050853Y-90816199D03*
%TO.P,S12,2*%
%TO.N,ring_num*%
X177500853Y-88616199D03*
%TD*%
D12*
%TO.P,S13,1*%
%TO.N,P3*%
X207353040Y-138025552D03*
%TO.P,S13,2*%
%TO.N,middle_bottom*%
X195958890Y-135124545D03*
%TD*%
%TO.P,S14,1*%
%TO.N,P3*%
X208390866Y-121057260D03*
%TO.P,S14,2*%
%TO.N,middle_home*%
X196996716Y-118156253D03*
%TD*%
%TO.P,S15,1*%
%TO.N,P3*%
X209428691Y-104088969D03*
%TO.P,S15,2*%
%TO.N,middle_top*%
X198034541Y-101187962D03*
%TD*%
%TO.P,S16,1*%
%TO.N,P3*%
X210466516Y-87120677D03*
%TO.P,S16,2*%
%TO.N,middle_num*%
X199072366Y-84219670D03*
%TD*%
D13*
%TO.P,S17,1*%
%TO.N,P4*%
X223869856Y-154221853D03*
%TO.P,S17,2*%
%TO.N,index_bottom*%
X212643148Y-150728498D03*
%TD*%
%TO.P,S18,1*%
%TO.N,P4*%
X225794311Y-137331131D03*
%TO.P,S18,2*%
%TO.N,index_home*%
X214567603Y-133837776D03*
%TD*%
%TO.P,S19,1*%
%TO.N,P4*%
X227718765Y-120440410D03*
%TO.P,S19,2*%
%TO.N,index_top*%
X216492057Y-116947055D03*
%TD*%
%TO.P,S20,1*%
%TO.N,P4*%
X229643220Y-103549688D03*
%TO.P,S20,2*%
%TO.N,index_num*%
X218416512Y-100056333D03*
%TD*%
%TO.P,S21,1*%
%TO.N,P5*%
X241414540Y-159240226D03*
%TO.P,S21,2*%
%TO.N,inner_bottom*%
X230187832Y-155746871D03*
%TD*%
%TO.P,S22,1*%
%TO.N,P5*%
X243338994Y-142349504D03*
%TO.P,S22,2*%
%TO.N,inner_home*%
X232112286Y-138856149D03*
%TD*%
%TO.P,S23,1*%
%TO.N,P5*%
X245263449Y-125458783D03*
%TO.P,S23,2*%
%TO.N,inner_top*%
X234036741Y-121965428D03*
%TD*%
%TO.P,S24,1*%
%TO.N,P5*%
X247187903Y-108568061D03*
%TO.P,S24,2*%
%TO.N,inner_num*%
X235961195Y-105074706D03*
%TD*%
D12*
%TO.P,S25,1*%
%TO.N,P2*%
X207583477Y-175208974D03*
%TO.P,S25,2*%
%TO.N,tuck_cluster*%
X196189327Y-172307967D03*
%TD*%
D14*
%TO.P,S26,1*%
%TO.N,P3*%
X225701924Y-178087582D03*
%TO.P,S26,2*%
%TO.N,inner_cluster*%
X214822403Y-173629048D03*
%TD*%
D15*
%TO.P,S27,1*%
%TO.N,P4*%
X243161271Y-183528923D03*
%TO.P,S27,2*%
%TO.N,center_cluster*%
X233008137Y-177599643D03*
%TD*%
D16*
%TO.P,S28,1*%
%TO.N,P5*%
X259351312Y-192427890D03*
%TO.P,S28,2*%
%TO.N,outer_cluster*%
X250792200Y-184366619D03*
%TD*%
D17*
%TO.P,D1,2*%
%TO.N,outer_bottom*%
X150990053Y-142384733D03*
%TO.P,D1,1*%
%TO.N,P9*%
X147702611Y-142672347D03*
D18*
X145550830Y-142860603D03*
D19*
%TO.P,D1,2*%
%TO.N,outer_bottom*%
X153141834Y-142196477D03*
%TD*%
D17*
%TO.P,D2,2*%
%TO.N,outer_home*%
X149508405Y-125449423D03*
%TO.P,D2,1*%
%TO.N,P8*%
X146220963Y-125737037D03*
D18*
X144069182Y-125925293D03*
D19*
%TO.P,D2,2*%
%TO.N,outer_home*%
X151660186Y-125261167D03*
%TD*%
D17*
%TO.P,D3,2*%
%TO.N,outer_top*%
X148026758Y-108514113D03*
%TO.P,D3,1*%
%TO.N,P7*%
X144739316Y-108801727D03*
D18*
X142587535Y-108989983D03*
D19*
%TO.P,D3,2*%
%TO.N,outer_top*%
X150178539Y-108325857D03*
%TD*%
D17*
%TO.P,D4,2*%
%TO.N,outer_num*%
X146545110Y-91578803D03*
%TO.P,D4,1*%
%TO.N,P6*%
X143257668Y-91866417D03*
D18*
X141105887Y-92054673D03*
D19*
%TO.P,D4,2*%
%TO.N,outer_num*%
X148696891Y-91390547D03*
%TD*%
D17*
%TO.P,D5,2*%
%TO.N,pinky_bottom*%
X168921558Y-140815929D03*
%TO.P,D5,1*%
%TO.N,P9*%
X165634116Y-141103543D03*
D18*
X163482335Y-141291799D03*
D19*
%TO.P,D5,2*%
%TO.N,pinky_bottom*%
X171073339Y-140627673D03*
%TD*%
D17*
%TO.P,D6,2*%
%TO.N,pinky_home*%
X167439910Y-123880620D03*
%TO.P,D6,1*%
%TO.N,P8*%
X164152468Y-124168234D03*
D18*
X162000687Y-124356490D03*
D19*
%TO.P,D6,2*%
%TO.N,pinky_home*%
X169591691Y-123692364D03*
%TD*%
D17*
%TO.P,D7,2*%
%TO.N,pinky_top*%
X165958262Y-106945310D03*
%TO.P,D7,1*%
%TO.N,P7*%
X162670820Y-107232924D03*
D18*
X160519039Y-107421180D03*
D19*
%TO.P,D7,2*%
%TO.N,pinky_top*%
X168110043Y-106757054D03*
%TD*%
D17*
%TO.P,D8,2*%
%TO.N,pinky_num*%
X164476615Y-90010000D03*
%TO.P,D8,1*%
%TO.N,P6*%
X161189173Y-90297614D03*
D18*
X159037392Y-90485870D03*
D19*
%TO.P,D8,2*%
%TO.N,pinky_num*%
X166628396Y-89821744D03*
%TD*%
D20*
%TO.P,D9,2*%
%TO.N,ring_bottom*%
X187425853Y-128366199D03*
%TO.P,D9,1*%
%TO.N,P9*%
X184125853Y-128366199D03*
D21*
X181965853Y-128366199D03*
D19*
%TO.P,D9,2*%
%TO.N,ring_bottom*%
X189585853Y-128366199D03*
%TD*%
D20*
%TO.P,D10,2*%
%TO.N,ring_home*%
X187425853Y-111366199D03*
%TO.P,D10,1*%
%TO.N,P8*%
X184125853Y-111366199D03*
D21*
X181965853Y-111366199D03*
D19*
%TO.P,D10,2*%
%TO.N,ring_home*%
X189585853Y-111366199D03*
%TD*%
D20*
%TO.P,D11,2*%
%TO.N,ring_top*%
X187425853Y-94366199D03*
%TO.P,D11,1*%
%TO.N,P7*%
X184125853Y-94366199D03*
D21*
X181965853Y-94366199D03*
D19*
%TO.P,D11,2*%
%TO.N,ring_top*%
X189585853Y-94366199D03*
%TD*%
D20*
%TO.P,D12,2*%
%TO.N,ring_num*%
X187425853Y-77366199D03*
%TO.P,D12,1*%
%TO.N,P6*%
X184125853Y-77366199D03*
D21*
X181965853Y-77366199D03*
D19*
%TO.P,D12,2*%
%TO.N,ring_num*%
X189585853Y-77366199D03*
%TD*%
D22*
%TO.P,D13,2*%
%TO.N,middle_bottom*%
X206552173Y-124501435D03*
%TO.P,D13,1*%
%TO.N,P9*%
X203258329Y-124299975D03*
D23*
X201102357Y-124168110D03*
D19*
%TO.P,D13,2*%
%TO.N,middle_bottom*%
X208708145Y-124633300D03*
%TD*%
D22*
%TO.P,D14,2*%
%TO.N,middle_home*%
X207589999Y-107533143D03*
%TO.P,D14,1*%
%TO.N,P8*%
X204296155Y-107331683D03*
D23*
X202140183Y-107199818D03*
D19*
%TO.P,D14,2*%
%TO.N,middle_home*%
X209745971Y-107665008D03*
%TD*%
D22*
%TO.P,D15,2*%
%TO.N,middle_top*%
X208627824Y-90564851D03*
%TO.P,D15,1*%
%TO.N,P7*%
X205333980Y-90363391D03*
D23*
X203178008Y-90231526D03*
D19*
%TO.P,D15,2*%
%TO.N,middle_top*%
X210783796Y-90696716D03*
%TD*%
D22*
%TO.P,D16,2*%
%TO.N,middle_num*%
X209665649Y-73596560D03*
%TO.P,D16,1*%
%TO.N,P6*%
X206371805Y-73395100D03*
D23*
X204215833Y-73263235D03*
D19*
%TO.P,D16,2*%
%TO.N,middle_num*%
X211821621Y-73728425D03*
%TD*%
D24*
%TO.P,D17,2*%
%TO.N,index_bottom*%
X223777885Y-140674356D03*
%TO.P,D17,1*%
%TO.N,P9*%
X220499097Y-140300786D03*
D25*
X218352982Y-140056267D03*
D19*
%TO.P,D17,2*%
%TO.N,index_bottom*%
X225924000Y-140918875D03*
%TD*%
D24*
%TO.P,D18,2*%
%TO.N,index_home*%
X225702340Y-123783634D03*
%TO.P,D18,1*%
%TO.N,P8*%
X222423552Y-123410064D03*
D25*
X220277437Y-123165545D03*
D19*
%TO.P,D18,2*%
%TO.N,index_home*%
X227848455Y-124028153D03*
%TD*%
D24*
%TO.P,D19,2*%
%TO.N,index_top*%
X227626794Y-106892913D03*
%TO.P,D19,1*%
%TO.N,P7*%
X224348006Y-106519343D03*
D25*
X222201891Y-106274824D03*
D19*
%TO.P,D19,2*%
%TO.N,index_top*%
X229772909Y-107137432D03*
%TD*%
D24*
%TO.P,D20,2*%
%TO.N,index_num*%
X229551249Y-90002191D03*
%TO.P,D20,1*%
%TO.N,P6*%
X226272461Y-89628621D03*
D25*
X224126346Y-89384102D03*
D19*
%TO.P,D20,2*%
%TO.N,index_num*%
X231697364Y-90246710D03*
%TD*%
D24*
%TO.P,D21,2*%
%TO.N,inner_bottom*%
X241322569Y-145692729D03*
%TO.P,D21,1*%
%TO.N,P9*%
X238043781Y-145319159D03*
D25*
X235897666Y-145074640D03*
D19*
%TO.P,D21,2*%
%TO.N,inner_bottom*%
X243468684Y-145937248D03*
%TD*%
D24*
%TO.P,D22,2*%
%TO.N,inner_home*%
X243247023Y-128802008D03*
%TO.P,D22,1*%
%TO.N,P8*%
X239968235Y-128428438D03*
D25*
X237822120Y-128183919D03*
D19*
%TO.P,D22,2*%
%TO.N,inner_home*%
X245393138Y-129046527D03*
%TD*%
D24*
%TO.P,D23,2*%
%TO.N,inner_top*%
X245171478Y-111911286D03*
%TO.P,D23,1*%
%TO.N,P7*%
X241892690Y-111537716D03*
D25*
X239746575Y-111293197D03*
D19*
%TO.P,D23,2*%
%TO.N,inner_top*%
X247317593Y-112155805D03*
%TD*%
D24*
%TO.P,D24,2*%
%TO.N,inner_num*%
X247095933Y-95020565D03*
%TO.P,D24,1*%
%TO.N,P6*%
X243817145Y-94646995D03*
D25*
X241671030Y-94402476D03*
D19*
%TO.P,D24,2*%
%TO.N,inner_num*%
X249242048Y-95265084D03*
%TD*%
D22*
%TO.P,D25,2*%
%TO.N,tuck_cluster*%
X206782610Y-161684857D03*
%TO.P,D25,1*%
%TO.N,P10*%
X203488766Y-161483397D03*
D23*
X201332794Y-161351532D03*
D19*
%TO.P,D25,2*%
%TO.N,tuck_cluster*%
X208938582Y-161816722D03*
%TD*%
D26*
%TO.P,D26,2*%
%TO.N,inner_cluster*%
X226791046Y-164583622D03*
%TO.P,D26,1*%
%TO.N,P10*%
X223557294Y-163925708D03*
D27*
X221440657Y-163495073D03*
D19*
%TO.P,D26,2*%
%TO.N,inner_cluster*%
X228907683Y-165014257D03*
%TD*%
D28*
%TO.P,D27,2*%
%TO.N,center_cluster*%
X246119180Y-170307958D03*
%TO.P,D27,1*%
%TO.N,P10*%
X243008464Y-169206396D03*
D29*
X240972358Y-168485373D03*
D19*
%TO.P,D27,2*%
%TO.N,center_cluster*%
X248155286Y-171028981D03*
%TD*%
D30*
%TO.P,D28,2*%
%TO.N,outer_cluster*%
X265207481Y-180211163D03*
%TO.P,D28,1*%
%TO.N,P10*%
X262424289Y-178438075D03*
D31*
X260602564Y-177277507D03*
D19*
%TO.P,D28,2*%
%TO.N,outer_cluster*%
X267029206Y-181371731D03*
%TD*%
D32*
%TO.P,MCU1,*%
%TO.N,*%
X254963103Y-120756589D03*
X254675567Y-123280261D03*
X254388031Y-125803934D03*
X254100495Y-128327606D03*
X253812959Y-130851279D03*
X253525423Y-133374951D03*
X253237886Y-135898624D03*
X252950350Y-138422296D03*
X252662814Y-140945969D03*
X252375278Y-143469641D03*
X252087742Y-145993314D03*
X251800206Y-148516986D03*
X266942241Y-150242203D03*
X267229777Y-147718531D03*
X267517313Y-145194858D03*
X267804849Y-142671186D03*
X268092385Y-140147513D03*
X268379921Y-137623841D03*
X268667458Y-135100168D03*
X268954994Y-132576496D03*
X269242530Y-130052823D03*
X269530066Y-127529151D03*
X269817602Y-125005478D03*
X270105138Y-122481806D03*
D33*
X270105138Y-122481806D03*
D34*
X256224940Y-120900357D03*
D35*
%TO.P,MCU1,1*%
%TO.N,RAW*%
X257739143Y-121072878D03*
D36*
%TO.P,MCU1,*%
%TO.N,*%
X256729674Y-120957864D03*
D34*
X255937403Y-123424029D03*
D36*
X256442138Y-123481537D03*
D35*
%TO.P,MCU1,2*%
%TO.N,GND*%
X257451607Y-123596551D03*
D34*
%TO.P,MCU1,*%
%TO.N,*%
X255649867Y-125947702D03*
D36*
X256154602Y-126005209D03*
D35*
%TO.P,MCU1,3*%
%TO.N,RST*%
X257164071Y-126120223D03*
D34*
%TO.P,MCU1,*%
%TO.N,*%
X255362331Y-128471374D03*
D36*
X255867066Y-128528882D03*
D35*
%TO.P,MCU1,4*%
%TO.N,VCC*%
X256876535Y-128643896D03*
D34*
%TO.P,MCU1,*%
%TO.N,*%
X255074795Y-130995047D03*
D36*
X255579529Y-131052554D03*
D35*
%TO.P,MCU1,5*%
%TO.N,P21*%
X256588998Y-131167569D03*
D34*
%TO.P,MCU1,*%
%TO.N,*%
X254787259Y-133518719D03*
D36*
X255291993Y-133576227D03*
D35*
%TO.P,MCU1,6*%
%TO.N,P20*%
X256301462Y-133691241D03*
D34*
%TO.P,MCU1,*%
%TO.N,*%
X254499723Y-136042392D03*
D36*
X255004457Y-136099899D03*
D35*
%TO.P,MCU1,7*%
%TO.N,P19*%
X256013926Y-136214914D03*
D34*
%TO.P,MCU1,*%
%TO.N,*%
X254212186Y-138566064D03*
D36*
X254716921Y-138623572D03*
D35*
%TO.P,MCU1,8*%
%TO.N,P18*%
X255726390Y-138738586D03*
D34*
%TO.P,MCU1,*%
%TO.N,*%
X253924650Y-141089737D03*
D36*
X254429385Y-141147244D03*
D35*
%TO.P,MCU1,9*%
%TO.N,P15*%
X255438854Y-141262259D03*
D34*
%TO.P,MCU1,*%
%TO.N,*%
X253637114Y-143613409D03*
D36*
X254141849Y-143670917D03*
D35*
%TO.P,MCU1,10*%
%TO.N,P14*%
X255151318Y-143785931D03*
D34*
%TO.P,MCU1,*%
%TO.N,*%
X253349578Y-146137082D03*
D36*
X253854312Y-146194589D03*
D35*
%TO.P,MCU1,11*%
%TO.N,P16*%
X254863781Y-146309604D03*
D34*
%TO.P,MCU1,*%
%TO.N,*%
X253062042Y-148660754D03*
D36*
X253566776Y-148718262D03*
D35*
%TO.P,MCU1,12*%
%TO.N,P10*%
X254576245Y-148833276D03*
D37*
%TO.P,MCU1,*%
%TO.N,*%
X268843302Y-122338038D03*
D38*
X268338568Y-122280530D03*
D39*
%TO.P,MCU1,24*%
%TO.N,P1*%
X267329099Y-122165516D03*
%TO.P,MCU1,23*%
%TO.N,P0*%
X267041563Y-124689188D03*
D37*
%TO.P,MCU1,*%
%TO.N,*%
X268555766Y-124861710D03*
D38*
X268051032Y-124804203D03*
D39*
%TO.P,MCU1,22*%
%TO.N,GND*%
X266754026Y-127212861D03*
D37*
%TO.P,MCU1,*%
%TO.N,*%
X268268230Y-127385383D03*
D38*
X267763495Y-127327875D03*
D39*
%TO.P,MCU1,21*%
%TO.N,GND*%
X266466490Y-129736533D03*
D37*
%TO.P,MCU1,*%
%TO.N,*%
X267980694Y-129909055D03*
D38*
X267475959Y-129851548D03*
D39*
%TO.P,MCU1,20*%
%TO.N,P2*%
X266178954Y-132260206D03*
D37*
%TO.P,MCU1,*%
%TO.N,*%
X267693158Y-132432728D03*
D38*
X267188423Y-132375220D03*
D39*
%TO.P,MCU1,19*%
%TO.N,P3*%
X265891418Y-134783878D03*
D37*
%TO.P,MCU1,*%
%TO.N,*%
X267405621Y-134956400D03*
D38*
X266900887Y-134898893D03*
D39*
%TO.P,MCU1,18*%
%TO.N,P4*%
X265603882Y-137307551D03*
D37*
%TO.P,MCU1,*%
%TO.N,*%
X267118085Y-137480073D03*
D38*
X266613351Y-137422565D03*
D39*
%TO.P,MCU1,17*%
%TO.N,P5*%
X265316346Y-139831223D03*
D37*
%TO.P,MCU1,*%
%TO.N,*%
X266830549Y-140003745D03*
D38*
X266325815Y-139946238D03*
D39*
%TO.P,MCU1,16*%
%TO.N,P6*%
X265028809Y-142354896D03*
D37*
%TO.P,MCU1,*%
%TO.N,*%
X266543013Y-142527418D03*
D38*
X266038278Y-142469910D03*
D39*
%TO.P,MCU1,15*%
%TO.N,P7*%
X264741273Y-144878569D03*
D37*
%TO.P,MCU1,*%
%TO.N,*%
X266255477Y-145051090D03*
D38*
X265750742Y-144993583D03*
D39*
%TO.P,MCU1,14*%
%TO.N,P8*%
X264453737Y-147402241D03*
D37*
%TO.P,MCU1,*%
%TO.N,*%
X265967941Y-147574763D03*
D38*
X265463206Y-147517255D03*
D39*
%TO.P,MCU1,13*%
%TO.N,P9*%
X264166201Y-149925914D03*
D37*
%TO.P,MCU1,*%
%TO.N,*%
X265680404Y-150098435D03*
D38*
X265175670Y-150040928D03*
%TD*%
D40*
%TO.P,,1*%
%TO.N,pos*%
X260792150Y-117032517D03*
%TO.P,,2*%
%TO.N,RAW*%
X263772865Y-117372126D03*
%TO.P,,3*%
%TO.N,N/C*%
X265263223Y-117541931D03*
D41*
%TO.P,,*%
%TO.N,*%
X259724910Y-114032417D03*
X266977985Y-114858800D03*
X266727806Y-117054594D03*
X259474731Y-116228210D03*
%TD*%
D42*
%TO.P,,1*%
%TO.N,RST*%
X270865323Y-119166550D03*
%TO.P,,2*%
%TO.N,GND*%
X271250213Y-115788406D03*
%TD*%
D43*
%TO.P,_3,1*%
%TO.N,pos*%
X257642786Y-160133055D03*
D44*
%TO.P,_3,2*%
%TO.N,GND*%
X259629930Y-160359461D03*
%TO.P,_3,3*%
X255655642Y-159906649D03*
%TD*%
D45*
%TO.N,RST*%
X271012653Y-120487347D03*
%TO.N,GND*%
X269000000Y-117500000D03*
%TO.N,RST*%
X268500000Y-128500000D03*
X271500000Y-128500000D03*
%TO.N,RAW*%
X263000000Y-119000000D03*
%TO.N,P5*%
X244000000Y-105500000D03*
X242500000Y-122500000D03*
X240000000Y-139500000D03*
X238500000Y-156000000D03*
%TO.N,P4*%
X226500000Y-100500000D03*
X225000000Y-117500000D03*
X223000000Y-134500000D03*
X221000000Y-151500000D03*
%TO.N,P5*%
X258000000Y-189000000D03*
%TO.N,P4*%
X241001837Y-180496159D03*
%TO.N,P3*%
X223500000Y-174500000D03*
%TO.N,P2*%
X204500000Y-172500000D03*
%TO.N,P3*%
X204500000Y-135000000D03*
X205000000Y-118500000D03*
X206500000Y-101000000D03*
X207500000Y-84000000D03*
%TO.N,P2*%
X185500000Y-88000000D03*
X186000000Y-105000000D03*
X186000000Y-122000000D03*
X185500000Y-139500000D03*
%TO.N,P0*%
X163500000Y-101000000D03*
X164500000Y-118000000D03*
X166500000Y-135000000D03*
X168500000Y-152000000D03*
%TO.N,P1*%
X150000000Y-153000000D03*
X149000000Y-136500000D03*
X147500000Y-119500000D03*
X145500000Y-103000000D03*
%TO.N,GND*%
X263003686Y-124229131D03*
%TO.N,P0*%
X261489483Y-124056609D03*
%TO.N,P1*%
X261777019Y-121532936D03*
%TO.N,RAW*%
X263291222Y-121705458D03*
%TO.N,GND*%
X261201946Y-126580281D03*
%TO.N,RST*%
X262716150Y-126752803D03*
%TO.N,GND*%
X260914410Y-129103954D03*
%TO.N,VCC*%
X262428614Y-129276476D03*
%TO.N,P2*%
X260626874Y-131627626D03*
%TO.N,P21*%
X262141078Y-131800148D03*
%TO.N,P3*%
X260339338Y-134151299D03*
%TO.N,P20*%
X261853541Y-134323821D03*
%TO.N,P4*%
X260051802Y-136674971D03*
%TO.N,P19*%
X261566005Y-136847493D03*
%TO.N,P5*%
X259764266Y-139198644D03*
%TO.N,P18*%
X261278469Y-139371166D03*
%TO.N,P6*%
X259476729Y-141722316D03*
%TO.N,P15*%
X260990933Y-141894838D03*
%TO.N,P7*%
X259189193Y-144245989D03*
%TO.N,P14*%
X260703397Y-144418511D03*
%TO.N,P8*%
X258901657Y-146769661D03*
%TO.N,P16*%
X260415861Y-146942183D03*
%TO.N,P9*%
X258614121Y-149293334D03*
%TO.N,P10*%
X260128324Y-149465856D03*
%TO.N,pos*%
X263000000Y-120000000D03*
%TD*%
D46*
%TO.N,RST*%
X270865323Y-120340017D02*
X271012653Y-120487347D01*
X270865323Y-119166550D02*
X270865323Y-120340017D01*
%TO.N,GND*%
X269000000Y-117500000D02*
X269000000Y-117000000D01*
X270211594Y-115788406D02*
X271250213Y-115788406D01*
X269000000Y-117000000D02*
X270211594Y-115788406D01*
%TO.N,RST*%
X268654151Y-128654151D02*
X268500000Y-128500000D01*
X271500000Y-128500000D02*
X271345849Y-128654151D01*
X271345849Y-128654151D02*
X268654151Y-128654151D01*
%TO.N,GND*%
X259629930Y-160359461D02*
X268500000Y-151489391D01*
X268500000Y-151489391D02*
X268500000Y-147000000D01*
X272500000Y-124828398D02*
X272085801Y-124414199D01*
X268500000Y-147000000D02*
X270000000Y-145500000D01*
X270000000Y-134500000D02*
X271000000Y-133500000D01*
X270000000Y-145500000D02*
X270000000Y-134500000D01*
X271000000Y-133500000D02*
X271000000Y-131500000D01*
X271000000Y-131500000D02*
X272500000Y-130000000D01*
X272500000Y-130000000D02*
X272500000Y-124828398D01*
X270095849Y-126404151D02*
X271000000Y-125500000D01*
X271000000Y-125500000D02*
X272000000Y-124500000D01*
X257000000Y-162500000D02*
X258500000Y-162500000D01*
X255655642Y-159906649D02*
X255655642Y-161155642D01*
X255655642Y-161155642D02*
X257000000Y-162500000D01*
X259629930Y-161370070D02*
X259629930Y-160359461D01*
X258500000Y-162500000D02*
X259629930Y-161370070D01*
X272000000Y-124500000D02*
X272085801Y-124414199D01*
X272000000Y-124500000D02*
X271334776Y-123834776D01*
X271334776Y-123834776D02*
X263398041Y-123834776D01*
X263398041Y-123834776D02*
X263003686Y-124229131D01*
X266754026Y-127212861D02*
X267562736Y-126404151D01*
X267562736Y-126404151D02*
X270095849Y-126404151D01*
X272085801Y-116623994D02*
X271250213Y-115788406D01*
X266466490Y-129736533D02*
X266466490Y-127500397D01*
X266466490Y-127500397D02*
X266754026Y-127212861D01*
%TO.N,pos*%
X260792150Y-117032517D02*
X260792150Y-117817455D01*
%TO.N,RAW*%
X263000000Y-119000000D02*
X263000000Y-118144991D01*
X263000000Y-118144991D02*
X263772865Y-117372126D01*
%TO.N,P1*%
X149336171Y-104835993D02*
X148987865Y-104487687D01*
X148987865Y-104487687D02*
X148987865Y-101717371D01*
X148987865Y-101717371D02*
X150705236Y-100000000D01*
X253098059Y-97052475D02*
X253098059Y-109075546D01*
X150705236Y-100000000D02*
X153651034Y-100000000D01*
X251173605Y-111000000D02*
X251173605Y-122000000D01*
X153651034Y-100000000D02*
X163651034Y-90000000D01*
X163651034Y-90000000D02*
X163651034Y-89316883D01*
X163651034Y-89316883D02*
X164467917Y-88500000D01*
X164467917Y-88500000D02*
X173730656Y-88500000D01*
X173730656Y-88500000D02*
X180000000Y-82230656D01*
X250484462Y-92155256D02*
X252319548Y-93990342D01*
X262051935Y-122000000D02*
X262444135Y-122392200D01*
X180000000Y-82230656D02*
X180000000Y-76500000D01*
X180000000Y-76500000D02*
X180861301Y-75638699D01*
X243559188Y-92155256D02*
X250484462Y-92155256D01*
X251173605Y-122000000D02*
X262051935Y-122000000D01*
X180861301Y-75638699D02*
X191588699Y-75638699D01*
X191588699Y-75638699D02*
X192000000Y-76050000D01*
X192000000Y-76050000D02*
X198313604Y-76050000D01*
X212819413Y-71546621D02*
X216900000Y-75627208D01*
X198313604Y-76050000D02*
X202816983Y-71546621D01*
X216900000Y-75627208D02*
X216900000Y-85127208D01*
X202816983Y-71546621D02*
X212819413Y-71546621D01*
X216900000Y-85127208D02*
X218754594Y-86981802D01*
X218754594Y-86981802D02*
X228381802Y-86981802D01*
X232766500Y-87600000D02*
X236910053Y-91743553D01*
X228381802Y-86981802D02*
X229000000Y-87600000D01*
X236910053Y-91743553D02*
X243147485Y-91743553D01*
X229000000Y-87600000D02*
X232766500Y-87600000D01*
X243147485Y-91743553D02*
X243559188Y-92155256D01*
X252319548Y-93990342D02*
X252319548Y-96273964D01*
X252319548Y-96273964D02*
X253098059Y-97052475D01*
X253098059Y-109075546D02*
X251173605Y-111000000D01*
%TO.N,P0*%
X262156598Y-124915873D02*
X262500000Y-124954999D01*
X262500000Y-124954999D02*
X266186526Y-125375025D01*
X167267676Y-103267190D02*
X166919370Y-102918884D01*
X166919370Y-102918884D02*
X166919370Y-95947682D01*
X166919370Y-95947682D02*
X175875853Y-86991199D01*
X187003353Y-76088699D02*
X190588699Y-76088699D01*
X175875853Y-86991199D02*
X177500000Y-86991199D01*
X190588699Y-76088699D02*
X191000000Y-76500000D01*
X177500000Y-86991199D02*
X177500000Y-85592052D01*
X177500000Y-85592052D02*
X187003353Y-76088699D01*
X191000000Y-76500000D02*
X198500000Y-76500000D01*
X232580104Y-88050000D02*
X236723657Y-92193553D01*
X198500000Y-76500000D02*
X203003379Y-71996621D01*
X203003379Y-71996621D02*
X212633017Y-71996621D01*
X212633017Y-71996621D02*
X214450000Y-73813604D01*
X236723657Y-92193553D02*
X242961089Y-92193553D01*
X214450000Y-73813604D02*
X214450000Y-74813604D01*
X214450000Y-74813604D02*
X216450000Y-76813604D01*
X216450000Y-76813604D02*
X216450000Y-85313604D01*
X216450000Y-85313604D02*
X218568198Y-87431802D01*
X218568198Y-87431802D02*
X228068198Y-87431802D01*
X228068198Y-87431802D02*
X228686396Y-88050000D01*
X228686396Y-88050000D02*
X232580104Y-88050000D01*
X242961089Y-92193553D02*
X243372792Y-92605256D01*
X243372792Y-92605256D02*
X250298066Y-92605256D01*
X250298066Y-92605256D02*
X251869548Y-94176738D01*
X251869548Y-94176738D02*
X251869548Y-96460360D01*
X251869548Y-96460360D02*
X252648059Y-97238871D01*
X252902539Y-124678934D02*
X262223935Y-124678934D01*
X252648059Y-97238871D02*
X252648059Y-108761129D01*
X252648059Y-108761129D02*
X250723605Y-110685583D01*
X250723605Y-110685583D02*
X250723605Y-122500000D01*
X250723605Y-122500000D02*
X252902539Y-124678934D01*
X262223935Y-124678934D02*
X262500000Y-124954999D01*
%TO.N,ring_num*%
X177500853Y-88616199D02*
X180024953Y-86092099D01*
X180024953Y-86092099D02*
X180907901Y-86092099D01*
X180907901Y-86092099D02*
X187425853Y-79574147D01*
X187425853Y-79574147D02*
X187425853Y-77366199D01*
%TO.N,P2*%
X189050853Y-90816199D02*
X188900853Y-90666199D01*
X188900853Y-90666199D02*
X188900853Y-85507515D01*
X203500000Y-78263704D02*
X209312779Y-72450925D01*
X232393708Y-88500000D02*
X236279949Y-92386241D01*
X188900853Y-85507515D02*
X195908368Y-78500000D01*
X195908368Y-78500000D02*
X203500000Y-78500000D01*
X203500000Y-78500000D02*
X203500000Y-78263704D01*
X250136396Y-110636396D02*
X250273605Y-110773605D01*
X209312779Y-72450925D02*
X212450925Y-72450925D01*
X212450925Y-72450925D02*
X214000000Y-74000000D01*
X214000000Y-74000000D02*
X214000000Y-75000000D01*
X216000000Y-86000000D02*
X216500000Y-86500000D01*
X250273605Y-110773605D02*
X250273605Y-124999187D01*
X214000000Y-75000000D02*
X216000000Y-77000000D01*
X217000000Y-86500000D02*
X218500000Y-88000000D01*
X216000000Y-77000000D02*
X216000000Y-86000000D01*
X216500000Y-86500000D02*
X217000000Y-86500000D01*
X218500000Y-88000000D02*
X228000000Y-88000000D01*
X228000000Y-88000000D02*
X228500000Y-88500000D01*
X228500000Y-88500000D02*
X232393708Y-88500000D01*
X236279949Y-92386241D02*
X236279949Y-92643553D01*
X236279949Y-92643553D02*
X242774693Y-92643553D01*
X242774693Y-92643553D02*
X243186396Y-93055256D01*
X243186396Y-93055256D02*
X250111670Y-93055256D01*
X250111670Y-93055256D02*
X251419548Y-94363134D01*
X251419548Y-94363134D02*
X251419548Y-96646756D01*
X251419548Y-96646756D02*
X252198059Y-97425267D01*
X250273605Y-124999187D02*
X248900000Y-126372792D01*
X252198059Y-97425267D02*
X252198059Y-108574733D01*
X252198059Y-108574733D02*
X250136396Y-110636396D01*
X248900000Y-126372792D02*
X248900000Y-128500000D01*
X248900000Y-128500000D02*
X252649951Y-132249951D01*
X252649951Y-132249951D02*
X261057051Y-132249951D01*
X261057051Y-132249951D02*
X261293990Y-132486890D01*
%TO.N,middle_num*%
X204920174Y-79420174D02*
X205000000Y-79500000D01*
X199072366Y-81911146D02*
X201563338Y-79420174D01*
X208915756Y-75584244D02*
X208915756Y-74346453D01*
X201563338Y-79420174D02*
X204920174Y-79420174D01*
X199072366Y-84219670D02*
X199072366Y-81911146D01*
X205000000Y-79500000D02*
X208915756Y-75584244D01*
%TO.N,P3*%
X261011091Y-135011091D02*
X265036381Y-135469715D01*
X261006454Y-135010563D02*
X261011091Y-135011091D01*
X210466516Y-87120677D02*
X215620677Y-87120677D01*
X215620677Y-87120677D02*
X221000000Y-92500000D01*
X243000000Y-93505256D02*
X249925274Y-93505256D01*
X221000000Y-92500000D02*
X225567550Y-92500000D01*
X225567550Y-92500000D02*
X229098340Y-88969210D01*
X229098340Y-88969210D02*
X232226522Y-88969210D01*
X232226522Y-88969210D02*
X235500000Y-92242688D01*
X235500000Y-92242688D02*
X235500000Y-92500000D01*
X235500000Y-92500000D02*
X236093553Y-93093553D01*
X252223624Y-134773624D02*
X260773624Y-134773624D01*
X236093553Y-93093553D02*
X242588297Y-93093553D01*
X242588297Y-93093553D02*
X243000000Y-93505256D01*
X249500000Y-110818511D02*
X249823605Y-111142116D01*
X249925274Y-93505256D02*
X250969548Y-94549530D01*
X249500000Y-110636396D02*
X249500000Y-110818511D01*
X250969548Y-94549530D02*
X250969548Y-96833152D01*
X250969548Y-96833152D02*
X251748059Y-97611663D01*
X251748059Y-97611663D02*
X251748059Y-108388337D01*
X251748059Y-108388337D02*
X249500000Y-110636396D01*
X249823605Y-111142116D02*
X249823605Y-124812791D01*
X249823605Y-124812791D02*
X248450000Y-126186396D01*
X248450000Y-126186396D02*
X248450000Y-131000000D01*
X248450000Y-131000000D02*
X252223624Y-134773624D01*
X260773624Y-134773624D02*
X261011091Y-135011091D01*
%TO.N,P4*%
X260718918Y-137534236D02*
X261000000Y-137566261D01*
X248000000Y-133500000D02*
X251569326Y-137069326D01*
X261000000Y-137566261D02*
X264748845Y-137993388D01*
X229643220Y-103549688D02*
X232915474Y-103549688D01*
X250519548Y-96980452D02*
X250500000Y-97000000D01*
X232915474Y-103549688D02*
X240753763Y-95711399D01*
X240753763Y-95711399D02*
X244919209Y-95711399D01*
X244919209Y-95711399D02*
X246643024Y-93987584D01*
X250500000Y-97000000D02*
X251298059Y-97798059D01*
X246643024Y-93987584D02*
X249771206Y-93987584D01*
X249771206Y-93987584D02*
X250519548Y-94735926D01*
X250519548Y-94735926D02*
X250519548Y-96980452D01*
X251298059Y-97798059D02*
X251298059Y-108201941D01*
X249045093Y-111000000D02*
X249373605Y-111328512D01*
X251298059Y-108201941D02*
X249045093Y-110454907D01*
X249045093Y-110454907D02*
X249045093Y-111000000D01*
X249373605Y-111328512D02*
X249373605Y-124626395D01*
X249373605Y-124626395D02*
X248000000Y-126000000D01*
X248000000Y-126000000D02*
X248000000Y-133500000D01*
X251569326Y-137069326D02*
X260503065Y-137069326D01*
X260503065Y-137069326D02*
X261000000Y-137566261D01*
%TO.N,P5*%
X259757019Y-139210118D02*
X260385320Y-140000000D01*
X251983050Y-139820969D02*
X260206289Y-139820969D01*
X260385320Y-140000000D02*
X260431382Y-140057908D01*
X246670638Y-134508557D02*
X251983050Y-139820969D01*
X260206289Y-139820969D02*
X260385320Y-140000000D01*
%TO.N,P2*%
X189050853Y-141816199D02*
X199179803Y-141816199D01*
X199179803Y-141816199D02*
X215131802Y-157768198D01*
X215131802Y-157768198D02*
X225495406Y-157768198D01*
X225495406Y-157768198D02*
X231000000Y-163272792D01*
X206187251Y-173812748D02*
X207583477Y-175208974D01*
X231000000Y-163272792D02*
X231000000Y-164000000D01*
X231000000Y-164000000D02*
X230000000Y-164000000D01*
X227423038Y-162923038D02*
X223500000Y-162923038D01*
X230000000Y-164000000D02*
X229500000Y-163500000D01*
X229500000Y-163500000D02*
X228000000Y-163500000D01*
X222698644Y-162121682D02*
X219185472Y-162121682D01*
X228000000Y-163500000D02*
X227423038Y-162923038D01*
X210307154Y-171000000D02*
X208906302Y-171000000D01*
X223500000Y-162923038D02*
X222698644Y-162121682D01*
X219185472Y-162121682D02*
X210307154Y-171000000D01*
X208906302Y-171000000D02*
X206187251Y-173719051D01*
X206187251Y-173719051D02*
X206187251Y-173812748D01*
%TO.N,P3*%
X207353040Y-138025552D02*
X207353040Y-149353040D01*
X207353040Y-149353040D02*
X215318198Y-157318198D01*
X215318198Y-157318198D02*
X225681802Y-157318198D01*
X235181802Y-166818198D02*
X233217238Y-166818198D01*
X233217238Y-166818198D02*
X225701924Y-174333512D01*
X225681802Y-157318198D02*
X235181802Y-166818198D01*
X225701924Y-174333512D02*
X225701924Y-178087582D01*
%TO.N,P5*%
X246119359Y-166550000D02*
X249500000Y-169930641D01*
X268306706Y-182529137D02*
X259351312Y-191484531D01*
X236186396Y-166550000D02*
X246119359Y-166550000D01*
X230755514Y-160744486D02*
X230568198Y-160931802D01*
X239910280Y-160744486D02*
X230755514Y-160744486D01*
X241414540Y-159240226D02*
X239910280Y-160744486D01*
X230568198Y-160931802D02*
X236186396Y-166550000D01*
X257394774Y-169930641D02*
X268306706Y-180842573D01*
X249500000Y-169930641D02*
X257394774Y-169930641D01*
X268306706Y-180842573D02*
X268306706Y-182529137D01*
X259351312Y-191484531D02*
X259351312Y-192427890D01*
%TO.N,P4*%
X223869856Y-154221853D02*
X223869856Y-154869856D01*
X223869856Y-154869856D02*
X236000000Y-167000000D01*
X249432786Y-170499823D02*
X249432786Y-174567214D01*
X236000000Y-167000000D02*
X245932963Y-167000000D01*
X245932963Y-167000000D02*
X249432786Y-170499823D01*
X249432786Y-174567214D02*
X243161271Y-180838729D01*
X243161271Y-180838729D02*
X243161271Y-183528923D01*
%TO.N,P5*%
X243338994Y-142349504D02*
X244746184Y-143756694D01*
X244746184Y-143756694D02*
X244746184Y-151399279D01*
X244746184Y-151399279D02*
X241414540Y-154730923D01*
X241414540Y-154730923D02*
X241414540Y-159240226D01*
X245263449Y-125458783D02*
X246670638Y-126865972D01*
X246670638Y-134508557D02*
X243338994Y-137840201D01*
X246670638Y-126865972D02*
X246670638Y-134508557D01*
X243338994Y-137840201D02*
X243338994Y-142349504D01*
X247187903Y-108568061D02*
X248595093Y-109975251D01*
X248595093Y-109975251D02*
X248595093Y-117404907D01*
X248595093Y-117404907D02*
X245263449Y-120736551D01*
X245263449Y-120736551D02*
X245263449Y-125458783D01*
%TO.N,P4*%
X225794311Y-137331131D02*
X227201500Y-138738320D01*
X227201500Y-138738320D02*
X227201500Y-145798500D01*
X227201500Y-145798500D02*
X223869856Y-149130144D01*
X223869856Y-149130144D02*
X223869856Y-154221853D01*
X227718765Y-120440410D02*
X229125955Y-121847600D01*
X229125955Y-121847600D02*
X229125955Y-129374045D01*
X229125955Y-129374045D02*
X225794311Y-132705689D01*
X225794311Y-132705689D02*
X225794311Y-137331131D01*
X229643220Y-103549688D02*
X231050409Y-104956877D01*
X231050409Y-104956877D02*
X231050409Y-112599463D01*
X227718765Y-115931107D02*
X227718765Y-120440410D01*
X231050409Y-112599463D02*
X227718765Y-115931107D01*
%TO.N,P3*%
X208390866Y-121057260D02*
X209985645Y-122652039D01*
X209985645Y-122652039D02*
X209985645Y-130440282D01*
X209985645Y-130440282D02*
X207334129Y-133091798D01*
X207334129Y-133091798D02*
X207334129Y-138006641D01*
X207334129Y-138006641D02*
X207353040Y-138025552D01*
X209428691Y-104088969D02*
X211023471Y-105683749D01*
X211023471Y-105683749D02*
X211023471Y-112976529D01*
X211023471Y-112976529D02*
X208371955Y-115628045D01*
X208371955Y-115628045D02*
X208371955Y-121038349D01*
X208371955Y-121038349D02*
X208390866Y-121057260D01*
X210466516Y-87120677D02*
X212061296Y-88715457D01*
X212061296Y-88715457D02*
X212061296Y-96438704D01*
X209409780Y-104070058D02*
X209428691Y-104088969D01*
X212061296Y-96438704D02*
X209409780Y-99090220D01*
X209409780Y-99090220D02*
X209409780Y-104070058D01*
%TO.N,P2*%
X189050853Y-124816199D02*
X190863353Y-126628699D01*
X190863353Y-126628699D02*
X190863353Y-134545015D01*
X190863353Y-134545015D02*
X188000000Y-137408368D01*
X188000000Y-137408368D02*
X188000000Y-140765346D01*
X188000000Y-140765346D02*
X189050853Y-141816199D01*
X189050853Y-107816199D02*
X190863353Y-109628699D01*
X190863353Y-109628699D02*
X190863353Y-117136647D01*
X190863353Y-117136647D02*
X188900853Y-119099147D01*
X188900853Y-119099147D02*
X188900853Y-124666199D01*
X188900853Y-124666199D02*
X189050853Y-124816199D01*
X189050853Y-90816199D02*
X190863353Y-92628699D01*
X190863353Y-92628699D02*
X190863353Y-100136647D01*
X190863353Y-100136647D02*
X188900853Y-102099147D01*
X188900853Y-102099147D02*
X188900853Y-107666199D01*
X188900853Y-107666199D02*
X189050853Y-107816199D01*
%TO.N,P0*%
X170230971Y-137137810D02*
X172350839Y-139257678D01*
X172350839Y-139257678D02*
X172350839Y-146966862D01*
X172350839Y-146966862D02*
X170319750Y-148997951D01*
X170319750Y-148997951D02*
X170319750Y-152680251D01*
X170319750Y-152680251D02*
X171712619Y-154073120D01*
X168749323Y-120202500D02*
X170869191Y-122322368D01*
X170869191Y-122322368D02*
X170869191Y-130130809D01*
X170869191Y-130130809D02*
X169882665Y-131117335D01*
X169882665Y-131117335D02*
X169882665Y-136789504D01*
X169882665Y-136789504D02*
X170230971Y-137137810D01*
X167267676Y-103267190D02*
X169387543Y-105387057D01*
X169387543Y-105387057D02*
X169387543Y-113112457D01*
X169387543Y-113112457D02*
X168401017Y-114098983D01*
X168401017Y-114098983D02*
X168401017Y-119854194D01*
X168401017Y-119854194D02*
X168749323Y-120202500D01*
%TO.N,P1*%
X152299466Y-138706613D02*
X154419334Y-140826481D01*
X154419334Y-140826481D02*
X154419334Y-148580666D01*
X154419334Y-148580666D02*
X152319595Y-150680405D01*
X152319595Y-150680405D02*
X152319595Y-154180404D01*
X152319595Y-154180404D02*
X153781114Y-155641923D01*
X150817819Y-121771303D02*
X150817819Y-122612142D01*
X152937686Y-124732009D02*
X152937686Y-131600355D01*
X152937686Y-131600355D02*
X150796427Y-133741614D01*
X150817819Y-122612142D02*
X152937686Y-124732009D01*
X150796427Y-133741614D02*
X150796427Y-137203574D01*
X150796427Y-137203574D02*
X152299466Y-138706613D01*
X149336171Y-104835993D02*
X151456039Y-106955861D01*
X151456039Y-106955861D02*
X151456039Y-114665045D01*
X151456039Y-114665045D02*
X149273258Y-116847826D01*
X149273258Y-116847826D02*
X149273258Y-120226742D01*
X149273258Y-120226742D02*
X150817819Y-121771303D01*
%TO.N,inner_num*%
X235961195Y-105074706D02*
X238147051Y-102888850D01*
X238147051Y-102888850D02*
X240111150Y-102888850D01*
X240111150Y-102888850D02*
X247095933Y-95904067D01*
X247095933Y-95904067D02*
X247095933Y-95020565D01*
%TO.N,P5*%
X244000000Y-105500000D02*
X247068061Y-108568061D01*
X247068061Y-108568061D02*
X247187903Y-108568061D01*
%TO.N,inner_top*%
X234036741Y-121965428D02*
X236222597Y-119779572D01*
X236222597Y-119779572D02*
X237907074Y-119779572D01*
X237907074Y-119779572D02*
X245171478Y-112515168D01*
X245171478Y-112515168D02*
X245171478Y-111911286D01*
%TO.N,P5*%
X242500000Y-122500000D02*
X243000000Y-123000000D01*
X243000000Y-123195334D02*
X245263449Y-125458783D01*
X243000000Y-123000000D02*
X243000000Y-123195334D01*
X240000000Y-139500000D02*
X240500000Y-140000000D01*
X240500000Y-140000000D02*
X240989490Y-140000000D01*
X240989490Y-140000000D02*
X243338994Y-142349504D01*
%TO.N,inner_home*%
X232112286Y-138856149D02*
X232112286Y-136892383D01*
X232112286Y-136892383D02*
X234786176Y-134218493D01*
X234786176Y-134218493D02*
X237830538Y-134218493D01*
X237830538Y-134218493D02*
X243247023Y-128802008D01*
%TO.N,P5*%
X239000000Y-156825686D02*
X241414540Y-159240226D01*
X239000000Y-156500000D02*
X239000000Y-156825686D01*
X238500000Y-156000000D02*
X239000000Y-156500000D01*
%TO.N,inner_bottom*%
X230187832Y-155746871D02*
X230187832Y-153783105D01*
X230187832Y-153783105D02*
X232861722Y-151109215D01*
X232861722Y-151109215D02*
X235906083Y-151109215D01*
X235906083Y-151109215D02*
X241322569Y-145692729D01*
%TO.N,index_num*%
X218416512Y-100056333D02*
X218416512Y-98092567D01*
X218416512Y-98092567D02*
X221090402Y-95418677D01*
X221090402Y-95418677D02*
X224134763Y-95418677D01*
X224134763Y-95418677D02*
X229551249Y-90002191D01*
%TO.N,P4*%
X226500000Y-100500000D02*
X229549688Y-103549688D01*
X229549688Y-103549688D02*
X229643220Y-103549688D01*
%TO.N,index_top*%
X216492057Y-116947055D02*
X218677913Y-114761199D01*
X218677913Y-114761199D02*
X220738801Y-114761199D01*
X220738801Y-114761199D02*
X227626794Y-107873206D01*
X227626794Y-107873206D02*
X227626794Y-106892913D01*
%TO.N,P4*%
X225000000Y-117500000D02*
X227718765Y-120218765D01*
X227718765Y-120218765D02*
X227718765Y-120440410D01*
%TO.N,index_home*%
X214567603Y-133837776D02*
X214567603Y-131874010D01*
X214567603Y-131874010D02*
X217241493Y-129200120D01*
X217241493Y-129200120D02*
X220285854Y-129200120D01*
X220285854Y-129200120D02*
X225702340Y-123783634D01*
%TO.N,P4*%
X223500000Y-135000000D02*
X223500000Y-135036820D01*
X223000000Y-134500000D02*
X223500000Y-135000000D01*
X223500000Y-135036820D02*
X225794311Y-137331131D01*
%TO.N,index_bottom*%
X212643148Y-150728498D02*
X212643148Y-148764732D01*
X212643148Y-148764732D02*
X215317038Y-146090842D01*
X215317038Y-146090842D02*
X218361399Y-146090842D01*
X218361399Y-146090842D02*
X223777885Y-140674356D01*
%TO.N,P4*%
X223721853Y-154221853D02*
X223869856Y-154221853D01*
X221000000Y-151500000D02*
X223721853Y-154221853D01*
%TO.N,outer_cluster*%
X250792200Y-184366619D02*
X254947656Y-180211163D01*
X254947656Y-180211163D02*
X265207481Y-180211163D01*
%TO.N,P5*%
X258000000Y-189000000D02*
X259351312Y-190351312D01*
X259351312Y-190351312D02*
X259351312Y-192427890D01*
%TO.N,center_cluster*%
X233008137Y-177599643D02*
X233008137Y-176220540D01*
X233008137Y-176220540D02*
X238920719Y-170307958D01*
X238920719Y-170307958D02*
X246119180Y-170307958D01*
%TO.N,P4*%
X241001837Y-180496159D02*
X243161271Y-182655593D01*
X243161271Y-182655593D02*
X243161271Y-183528923D01*
%TO.N,P3*%
X223500000Y-174500000D02*
X225701924Y-176701924D01*
X225701924Y-176701924D02*
X225701924Y-178087582D01*
%TO.N,inner_cluster*%
X214822403Y-173629048D02*
X216044473Y-172406978D01*
X216044473Y-172406978D02*
X218967690Y-172406978D01*
X218967690Y-172406978D02*
X226791046Y-164583622D01*
%TO.N,P2*%
X205000000Y-173000000D02*
X205374503Y-173000000D01*
X204500000Y-172500000D02*
X205000000Y-173000000D01*
X205374503Y-173000000D02*
X207583477Y-175208974D01*
%TO.N,tuck_cluster*%
X196189327Y-172307967D02*
X196189327Y-169999443D01*
X196189327Y-169999443D02*
X203754020Y-162434750D01*
X203754020Y-162434750D02*
X206032717Y-162434750D01*
X206032717Y-162434750D02*
X206782610Y-161684857D01*
%TO.N,middle_bottom*%
X195958890Y-135124545D02*
X195958890Y-132816021D01*
X195958890Y-132816021D02*
X203523583Y-125251328D01*
X203523583Y-125251328D02*
X205802280Y-125251328D01*
X205802280Y-125251328D02*
X206552173Y-124501435D01*
%TO.N,P3*%
X207353040Y-137853040D02*
X207353040Y-138025552D01*
X204500000Y-135000000D02*
X207353040Y-137853040D01*
X206333606Y-119000000D02*
X208390866Y-121057260D01*
X205000000Y-118500000D02*
X205500000Y-119000000D01*
X205500000Y-119000000D02*
X206333606Y-119000000D01*
%TO.N,middle_home*%
X196996716Y-118156253D02*
X196996716Y-115847729D01*
X196996716Y-115847729D02*
X204561409Y-108283036D01*
X204561409Y-108283036D02*
X206840106Y-108283036D01*
X206840106Y-108283036D02*
X207589999Y-107533143D01*
%TO.N,middle_top*%
X198034541Y-101187962D02*
X198034541Y-98879438D01*
X198034541Y-98879438D02*
X205599235Y-91314744D01*
X205599235Y-91314744D02*
X207877931Y-91314744D01*
X207877931Y-91314744D02*
X208627824Y-90564851D01*
%TO.N,P3*%
X206500000Y-101000000D02*
X206500000Y-101160278D01*
X206500000Y-101160278D02*
X209428691Y-104088969D01*
%TO.N,middle_num*%
X208915756Y-74346453D02*
X209665649Y-73596560D01*
%TO.N,P3*%
X207500000Y-84000000D02*
X208000000Y-84500000D01*
X208000000Y-84654161D02*
X210466516Y-87120677D01*
X208000000Y-84500000D02*
X208000000Y-84654161D01*
%TO.N,P2*%
X185500000Y-88000000D02*
X186234654Y-88000000D01*
X186234654Y-88000000D02*
X189050853Y-90816199D01*
%TO.N,ring_top*%
X177500853Y-105616199D02*
X177500853Y-102907515D01*
X177500853Y-102907515D02*
X186042169Y-94366199D01*
X186042169Y-94366199D02*
X187425853Y-94366199D01*
%TO.N,P2*%
X188816199Y-107816199D02*
X189050853Y-107816199D01*
X186000000Y-105000000D02*
X188816199Y-107816199D01*
%TO.N,ring_home*%
X177500853Y-122616199D02*
X177500853Y-119907515D01*
X177500853Y-119907515D02*
X186042169Y-111366199D01*
X186042169Y-111366199D02*
X187425853Y-111366199D01*
%TO.N,P2*%
X186000000Y-122000000D02*
X188816199Y-124816199D01*
X188816199Y-124816199D02*
X189050853Y-124816199D01*
%TO.N,ring_bottom*%
X177500853Y-139616199D02*
X177500853Y-136907515D01*
X186042169Y-128366199D02*
X187425853Y-128366199D01*
X177500853Y-136907515D02*
X186042169Y-128366199D01*
%TO.N,P2*%
X186734654Y-139500000D02*
X189050853Y-141816199D01*
X185500000Y-139500000D02*
X186734654Y-139500000D01*
%TO.N,pinky_num*%
X155569885Y-102082211D02*
X157730320Y-99921776D01*
X157730320Y-99921776D02*
X158078224Y-99921776D01*
X158078224Y-99921776D02*
X164476615Y-93523385D01*
X164476615Y-93523385D02*
X164476615Y-90010000D01*
%TO.N,P0*%
X163500000Y-101000000D02*
X165000486Y-101000000D01*
X165000486Y-101000000D02*
X167267676Y-103267190D01*
%TO.N,pinky_top*%
X157051532Y-119017521D02*
X157051532Y-115743856D01*
X157051532Y-115743856D02*
X165850078Y-106945310D01*
X165850078Y-106945310D02*
X165958262Y-106945310D01*
%TO.N,P0*%
X166546823Y-118000000D02*
X168749323Y-120202500D01*
X164500000Y-118000000D02*
X166546823Y-118000000D01*
%TO.N,pinky_home*%
X158533180Y-135952831D02*
X158533180Y-132679166D01*
X158533180Y-132679166D02*
X167331726Y-123880620D01*
X167331726Y-123880620D02*
X167439910Y-123880620D01*
%TO.N,P0*%
X166500000Y-135000000D02*
X168093161Y-135000000D01*
X168093161Y-135000000D02*
X170230971Y-137137810D01*
X168500000Y-152000000D02*
X169639499Y-152000000D01*
X169639499Y-152000000D02*
X171712619Y-154073120D01*
%TO.N,pinky_bottom*%
X160014828Y-152888141D02*
X160014828Y-149614476D01*
X160014828Y-149614476D02*
X168813375Y-140815929D01*
X168813375Y-140815929D02*
X168921558Y-140815929D01*
%TO.N,P1*%
X151139191Y-153000000D02*
X150000000Y-153000000D01*
X153781114Y-155641923D02*
X151139191Y-153000000D01*
%TO.N,outer_bottom*%
X142083323Y-154456944D02*
X142083323Y-151183279D01*
X142083323Y-151183279D02*
X150881869Y-142384733D01*
X150881869Y-142384733D02*
X150990053Y-142384733D01*
%TO.N,P1*%
X150592853Y-137000000D02*
X152299466Y-138706613D01*
X149500000Y-137000000D02*
X150592853Y-137000000D01*
X149000000Y-136500000D02*
X149500000Y-137000000D01*
%TO.N,outer_home*%
X140601675Y-137521634D02*
X140601675Y-134247969D01*
X140601675Y-134247969D02*
X149400221Y-125449423D01*
X149400221Y-125449423D02*
X149508405Y-125449423D01*
%TO.N,P1*%
X147500000Y-119500000D02*
X148546516Y-119500000D01*
X148546516Y-119500000D02*
X150817819Y-121771303D01*
%TO.N,outer_top*%
X139120028Y-120586324D02*
X139120028Y-117312659D01*
X139120028Y-117312659D02*
X147918574Y-108514113D01*
X147918574Y-108514113D02*
X148026758Y-108514113D01*
%TO.N,outer_num*%
X137638380Y-103651014D02*
X137638380Y-100377349D01*
X137638380Y-100377349D02*
X146436926Y-91578803D01*
X146436926Y-91578803D02*
X146545110Y-91578803D01*
%TO.N,P1*%
X145500000Y-103000000D02*
X147500178Y-103000000D01*
X147500178Y-103000000D02*
X149336171Y-104835993D01*
%TO.N,P10*%
X262424289Y-178438075D02*
X261763132Y-178438075D01*
X261763132Y-178438075D02*
X260602564Y-177277507D01*
%TO.N,outer_cluster*%
X267029206Y-181371731D02*
X266368049Y-181371731D01*
X266368049Y-181371731D02*
X265207481Y-180211163D01*
%TO.N,center_cluster*%
X248155286Y-171028981D02*
X246840203Y-171028981D01*
X246840203Y-171028981D02*
X246119180Y-170307958D01*
%TO.N,P10*%
X243008464Y-169206396D02*
X241693381Y-169206396D01*
X241693381Y-169206396D02*
X240972358Y-168485373D01*
%TO.N,inner_cluster*%
X228907683Y-165014257D02*
X227221681Y-165014257D01*
X227221681Y-165014257D02*
X226791046Y-164583622D01*
%TO.N,P10*%
X223557294Y-163925708D02*
X221871292Y-163925708D01*
X221871292Y-163925708D02*
X221440657Y-163495073D01*
X203488766Y-161483397D02*
X201464659Y-161483397D01*
X201464659Y-161483397D02*
X201332794Y-161351532D01*
%TO.N,tuck_cluster*%
X208938582Y-161816722D02*
X206914475Y-161816722D01*
X206914475Y-161816722D02*
X206782610Y-161684857D01*
%TO.N,P9*%
X220499097Y-140300786D02*
X218597501Y-140300786D01*
X218597501Y-140300786D02*
X218352982Y-140056267D01*
%TO.N,index_bottom*%
X225924000Y-140918875D02*
X224022404Y-140918875D01*
X224022404Y-140918875D02*
X223777885Y-140674356D01*
%TO.N,P9*%
X238043781Y-145319159D02*
X236142185Y-145319159D01*
X236142185Y-145319159D02*
X235897666Y-145074640D01*
%TO.N,inner_bottom*%
X243468684Y-145937248D02*
X241567088Y-145937248D01*
X241567088Y-145937248D02*
X241322569Y-145692729D01*
%TO.N,P6*%
X243817145Y-94646995D02*
X241915549Y-94646995D01*
X241915549Y-94646995D02*
X241671030Y-94402476D01*
%TO.N,inner_num*%
X249242048Y-95265084D02*
X247340452Y-95265084D01*
X247340452Y-95265084D02*
X247095933Y-95020565D01*
%TO.N,P7*%
X241892690Y-111537716D02*
X239991094Y-111537716D01*
X239991094Y-111537716D02*
X239746575Y-111293197D01*
%TO.N,inner_top*%
X247317593Y-112155805D02*
X245415997Y-112155805D01*
X245415997Y-112155805D02*
X245171478Y-111911286D01*
%TO.N,P8*%
X239968235Y-128428438D02*
X238066639Y-128428438D01*
X238066639Y-128428438D02*
X237822120Y-128183919D01*
%TO.N,inner_home*%
X245393138Y-129046527D02*
X243491542Y-129046527D01*
X243491542Y-129046527D02*
X243247023Y-128802008D01*
%TO.N,P8*%
X222423552Y-123410064D02*
X220521956Y-123410064D01*
X220521956Y-123410064D02*
X220277437Y-123165545D01*
%TO.N,index_home*%
X227848455Y-124028153D02*
X225946859Y-124028153D01*
X225946859Y-124028153D02*
X225702340Y-123783634D01*
%TO.N,index_top*%
X229772909Y-107137432D02*
X227871313Y-107137432D01*
X227871313Y-107137432D02*
X227626794Y-106892913D01*
%TO.N,P7*%
X224348006Y-106519343D02*
X222446410Y-106519343D01*
X222446410Y-106519343D02*
X222201891Y-106274824D01*
%TO.N,index_num*%
X231697364Y-90246710D02*
X229795768Y-90246710D01*
X229795768Y-90246710D02*
X229551249Y-90002191D01*
%TO.N,P6*%
X226272461Y-89628621D02*
X224370865Y-89628621D01*
X224370865Y-89628621D02*
X224126346Y-89384102D01*
%TO.N,P9*%
X203258329Y-124299975D02*
X201234222Y-124299975D01*
X201234222Y-124299975D02*
X201102357Y-124168110D01*
%TO.N,middle_bottom*%
X208708145Y-124633300D02*
X206684038Y-124633300D01*
X206684038Y-124633300D02*
X206552173Y-124501435D01*
%TO.N,P8*%
X204296155Y-107331683D02*
X202272048Y-107331683D01*
X202272048Y-107331683D02*
X202140183Y-107199818D01*
%TO.N,middle_home*%
X209745971Y-107665008D02*
X207721864Y-107665008D01*
X207721864Y-107665008D02*
X207589999Y-107533143D01*
%TO.N,P7*%
X205333980Y-90363391D02*
X203309873Y-90363391D01*
X203309873Y-90363391D02*
X203178008Y-90231526D01*
%TO.N,middle_top*%
X210783796Y-90696716D02*
X208759689Y-90696716D01*
X208759689Y-90696716D02*
X208627824Y-90564851D01*
%TO.N,P6*%
X206371805Y-73395100D02*
X204347698Y-73395100D01*
X204347698Y-73395100D02*
X204215833Y-73263235D01*
%TO.N,middle_num*%
X211821621Y-73728425D02*
X209797514Y-73728425D01*
X209797514Y-73728425D02*
X209665649Y-73596560D01*
%TO.N,P6*%
X184125853Y-77366199D02*
X181965853Y-77366199D01*
%TO.N,ring_num*%
X189585853Y-77366199D02*
X187425853Y-77366199D01*
%TO.N,P7*%
X184125853Y-94366199D02*
X181965853Y-94366199D01*
%TO.N,ring_top*%
X189585853Y-94366199D02*
X187425853Y-94366199D01*
%TO.N,P8*%
X184125853Y-111366199D02*
X181965853Y-111366199D01*
%TO.N,ring_home*%
X189585853Y-111366199D02*
X187425853Y-111366199D01*
%TO.N,ring_bottom*%
X189585853Y-128366199D02*
X187425853Y-128366199D01*
%TO.N,P9*%
X184125853Y-128366199D02*
X181965853Y-128366199D01*
X147702611Y-142672347D02*
X145739086Y-142672347D01*
X145739086Y-142672347D02*
X145550830Y-142860603D01*
%TO.N,outer_bottom*%
X153141834Y-142196477D02*
X151178309Y-142196477D01*
X151178309Y-142196477D02*
X150990053Y-142384733D01*
%TO.N,P9*%
X165634116Y-141103543D02*
X163670591Y-141103543D01*
X163670591Y-141103543D02*
X163482335Y-141291799D01*
%TO.N,pinky_bottom*%
X171073339Y-140627673D02*
X169109814Y-140627673D01*
X169109814Y-140627673D02*
X168921558Y-140815929D01*
%TO.N,pinky_home*%
X169591691Y-123692364D02*
X167628166Y-123692364D01*
X167628166Y-123692364D02*
X167439910Y-123880620D01*
%TO.N,P8*%
X164152468Y-124168234D02*
X162188943Y-124168234D01*
X162188943Y-124168234D02*
X162000687Y-124356490D01*
X146220963Y-125737037D02*
X144257438Y-125737037D01*
X144257438Y-125737037D02*
X144069182Y-125925293D01*
%TO.N,outer_home*%
X151660186Y-125261167D02*
X149696661Y-125261167D01*
X149696661Y-125261167D02*
X149508405Y-125449423D01*
%TO.N,P7*%
X144739316Y-108801727D02*
X142775791Y-108801727D01*
X142775791Y-108801727D02*
X142587535Y-108989983D01*
%TO.N,outer_top*%
X148026758Y-108514113D02*
X149990283Y-108514113D01*
X149990283Y-108514113D02*
X150178539Y-108325857D01*
%TO.N,P7*%
X162670820Y-107232924D02*
X160707295Y-107232924D01*
X160707295Y-107232924D02*
X160519039Y-107421180D01*
%TO.N,pinky_top*%
X168110043Y-106757054D02*
X166146518Y-106757054D01*
X166146518Y-106757054D02*
X165958262Y-106945310D01*
%TO.N,P6*%
X161189173Y-90297614D02*
X159225648Y-90297614D01*
X159225648Y-90297614D02*
X159037392Y-90485870D01*
%TO.N,pinky_num*%
X166628396Y-89821744D02*
X164664871Y-89821744D01*
X164664871Y-89821744D02*
X164476615Y-90010000D01*
%TO.N,outer_num*%
X148696891Y-91390547D02*
X146733366Y-91390547D01*
X146733366Y-91390547D02*
X146545110Y-91578803D01*
%TO.N,P6*%
X143257668Y-91866417D02*
X141294143Y-91866417D01*
X141294143Y-91866417D02*
X141105887Y-92054673D01*
%TO.N,VCC*%
X262428614Y-129276476D02*
X261754251Y-128428686D01*
X261754251Y-128428686D02*
X257724324Y-127969534D01*
X257724324Y-127969534D02*
X256876534Y-128643896D01*
%TO.N,GND*%
X260907164Y-129115428D02*
X261581526Y-129963218D01*
X265898990Y-127898698D02*
X266746779Y-127224335D01*
X261869062Y-127439546D02*
X265898990Y-127898698D01*
X261194700Y-126591756D02*
X261869062Y-127439546D01*
X261581526Y-129963218D02*
X265611454Y-130422370D01*
X263003686Y-124229131D02*
X262329324Y-123381341D01*
X258299396Y-122922189D02*
X257451607Y-123596551D01*
X262329324Y-123381341D02*
X258299396Y-122922189D01*
X265611454Y-130422370D02*
X266459243Y-129748008D01*
%TO.N,P9*%
X258606874Y-149304808D02*
X259281237Y-150152598D01*
X259281237Y-150152598D02*
X263311164Y-150611750D01*
X263311164Y-150611750D02*
X264158954Y-149937388D01*
%TO.N,P2*%
X260619628Y-131639101D02*
X261293990Y-132486890D01*
X261293990Y-132486890D02*
X265323917Y-132946043D01*
X265323917Y-132946043D02*
X266171707Y-132271680D01*
%TO.N,P0*%
X261482236Y-124068083D02*
X262156598Y-124915873D01*
X266186526Y-125375025D02*
X267034316Y-124700663D01*
%TO.N,P1*%
X261769772Y-121544411D02*
X262444135Y-122392200D01*
X262444135Y-122392200D02*
X266474062Y-122851353D01*
X266474062Y-122851353D02*
X267321852Y-122176990D01*
%TO.N,P8*%
X258894411Y-146781136D02*
X259568773Y-147628926D01*
X263598700Y-148088078D02*
X264446490Y-147413715D01*
X259568773Y-147628926D02*
X263598700Y-148088078D01*
%TO.N,P7*%
X263886237Y-145564405D02*
X264734026Y-144890043D01*
X259181947Y-144257463D02*
X259856309Y-145105253D01*
X259856309Y-145105253D02*
X263886237Y-145564405D01*
%TO.N,P6*%
X264173773Y-143040733D02*
X265021562Y-142366370D01*
X260143845Y-142581581D02*
X264173773Y-143040733D01*
X259469483Y-141733791D02*
X260143845Y-142581581D01*
%TO.N,P5*%
X264461309Y-140517060D02*
X265309099Y-139842698D01*
X260431382Y-140057908D02*
X264461309Y-140517060D01*
%TO.N,P4*%
X264748845Y-137993388D02*
X265596635Y-137319025D01*
X260044555Y-136686446D02*
X260718918Y-137534236D01*
%TO.N,P3*%
X265036381Y-135469715D02*
X265884171Y-134795353D01*
X260332091Y-134162773D02*
X261006454Y-135010563D01*
%TO.N,RAW*%
X262616860Y-120857668D02*
X258586932Y-120398516D01*
X258586932Y-120398516D02*
X257739143Y-121072878D01*
X263291222Y-121705458D02*
X262616860Y-120857668D01*
%TO.N,RST*%
X262041788Y-125905013D02*
X258011860Y-125445861D01*
X262716150Y-126752803D02*
X262041788Y-125905013D01*
X258011860Y-125445861D02*
X257164070Y-126120224D01*
%TO.N,P21*%
X261466715Y-130952358D02*
X257436788Y-130493206D01*
X262141078Y-131800148D02*
X261466715Y-130952358D01*
X257436788Y-130493206D02*
X256588998Y-131167568D01*
%TO.N,P20*%
X257149252Y-133016879D02*
X256301462Y-133691241D01*
X261179179Y-133476031D02*
X257149252Y-133016879D01*
X261853541Y-134323821D02*
X261179179Y-133476031D01*
%TO.N,P19*%
X260891643Y-135999703D02*
X256861715Y-135540551D01*
X256861715Y-135540551D02*
X256013926Y-136214914D01*
X261566005Y-136847493D02*
X260891643Y-135999703D01*
%TO.N,P18*%
X256574179Y-138064224D02*
X255726390Y-138738586D01*
X260604107Y-138523376D02*
X256574179Y-138064224D01*
X261278469Y-139371166D02*
X260604107Y-138523376D01*
%TO.N,P15*%
X260990933Y-141894838D02*
X260316571Y-141047048D01*
X256286643Y-140587896D02*
X255438853Y-141262259D01*
X260316571Y-141047048D02*
X256286643Y-140587896D01*
%TO.N,P14*%
X260703397Y-144418511D02*
X260029034Y-143570721D01*
X255999107Y-143111569D02*
X255151317Y-143785931D01*
X260029034Y-143570721D02*
X255999107Y-143111569D01*
%TO.N,P16*%
X260415861Y-146942183D02*
X259741498Y-146094394D01*
X259741498Y-146094394D02*
X255711571Y-145635241D01*
X255711571Y-145635241D02*
X254863781Y-146309604D01*
%TO.N,P10*%
X260128324Y-149465856D02*
X259453962Y-148618066D01*
X255424035Y-148158914D02*
X254576245Y-148833276D01*
X259453962Y-148618066D02*
X255424035Y-148158914D01*
%TO.N,pos*%
X262974695Y-120000000D02*
X263000000Y-120000000D01*
X260792150Y-117817455D02*
X262974695Y-120000000D01*
%TO.N,GND*%
X272085801Y-124414199D02*
X272085801Y-116623994D01*
%TD*%
M02*
