%TF.GenerationSoftware,KiCad,Pcbnew,8.0.5-8.0.5-0~ubuntu22.04.1*%
%TF.CreationDate,2024-10-07T14:19:06+02:00*%
%TF.ProjectId,KeyboardV0,4b657962-6f61-4726-9456-302e6b696361,v1.0.0*%
%TF.SameCoordinates,Original*%
%TF.FileFunction,Legend,Bot*%
%TF.FilePolarity,Positive*%
%FSLAX46Y46*%
G04 Gerber Fmt 4.6, Leading zero omitted, Abs format (unit mm)*
G04 Created by KiCad (PCBNEW 8.0.5-8.0.5-0~ubuntu22.04.1) date 2024-10-07 14:19:06*
%MOMM*%
%LPD*%
G01*
G04 APERTURE LIST*
%ADD10C,0.150000*%
%ADD11C,0.100000*%
G04 APERTURE END LIST*
D10*
X257086116Y-161653679D02*
X257843123Y-161739929D01*
X257421494Y-162075308D02*
X257507744Y-161318301D01*
X259073260Y-161880085D02*
X259830267Y-161966335D01*
X255098972Y-161427272D02*
X255855979Y-161513522D01*
D11*
%TO.C,D1*%
X149595381Y-142506751D02*
X150093478Y-142463173D01*
X149630243Y-142905229D02*
X148997664Y-142559045D01*
X149560518Y-142108273D02*
X149630243Y-142905229D01*
X148997664Y-142559045D02*
X149560518Y-142108273D01*
X148997664Y-142559045D02*
X149045600Y-143106952D01*
X148997664Y-142559045D02*
X148949728Y-142011137D01*
X148599186Y-142593907D02*
X148997664Y-142559045D01*
%TO.C,D2*%
X148113733Y-125571441D02*
X148611830Y-125527863D01*
X148148595Y-125969919D02*
X147516016Y-125623735D01*
X148078870Y-125172963D02*
X148148595Y-125969919D01*
X147516016Y-125623735D02*
X148078870Y-125172963D01*
X147516016Y-125623735D02*
X147563952Y-126171642D01*
X147516016Y-125623735D02*
X147468080Y-125075827D01*
X147117538Y-125658597D02*
X147516016Y-125623735D01*
%TO.C,D3*%
X146632086Y-108636131D02*
X147130183Y-108592553D01*
X146666948Y-109034609D02*
X146034369Y-108688425D01*
X146597223Y-108237653D02*
X146666948Y-109034609D01*
X146034369Y-108688425D02*
X146597223Y-108237653D01*
X146034369Y-108688425D02*
X146082305Y-109236332D01*
X146034369Y-108688425D02*
X145986433Y-108140517D01*
X145635891Y-108723287D02*
X146034369Y-108688425D01*
%TO.C,D4*%
X145150438Y-91700821D02*
X145648535Y-91657243D01*
X145185300Y-92099299D02*
X144552721Y-91753115D01*
X145115575Y-91302343D02*
X145185300Y-92099299D01*
X144552721Y-91753115D02*
X145115575Y-91302343D01*
X144552721Y-91753115D02*
X144600657Y-92301022D01*
X144552721Y-91753115D02*
X144504785Y-91205207D01*
X144154243Y-91787977D02*
X144552721Y-91753115D01*
%TO.C,D5*%
X167526886Y-140937947D02*
X168024983Y-140894369D01*
X167561748Y-141336425D02*
X166929169Y-140990241D01*
X167492023Y-140539469D02*
X167561748Y-141336425D01*
X166929169Y-140990241D02*
X167492023Y-140539469D01*
X166929169Y-140990241D02*
X166977105Y-141538148D01*
X166929169Y-140990241D02*
X166881233Y-140442333D01*
X166530691Y-141025103D02*
X166929169Y-140990241D01*
%TO.C,D6*%
X166045238Y-124002638D02*
X166543335Y-123959060D01*
X166080100Y-124401116D02*
X165447521Y-124054932D01*
X166010375Y-123604160D02*
X166080100Y-124401116D01*
X165447521Y-124054932D02*
X166010375Y-123604160D01*
X165447521Y-124054932D02*
X165495457Y-124602839D01*
X165447521Y-124054932D02*
X165399585Y-123507024D01*
X165049043Y-124089794D02*
X165447521Y-124054932D01*
%TO.C,D7*%
X164563590Y-107067328D02*
X165061687Y-107023750D01*
X164598452Y-107465806D02*
X163965873Y-107119622D01*
X164528727Y-106668850D02*
X164598452Y-107465806D01*
X163965873Y-107119622D02*
X164528727Y-106668850D01*
X163965873Y-107119622D02*
X164013809Y-107667529D01*
X163965873Y-107119622D02*
X163917937Y-106571714D01*
X163567395Y-107154484D02*
X163965873Y-107119622D01*
%TO.C,D8*%
X163081943Y-90132018D02*
X163580040Y-90088440D01*
X163116805Y-90530496D02*
X162484226Y-90184312D01*
X163047080Y-89733540D02*
X163116805Y-90530496D01*
X162484226Y-90184312D02*
X163047080Y-89733540D01*
X162484226Y-90184312D02*
X162532162Y-90732219D01*
X162484226Y-90184312D02*
X162436290Y-89636404D01*
X162085748Y-90219174D02*
X162484226Y-90184312D01*
%TO.C,D9*%
X186025853Y-128366199D02*
X186525853Y-128366199D01*
X186025853Y-128766199D02*
X185425853Y-128366199D01*
X186025853Y-127966199D02*
X186025853Y-128766199D01*
X185425853Y-128366199D02*
X186025853Y-127966199D01*
X185425853Y-128366199D02*
X185425853Y-128916199D01*
X185425853Y-128366199D02*
X185425853Y-127816199D01*
X185025853Y-128366199D02*
X185425853Y-128366199D01*
%TO.C,D10*%
X186025853Y-111366199D02*
X186525853Y-111366199D01*
X186025853Y-111766199D02*
X185425853Y-111366199D01*
X186025853Y-110966199D02*
X186025853Y-111766199D01*
X185425853Y-111366199D02*
X186025853Y-110966199D01*
X185425853Y-111366199D02*
X185425853Y-111916199D01*
X185425853Y-111366199D02*
X185425853Y-110816199D01*
X185025853Y-111366199D02*
X185425853Y-111366199D01*
%TO.C,D11*%
X186025853Y-94366199D02*
X186525853Y-94366199D01*
X186025853Y-94766199D02*
X185425853Y-94366199D01*
X186025853Y-93966199D02*
X186025853Y-94766199D01*
X185425853Y-94366199D02*
X186025853Y-93966199D01*
X185425853Y-94366199D02*
X185425853Y-94916199D01*
X185425853Y-94366199D02*
X185425853Y-93816199D01*
X185025853Y-94366199D02*
X185425853Y-94366199D01*
%TO.C,D12*%
X186025853Y-77366199D02*
X186525853Y-77366199D01*
X186025853Y-77766199D02*
X185425853Y-77366199D01*
X186025853Y-76966199D02*
X186025853Y-77766199D01*
X185425853Y-77366199D02*
X186025853Y-76966199D01*
X185425853Y-77366199D02*
X185425853Y-77916199D01*
X185425853Y-77366199D02*
X185425853Y-76816199D01*
X185025853Y-77366199D02*
X185425853Y-77366199D01*
%TO.C,D13*%
X205154785Y-124415967D02*
X205653852Y-124446491D01*
X205130365Y-124815221D02*
X204555904Y-124379338D01*
X205179204Y-124016713D02*
X205130365Y-124815221D01*
X204555904Y-124379338D02*
X205179204Y-124016713D01*
X204555904Y-124379338D02*
X204522327Y-124928312D01*
X204555904Y-124379338D02*
X204589481Y-123830364D01*
X204156650Y-124354919D02*
X204555904Y-124379338D01*
%TO.C,D14*%
X206192611Y-107447675D02*
X206691678Y-107478199D01*
X206168191Y-107846929D02*
X205593730Y-107411046D01*
X206217030Y-107048421D02*
X206168191Y-107846929D01*
X205593730Y-107411046D02*
X206217030Y-107048421D01*
X205593730Y-107411046D02*
X205560153Y-107960020D01*
X205593730Y-107411046D02*
X205627307Y-106862072D01*
X205194476Y-107386627D02*
X205593730Y-107411046D01*
%TO.C,D15*%
X207230436Y-90479383D02*
X207729503Y-90509907D01*
X207206016Y-90878637D02*
X206631555Y-90442754D01*
X207254855Y-90080129D02*
X207206016Y-90878637D01*
X206631555Y-90442754D02*
X207254855Y-90080129D01*
X206631555Y-90442754D02*
X206597978Y-90991728D01*
X206631555Y-90442754D02*
X206665132Y-89893780D01*
X206232301Y-90418335D02*
X206631555Y-90442754D01*
%TO.C,D16*%
X208268261Y-73511092D02*
X208767328Y-73541616D01*
X208243841Y-73910346D02*
X207669380Y-73474463D01*
X208292680Y-73111838D02*
X208243841Y-73910346D01*
X207669380Y-73474463D02*
X208292680Y-73111838D01*
X207669380Y-73474463D02*
X207635803Y-74023437D01*
X207669380Y-73474463D02*
X207702957Y-72925489D01*
X207270126Y-73450044D02*
X207669380Y-73474463D01*
%TO.C,D17*%
X222386884Y-140515872D02*
X222883670Y-140572473D01*
X222341603Y-140913301D02*
X221790741Y-140447950D01*
X222432165Y-140118443D02*
X222341603Y-140913301D01*
X221790741Y-140447950D02*
X222432165Y-140118443D01*
X221790741Y-140447950D02*
X221728479Y-140994414D01*
X221790741Y-140447950D02*
X221853003Y-139901485D01*
X221393312Y-140402669D02*
X221790741Y-140447950D01*
%TO.C,D18*%
X224311339Y-123625150D02*
X224808125Y-123681751D01*
X224266058Y-124022579D02*
X223715196Y-123557228D01*
X224356620Y-123227721D02*
X224266058Y-124022579D01*
X223715196Y-123557228D02*
X224356620Y-123227721D01*
X223715196Y-123557228D02*
X223652934Y-124103692D01*
X223715196Y-123557228D02*
X223777458Y-123010763D01*
X223317767Y-123511947D02*
X223715196Y-123557228D01*
%TO.C,D19*%
X226235793Y-106734429D02*
X226732579Y-106791030D01*
X226190512Y-107131858D02*
X225639650Y-106666507D01*
X226281074Y-106337000D02*
X226190512Y-107131858D01*
X225639650Y-106666507D02*
X226281074Y-106337000D01*
X225639650Y-106666507D02*
X225577388Y-107212971D01*
X225639650Y-106666507D02*
X225701912Y-106120042D01*
X225242221Y-106621226D02*
X225639650Y-106666507D01*
%TO.C,D20*%
X228160248Y-89843707D02*
X228657034Y-89900308D01*
X228114967Y-90241136D02*
X227564105Y-89775785D01*
X228205529Y-89446278D02*
X228114967Y-90241136D01*
X227564105Y-89775785D02*
X228205529Y-89446278D01*
X227564105Y-89775785D02*
X227501843Y-90322249D01*
X227564105Y-89775785D02*
X227626367Y-89229320D01*
X227166676Y-89730504D02*
X227564105Y-89775785D01*
%TO.C,D21*%
X239931568Y-145534245D02*
X240428354Y-145590846D01*
X239886287Y-145931674D02*
X239335425Y-145466323D01*
X239976849Y-145136816D02*
X239886287Y-145931674D01*
X239335425Y-145466323D02*
X239976849Y-145136816D01*
X239335425Y-145466323D02*
X239273163Y-146012787D01*
X239335425Y-145466323D02*
X239397687Y-144919858D01*
X238937996Y-145421042D02*
X239335425Y-145466323D01*
%TO.C,D22*%
X241856022Y-128643524D02*
X242352808Y-128700125D01*
X241810741Y-129040953D02*
X241259879Y-128575602D01*
X241901303Y-128246095D02*
X241810741Y-129040953D01*
X241259879Y-128575602D02*
X241901303Y-128246095D01*
X241259879Y-128575602D02*
X241197617Y-129122066D01*
X241259879Y-128575602D02*
X241322141Y-128029137D01*
X240862450Y-128530321D02*
X241259879Y-128575602D01*
%TO.C,D23*%
X243780477Y-111752802D02*
X244277263Y-111809403D01*
X243735196Y-112150231D02*
X243184334Y-111684880D01*
X243825758Y-111355373D02*
X243735196Y-112150231D01*
X243184334Y-111684880D02*
X243825758Y-111355373D01*
X243184334Y-111684880D02*
X243122072Y-112231344D01*
X243184334Y-111684880D02*
X243246596Y-111138415D01*
X242786905Y-111639599D02*
X243184334Y-111684880D01*
%TO.C,D24*%
X245704932Y-94862081D02*
X246201718Y-94918682D01*
X245659651Y-95259510D02*
X245108789Y-94794159D01*
X245750213Y-94464652D02*
X245659651Y-95259510D01*
X245108789Y-94794159D02*
X245750213Y-94464652D01*
X245108789Y-94794159D02*
X245046527Y-95340623D01*
X245108789Y-94794159D02*
X245171051Y-94247694D01*
X244711360Y-94748878D02*
X245108789Y-94794159D01*
%TO.C,D25*%
X205385222Y-161599389D02*
X205884289Y-161629913D01*
X205360802Y-161998643D02*
X204786341Y-161562760D01*
X205409641Y-161200135D02*
X205360802Y-161998643D01*
X204786341Y-161562760D02*
X205409641Y-161200135D01*
X204786341Y-161562760D02*
X204752764Y-162111734D01*
X204786341Y-161562760D02*
X204819918Y-161013786D01*
X204387087Y-161538341D02*
X204786341Y-161562760D01*
%TO.C,D26*%
X225419151Y-164304507D02*
X225909114Y-164404191D01*
X225339404Y-164696477D02*
X224831196Y-164184886D01*
X225498898Y-163912537D02*
X225339404Y-164696477D01*
X224831196Y-164184886D02*
X225498898Y-163912537D01*
X224831196Y-164184886D02*
X224721544Y-164723845D01*
X224831196Y-164184886D02*
X224940849Y-163645928D01*
X224439226Y-164105139D02*
X224831196Y-164184886D01*
%TO.C,D27*%
X244799482Y-169840629D02*
X245270803Y-170007532D01*
X244665960Y-170217685D02*
X244233897Y-169640345D01*
X244933005Y-169463572D02*
X244665960Y-170217685D01*
X244233897Y-169640345D02*
X244933005Y-169463572D01*
X244233897Y-169640345D02*
X244050304Y-170158797D01*
X244233897Y-169640345D02*
X244417491Y-169121892D01*
X243856841Y-169506822D02*
X244233897Y-169640345D01*
%TO.C,D28*%
X264026733Y-179458944D02*
X264448429Y-179727594D01*
X263811813Y-179796300D02*
X263520698Y-179136564D01*
X264241653Y-179121587D02*
X263811813Y-179796300D01*
X263520698Y-179136564D02*
X264241653Y-179121587D01*
X263520698Y-179136564D02*
X263225183Y-179600429D01*
X263520698Y-179136564D02*
X263816213Y-178672699D01*
X263183341Y-178921644D02*
X263520698Y-179136564D01*
D10*
%TO.C,MCU1*%
X268987070Y-121076201D02*
X268699534Y-123599874D01*
X268987070Y-121076201D02*
X271510743Y-121363737D01*
X268699534Y-123599874D02*
X271223207Y-123887410D01*
X271223207Y-123887410D02*
X271510743Y-121363737D01*
%TD*%
M02*
