%TF.GenerationSoftware,KiCad,Pcbnew,8.0.5-8.0.5-0~ubuntu22.04.1*%
%TF.CreationDate,2024-10-07T14:19:06+02:00*%
%TF.ProjectId,KeyboardV0,4b657962-6f61-4726-9456-302e6b696361,v1.0.0*%
%TF.SameCoordinates,Original*%
%TF.FileFunction,Paste,Top*%
%TF.FilePolarity,Positive*%
%FSLAX46Y46*%
G04 Gerber Fmt 4.6, Leading zero omitted, Abs format (unit mm)*
G04 Created by KiCad (PCBNEW 8.0.5-8.0.5-0~ubuntu22.04.1) date 2024-10-07 14:19:06*
%MOMM*%
%LPD*%
G01*
G04 APERTURE LIST*
G04 Aperture macros list*
%AMRotRect*
0 Rectangle, with rotation*
0 The origin of the aperture is its center*
0 $1 length*
0 $2 width*
0 $3 Rotation angle, in degrees counterclockwise*
0 Add horizontal line*
21,1,$1,$2,0,0,$3*%
G04 Aperture macros list end*
%ADD10RotRect,2.600000X2.600000X185.000000*%
%ADD11R,2.600000X2.600000*%
%ADD12RotRect,2.600000X2.600000X176.500000*%
%ADD13RotRect,2.600000X2.600000X173.500000*%
%ADD14RotRect,2.600000X2.600000X168.500000*%
%ADD15RotRect,2.600000X2.600000X160.500000*%
%ADD16RotRect,2.600000X2.600000X147.500000*%
%ADD17RotRect,0.900000X1.200000X5.000000*%
%ADD18R,0.900000X1.200000*%
%ADD19RotRect,0.900000X1.200000X356.500000*%
%ADD20RotRect,0.900000X1.200000X353.500000*%
%ADD21RotRect,0.900000X1.200000X348.500000*%
%ADD22RotRect,0.900000X1.200000X340.500000*%
%ADD23RotRect,0.900000X1.200000X327.500000*%
%ADD24RotRect,0.700000X1.500000X173.500000*%
%ADD25RotRect,1.000000X0.800000X173.500000*%
%ADD26RotRect,0.900000X1.700000X83.500000*%
G04 APERTURE END LIST*
D10*
%TO.C,S1*%
X147256039Y-156212794D03*
X158570345Y-153014516D03*
%TD*%
%TO.C,S2*%
X145774391Y-139277484D03*
X157088697Y-136079206D03*
%TD*%
%TO.C,S3*%
X144292744Y-122342174D03*
X155607050Y-119143896D03*
%TD*%
%TO.C,S4*%
X142811096Y-105406864D03*
X154125402Y-102208586D03*
%TD*%
%TO.C,S5*%
X165187544Y-154643991D03*
X176501850Y-151445713D03*
%TD*%
%TO.C,S6*%
X163705896Y-137708681D03*
X175020202Y-134510403D03*
%TD*%
%TO.C,S7*%
X162224248Y-120773371D03*
X173538554Y-117575093D03*
%TD*%
%TO.C,S8*%
X160742601Y-103838061D03*
X172056907Y-100639783D03*
%TD*%
D11*
%TO.C,S9*%
X182500853Y-141816199D03*
X194050853Y-139616199D03*
%TD*%
%TO.C,S10*%
X182500853Y-124816199D03*
X194050853Y-122616199D03*
%TD*%
%TO.C,S11*%
X182500853Y-107816199D03*
X194050853Y-105616199D03*
%TD*%
%TO.C,S12*%
X182500853Y-90816199D03*
X194050853Y-88616199D03*
%TD*%
D12*
%TO.C,S13*%
X200815257Y-137625684D03*
X212478020Y-136134898D03*
%TD*%
%TO.C,S14*%
X201853083Y-120657392D03*
X213515846Y-119166606D03*
%TD*%
%TO.C,S15*%
X202890908Y-103689101D03*
X214553671Y-102198315D03*
%TD*%
%TO.C,S16*%
X203928733Y-86720809D03*
X215591496Y-85230023D03*
%TD*%
D13*
%TO.C,S17*%
X217361960Y-153480372D03*
X229086762Y-152602011D03*
%TD*%
%TO.C,S18*%
X219286415Y-136589650D03*
X231011217Y-135711289D03*
%TD*%
%TO.C,S19*%
X221210869Y-119698929D03*
X232935671Y-118820568D03*
%TD*%
%TO.C,S20*%
X223135324Y-102808207D03*
X234860126Y-101929846D03*
%TD*%
%TO.C,S21*%
X234906644Y-158498745D03*
X246631446Y-157620384D03*
%TD*%
%TO.C,S22*%
X236831098Y-141608023D03*
X248555900Y-140729662D03*
%TD*%
%TO.C,S23*%
X238755553Y-124717302D03*
X250480355Y-123838941D03*
%TD*%
%TO.C,S24*%
X240680007Y-107826580D03*
X252404809Y-106948219D03*
%TD*%
D12*
%TO.C,S25*%
X201045694Y-174809106D03*
X212708457Y-173318320D03*
%TD*%
D14*
%TO.C,S26*%
X219283417Y-176781722D03*
X231040157Y-176928587D03*
%TD*%
D15*
%TO.C,S27*%
X236986969Y-181342488D03*
X248608854Y-183124146D03*
%TD*%
D16*
%TO.C,S28*%
X253827098Y-188908578D03*
X264750329Y-193258927D03*
%TD*%
D17*
%TO.C,D1*%
X147702611Y-142672347D03*
X150990053Y-142384733D03*
%TD*%
%TO.C,D2*%
X146220963Y-125737037D03*
X149508405Y-125449423D03*
%TD*%
%TO.C,D3*%
X144739316Y-108801727D03*
X148026758Y-108514113D03*
%TD*%
%TO.C,D4*%
X143257668Y-91866417D03*
X146545110Y-91578803D03*
%TD*%
%TO.C,D5*%
X165634116Y-141103543D03*
X168921558Y-140815929D03*
%TD*%
%TO.C,D6*%
X164152468Y-124168234D03*
X167439910Y-123880620D03*
%TD*%
%TO.C,D7*%
X162670820Y-107232924D03*
X165958262Y-106945310D03*
%TD*%
%TO.C,D8*%
X161189173Y-90297614D03*
X164476615Y-90010000D03*
%TD*%
D18*
%TO.C,D9*%
X184125853Y-128366199D03*
X187425853Y-128366199D03*
%TD*%
%TO.C,D10*%
X184125853Y-111366199D03*
X187425853Y-111366199D03*
%TD*%
%TO.C,D11*%
X184125853Y-94366199D03*
X187425853Y-94366199D03*
%TD*%
%TO.C,D12*%
X184125853Y-77366199D03*
X187425853Y-77366199D03*
%TD*%
D19*
%TO.C,D13*%
X203258329Y-124299975D03*
X206552173Y-124501435D03*
%TD*%
%TO.C,D14*%
X204296155Y-107331683D03*
X207589999Y-107533143D03*
%TD*%
%TO.C,D15*%
X205333980Y-90363391D03*
X208627824Y-90564851D03*
%TD*%
%TO.C,D16*%
X206371805Y-73395100D03*
X209665649Y-73596560D03*
%TD*%
D20*
%TO.C,D17*%
X220499097Y-140300786D03*
X223777885Y-140674356D03*
%TD*%
%TO.C,D18*%
X222423552Y-123410064D03*
X225702340Y-123783634D03*
%TD*%
%TO.C,D19*%
X224348006Y-106519343D03*
X227626794Y-106892913D03*
%TD*%
%TO.C,D20*%
X226272461Y-89628621D03*
X229551249Y-90002191D03*
%TD*%
%TO.C,D21*%
X238043781Y-145319159D03*
X241322569Y-145692729D03*
%TD*%
%TO.C,D22*%
X239968235Y-128428438D03*
X243247023Y-128802008D03*
%TD*%
%TO.C,D23*%
X241892690Y-111537716D03*
X245171478Y-111911286D03*
%TD*%
%TO.C,D24*%
X243817145Y-94646995D03*
X247095933Y-95020565D03*
%TD*%
D19*
%TO.C,D25*%
X203488766Y-161483397D03*
X206782610Y-161684857D03*
%TD*%
D21*
%TO.C,D26*%
X223557294Y-163925708D03*
X226791046Y-164583622D03*
%TD*%
D22*
%TO.C,D27*%
X243008464Y-169206396D03*
X246119180Y-170307958D03*
%TD*%
D23*
%TO.C,D28*%
X262424289Y-178438075D03*
X265207481Y-180211163D03*
%TD*%
D24*
%TO.C,*%
X265263223Y-117541931D03*
X262282508Y-117202321D03*
X260792150Y-117032517D03*
D25*
X266977985Y-114858800D03*
X259724910Y-114032417D03*
X259474731Y-116228210D03*
X266727806Y-117054594D03*
%TD*%
D26*
%TO.C,*%
X271250213Y-115788406D03*
X270865323Y-119166550D03*
%TD*%
M02*
