%TF.GenerationSoftware,KiCad,Pcbnew,8.0.5-8.0.5-0~ubuntu22.04.1*%
%TF.CreationDate,2024-10-07T14:19:06+02:00*%
%TF.ProjectId,KeyboardV0,4b657962-6f61-4726-9456-302e6b696361,v1.0.0*%
%TF.SameCoordinates,Original*%
%TF.FileFunction,Soldermask,Top*%
%TF.FilePolarity,Negative*%
%FSLAX46Y46*%
G04 Gerber Fmt 4.6, Leading zero omitted, Abs format (unit mm)*
G04 Created by KiCad (PCBNEW 8.0.5-8.0.5-0~ubuntu22.04.1) date 2024-10-07 14:19:06*
%MOMM*%
%LPD*%
G01*
G04 APERTURE LIST*
G04 Aperture macros list*
%AMRoundRect*
0 Rectangle with rounded corners*
0 $1 Rounding radius*
0 $2 $3 $4 $5 $6 $7 $8 $9 X,Y pos of 4 corners*
0 Add a 4 corners polygon primitive as box body*
4,1,4,$2,$3,$4,$5,$6,$7,$8,$9,$2,$3,0*
0 Add four circle primitives for the rounded corners*
1,1,$1+$1,$2,$3*
1,1,$1+$1,$4,$5*
1,1,$1+$1,$6,$7*
1,1,$1+$1,$8,$9*
0 Add four rect primitives between the rounded corners*
20,1,$1+$1,$2,$3,$4,$5,0*
20,1,$1+$1,$4,$5,$6,$7,0*
20,1,$1+$1,$6,$7,$8,$9,0*
20,1,$1+$1,$8,$9,$2,$3,0*%
%AMHorizOval*
0 Thick line with rounded ends*
0 $1 width*
0 $2 $3 position (X,Y) of the first rounded end (center of the circle)*
0 $4 $5 position (X,Y) of the second rounded end (center of the circle)*
0 Add line between two ends*
20,1,$1,$2,$3,$4,$5,0*
0 Add two circle primitives to create the rounded ends*
1,1,$1,$2,$3*
1,1,$1,$4,$5*%
%AMFreePoly0*
4,1,14,0.635355,0.435355,0.650000,0.400000,0.650000,0.200000,0.635355,0.164645,0.035355,-0.435355,0.000000,-0.450000,-0.035355,-0.435355,-0.635356,0.164645,-0.650000,0.200000,-0.650000,0.400000,-0.635355,0.435355,-0.600000,0.450000,0.600000,0.450000,0.635355,0.435355,0.635355,0.435355,$1*%
%AMFreePoly1*
4,1,16,0.635355,1.035355,0.650000,1.000000,0.650000,-0.250000,0.635355,-0.285355,0.600000,-0.300000,-0.600000,-0.300000,-0.635355,-0.285355,-0.650000,-0.250000,-0.650000,1.000000,-0.635355,1.035355,-0.600000,1.050000,-0.564645,1.035355,0.000000,0.470710,0.564645,1.035355,0.599999,1.050000,0.635355,1.035355,0.635355,1.035355,$1*%
G04 Aperture macros list end*
%ADD10C,0.250000*%
%ADD11C,0.100000*%
%ADD12C,3.529000*%
%ADD13C,1.801800*%
%ADD14C,3.100000*%
%ADD15RoundRect,0.050000X1.181751X1.408356X-1.408356X1.181751X-1.181751X-1.408356X1.408356X-1.181751X0*%
%ADD16RoundRect,0.050000X1.300000X1.300000X-1.300000X1.300000X-1.300000X-1.300000X1.300000X-1.300000X0*%
%ADD17RoundRect,0.050000X1.376938X1.218212X-1.218212X1.376938X-1.376938X-1.218212X1.218212X-1.376938X0*%
%ADD18RoundRect,0.050000X1.438808X1.144479X-1.144479X1.438808X-1.438808X-1.144479X1.144479X-1.438808X0*%
%ADD19RoundRect,0.050000X1.533080X1.014724X-1.014724X1.533080X-1.533080X-1.014724X1.014724X-1.533080X0*%
%ADD20RoundRect,0.050000X1.659383X0.791485X-0.791485X1.659383X-1.659383X-0.791485X0.791485X-1.659383X0*%
%ADD21RoundRect,0.050000X1.794898X0.397919X-0.397919X1.794898X-1.794898X-0.397919X0.397919X-1.794898X0*%
%ADD22RoundRect,0.050000X-0.395994X-0.636937X0.500581X-0.558497X0.395994X0.636937X-0.500581X0.558497X0*%
%ADD23RoundRect,0.050000X-0.808136X-0.963099X0.963099X-0.808136X0.808136X0.963099X-0.963099X0.808136X0*%
%ADD24C,2.005000*%
%ADD25RoundRect,0.050000X-0.450000X-0.600000X0.450000X-0.600000X0.450000X0.600000X-0.450000X0.600000X0*%
%ADD26RoundRect,0.050000X-0.889000X-0.889000X0.889000X-0.889000X0.889000X0.889000X-0.889000X0.889000X0*%
%ADD27RoundRect,0.050000X-0.485790X-0.571409X0.412532X-0.626353X0.485790X0.571409X-0.412532X0.626353X0*%
%ADD28RoundRect,0.050000X-0.941614X-0.833070X0.833070X-0.941614X0.941614X0.833070X-0.833070X0.941614X0*%
%ADD29RoundRect,0.050000X-0.515029X-0.545202X0.379185X-0.647085X0.515029X0.545202X-0.379185X0.647085X0*%
%ADD30RoundRect,0.050000X-0.983923X-0.782648X0.782648X-0.983923X0.983923X0.782648X-0.782648X0.983923X0*%
%ADD31RoundRect,0.050000X-0.560587X-0.498239X0.321345X-0.677670X0.560587X0.498239X-0.321345X0.677670X0*%
%ADD32RoundRect,0.050000X-1.048391X-0.693915X0.693915X-1.048391X1.048391X0.693915X-0.693915X1.048391X0*%
%ADD33RoundRect,0.050000X-0.624473X-0.415372X0.223905X-0.715798X0.624473X0.415372X-0.223905X0.715798X0*%
%ADD34RoundRect,0.050000X-1.134763X-0.541254X0.541254X-1.134763X1.134763X0.541254X-0.541254X1.134763X0*%
%ADD35RoundRect,0.050000X-0.701906X-0.264250X0.057146X-0.747820X0.701906X0.264250X-0.057146X0.747820X0*%
%ADD36RoundRect,0.050000X-1.227434X-0.272116X0.272116X-1.227434X1.227434X0.272116X-0.272116X1.227434X0*%
%ADD37C,1.700000*%
%ADD38FreePoly0,83.500000*%
%ADD39FreePoly1,83.500000*%
%ADD40RoundRect,0.050000X-0.704295X0.885420X-0.885420X-0.704295X0.704295X-0.885420X0.885420X0.704295X0*%
%ADD41FreePoly1,263.500000*%
%ADD42FreePoly0,263.500000*%
%ADD43C,1.000000*%
%ADD44RoundRect,0.050000X0.432653X0.705558X-0.262848X0.784800X-0.432653X-0.705558X0.262848X-0.784800X0*%
%ADD45RoundRect,0.050000X0.542067X0.340827X-0.451505X0.454030X-0.542067X-0.340827X0.451505X-0.454030X0*%
%ADD46RoundRect,0.050000X0.793595X-0.543330X0.895478X0.350885X-0.793595X0.543330X-0.895478X-0.350885X0*%
%ADD47RoundRect,0.270833X-0.450783X-0.607039X0.302676X-0.692885X0.450783X0.607039X-0.302676X0.692885X0*%
%ADD48HorizOval,1.300000X-0.031131X-0.273232X0.031131X0.273232X0*%
G04 APERTURE END LIST*
D10*
%TO.C,MCU1*%
X258739120Y-149293334D02*
G75*
G02*
X258489122Y-149293334I-124999J0D01*
G01*
X258489122Y-149293334D02*
G75*
G02*
X258739120Y-149293334I124999J0D01*
G01*
X260253325Y-149465856D02*
G75*
G02*
X260003325Y-149465856I-125000J0D01*
G01*
X260003325Y-149465856D02*
G75*
G02*
X260253325Y-149465856I125000J0D01*
G01*
X259026659Y-146769661D02*
G75*
G02*
X258776657Y-146769661I-125001J0D01*
G01*
X258776657Y-146769661D02*
G75*
G02*
X259026659Y-146769661I125001J0D01*
G01*
X260540861Y-146942183D02*
G75*
G02*
X260290861Y-146942183I-125000J0D01*
G01*
X260290861Y-146942183D02*
G75*
G02*
X260540861Y-146942183I125000J0D01*
G01*
X259314194Y-144245989D02*
G75*
G02*
X259064194Y-144245989I-125000J0D01*
G01*
X259064194Y-144245989D02*
G75*
G02*
X259314194Y-144245989I125000J0D01*
G01*
X260828396Y-144418511D02*
G75*
G02*
X260578398Y-144418511I-124999J0D01*
G01*
X260578398Y-144418511D02*
G75*
G02*
X260828396Y-144418511I124999J0D01*
G01*
X259601731Y-141722316D02*
G75*
G02*
X259351729Y-141722316I-125001J0D01*
G01*
X259351729Y-141722316D02*
G75*
G02*
X259601731Y-141722316I125001J0D01*
G01*
X261115933Y-141894838D02*
G75*
G02*
X260865933Y-141894838I-125000J0D01*
G01*
X260865933Y-141894838D02*
G75*
G02*
X261115933Y-141894838I125000J0D01*
G01*
X259889265Y-139198644D02*
G75*
G02*
X259639267Y-139198644I-124999J0D01*
G01*
X259639267Y-139198644D02*
G75*
G02*
X259889265Y-139198644I124999J0D01*
G01*
X261403470Y-139371166D02*
G75*
G02*
X261153470Y-139371166I-125000J0D01*
G01*
X261153470Y-139371166D02*
G75*
G02*
X261403470Y-139371166I125000J0D01*
G01*
X260176802Y-136674971D02*
G75*
G02*
X259926802Y-136674971I-125000J0D01*
G01*
X259926802Y-136674971D02*
G75*
G02*
X260176802Y-136674971I125000J0D01*
G01*
X261691007Y-136847493D02*
G75*
G02*
X261441005Y-136847493I-125001J0D01*
G01*
X261441005Y-136847493D02*
G75*
G02*
X261691007Y-136847493I125001J0D01*
G01*
X260464337Y-134151299D02*
G75*
G02*
X260214339Y-134151299I-124999J0D01*
G01*
X260214339Y-134151299D02*
G75*
G02*
X260464337Y-134151299I124999J0D01*
G01*
X261978542Y-134323821D02*
G75*
G02*
X261728542Y-134323821I-125000J0D01*
G01*
X261728542Y-134323821D02*
G75*
G02*
X261978542Y-134323821I125000J0D01*
G01*
X260751874Y-131627626D02*
G75*
G02*
X260501874Y-131627626I-125000J0D01*
G01*
X260501874Y-131627626D02*
G75*
G02*
X260751874Y-131627626I125000J0D01*
G01*
X262266078Y-131800148D02*
G75*
G02*
X262016078Y-131800148I-125000J0D01*
G01*
X262016078Y-131800148D02*
G75*
G02*
X262266078Y-131800148I125000J0D01*
G01*
X261039411Y-129103954D02*
G75*
G02*
X260789411Y-129103954I-125000J0D01*
G01*
X260789411Y-129103954D02*
G75*
G02*
X261039411Y-129103954I125000J0D01*
G01*
X262553613Y-129276476D02*
G75*
G02*
X262303615Y-129276476I-124999J0D01*
G01*
X262303615Y-129276476D02*
G75*
G02*
X262553613Y-129276476I124999J0D01*
G01*
X261326948Y-126580281D02*
G75*
G02*
X261076946Y-126580281I-125001J0D01*
G01*
X261076946Y-126580281D02*
G75*
G02*
X261326948Y-126580281I125001J0D01*
G01*
X262841150Y-126752803D02*
G75*
G02*
X262591150Y-126752803I-125000J0D01*
G01*
X262591150Y-126752803D02*
G75*
G02*
X262841150Y-126752803I125000J0D01*
G01*
X263128685Y-124229131D02*
G75*
G02*
X262878687Y-124229131I-124999J0D01*
G01*
X262878687Y-124229131D02*
G75*
G02*
X263128685Y-124229131I124999J0D01*
G01*
X261614482Y-124056609D02*
G75*
G02*
X261364484Y-124056609I-124999J0D01*
G01*
X261364484Y-124056609D02*
G75*
G02*
X261614482Y-124056609I124999J0D01*
G01*
X261902019Y-121532936D02*
G75*
G02*
X261652019Y-121532936I-125000J0D01*
G01*
X261652019Y-121532936D02*
G75*
G02*
X261902019Y-121532936I125000J0D01*
G01*
X263416224Y-121705458D02*
G75*
G02*
X263166222Y-121705458I-125001J0D01*
G01*
X263166222Y-121705458D02*
G75*
G02*
X263416224Y-121705458I125001J0D01*
G01*
D11*
X268648442Y-121804549D02*
X268533428Y-122814018D01*
X267523959Y-122699004D01*
X267638973Y-121689535D01*
X268648442Y-121804549D01*
G36*
X268648442Y-121804549D02*
G01*
X268533428Y-122814018D01*
X267523959Y-122699004D01*
X267638973Y-121689535D01*
X268648442Y-121804549D01*
G37*
X266923225Y-136946585D02*
X266808211Y-137956054D01*
X265798742Y-137841039D01*
X265913756Y-136831570D01*
X266923225Y-136946585D01*
G36*
X266923225Y-136946585D02*
G01*
X266808211Y-137956054D01*
X265798742Y-137841039D01*
X265913756Y-136831570D01*
X266923225Y-136946585D01*
G37*
X268360906Y-124328222D02*
X268245892Y-125337691D01*
X267236423Y-125222677D01*
X267351437Y-124213208D01*
X268360906Y-124328222D01*
G36*
X268360906Y-124328222D02*
G01*
X268245892Y-125337691D01*
X267236423Y-125222677D01*
X267351437Y-124213208D01*
X268360906Y-124328222D01*
G37*
X268073370Y-126851894D02*
X267958355Y-127861363D01*
X266948886Y-127746349D01*
X267063901Y-126736880D01*
X268073370Y-126851894D01*
G36*
X268073370Y-126851894D02*
G01*
X267958355Y-127861363D01*
X266948886Y-127746349D01*
X267063901Y-126736880D01*
X268073370Y-126851894D01*
G37*
X267498298Y-131899240D02*
X267383283Y-132908709D01*
X266373814Y-132793694D01*
X266488829Y-131784225D01*
X267498298Y-131899240D01*
G36*
X267498298Y-131899240D02*
G01*
X267383283Y-132908709D01*
X266373814Y-132793694D01*
X266488829Y-131784225D01*
X267498298Y-131899240D01*
G37*
X267210761Y-134422912D02*
X267095747Y-135432381D01*
X266086278Y-135317367D01*
X266201292Y-134307898D01*
X267210761Y-134422912D01*
G36*
X267210761Y-134422912D02*
G01*
X267095747Y-135432381D01*
X266086278Y-135317367D01*
X266201292Y-134307898D01*
X267210761Y-134422912D01*
G37*
X266348153Y-141993930D02*
X266233138Y-143003399D01*
X265223669Y-142888384D01*
X265338684Y-141878915D01*
X266348153Y-141993930D01*
G36*
X266348153Y-141993930D02*
G01*
X266233138Y-143003399D01*
X265223669Y-142888384D01*
X265338684Y-141878915D01*
X266348153Y-141993930D01*
G37*
X265773081Y-147041275D02*
X265658066Y-148050744D01*
X264648597Y-147935729D01*
X264763612Y-146926260D01*
X265773081Y-147041275D01*
G36*
X265773081Y-147041275D02*
G01*
X265658066Y-148050744D01*
X264648597Y-147935729D01*
X264763612Y-146926260D01*
X265773081Y-147041275D01*
G37*
X267785834Y-129375567D02*
X267670819Y-130385036D01*
X266661350Y-130270022D01*
X266776365Y-129260553D01*
X267785834Y-129375567D01*
G36*
X267785834Y-129375567D02*
G01*
X267670819Y-130385036D01*
X266661350Y-130270022D01*
X266776365Y-129260553D01*
X267785834Y-129375567D01*
G37*
X266635689Y-139470257D02*
X266520675Y-140479726D01*
X265511206Y-140364712D01*
X265626220Y-139355243D01*
X266635689Y-139470257D01*
G36*
X266635689Y-139470257D02*
G01*
X266520675Y-140479726D01*
X265511206Y-140364712D01*
X265626220Y-139355243D01*
X266635689Y-139470257D01*
G37*
X266060617Y-144517602D02*
X265945602Y-145527071D01*
X264936133Y-145412057D01*
X265051148Y-144402588D01*
X266060617Y-144517602D01*
G36*
X266060617Y-144517602D02*
G01*
X265945602Y-145527071D01*
X264936133Y-145412057D01*
X265051148Y-144402588D01*
X266060617Y-144517602D01*
G37*
X265485544Y-149564947D02*
X265370530Y-150574416D01*
X264361061Y-150459402D01*
X264476075Y-149449933D01*
X265485544Y-149564947D01*
G36*
X265485544Y-149564947D02*
G01*
X265370530Y-150574416D01*
X264361061Y-150459402D01*
X264476075Y-149449933D01*
X265485544Y-149564947D01*
G37*
X254381385Y-148299788D02*
X254266371Y-149309257D01*
X253256902Y-149194243D01*
X253371916Y-148184774D01*
X254381385Y-148299788D01*
G36*
X254381385Y-148299788D02*
G01*
X254266371Y-149309257D01*
X253256902Y-149194243D01*
X253371916Y-148184774D01*
X254381385Y-148299788D01*
G37*
X254668921Y-145776115D02*
X254553907Y-146785584D01*
X253544438Y-146670570D01*
X253659452Y-145661101D01*
X254668921Y-145776115D01*
G36*
X254668921Y-145776115D02*
G01*
X254553907Y-146785584D01*
X253544438Y-146670570D01*
X253659452Y-145661101D01*
X254668921Y-145776115D01*
G37*
X254956458Y-143252443D02*
X254841443Y-144261912D01*
X253831974Y-144146898D01*
X253946989Y-143137429D01*
X254956458Y-143252443D01*
G36*
X254956458Y-143252443D02*
G01*
X254841443Y-144261912D01*
X253831974Y-144146898D01*
X253946989Y-143137429D01*
X254956458Y-143252443D01*
G37*
X255243994Y-140728770D02*
X255128979Y-141738239D01*
X254119510Y-141623225D01*
X254234525Y-140613756D01*
X255243994Y-140728770D01*
G36*
X255243994Y-140728770D02*
G01*
X255128979Y-141738239D01*
X254119510Y-141623225D01*
X254234525Y-140613756D01*
X255243994Y-140728770D01*
G37*
X255531530Y-138205098D02*
X255416515Y-139214567D01*
X254407046Y-139099552D01*
X254522061Y-138090083D01*
X255531530Y-138205098D01*
G36*
X255531530Y-138205098D02*
G01*
X255416515Y-139214567D01*
X254407046Y-139099552D01*
X254522061Y-138090083D01*
X255531530Y-138205098D01*
G37*
X255819066Y-135681425D02*
X255704052Y-136690894D01*
X254694583Y-136575880D01*
X254809597Y-135566411D01*
X255819066Y-135681425D01*
G36*
X255819066Y-135681425D02*
G01*
X255704052Y-136690894D01*
X254694583Y-136575880D01*
X254809597Y-135566411D01*
X255819066Y-135681425D01*
G37*
X256106602Y-133157753D02*
X255991588Y-134167222D01*
X254982119Y-134052207D01*
X255097133Y-133042738D01*
X256106602Y-133157753D01*
G36*
X256106602Y-133157753D02*
G01*
X255991588Y-134167222D01*
X254982119Y-134052207D01*
X255097133Y-133042738D01*
X256106602Y-133157753D01*
G37*
X256394138Y-130634080D02*
X256279124Y-131643549D01*
X255269655Y-131528535D01*
X255384669Y-130519066D01*
X256394138Y-130634080D01*
G36*
X256394138Y-130634080D02*
G01*
X256279124Y-131643549D01*
X255269655Y-131528535D01*
X255384669Y-130519066D01*
X256394138Y-130634080D01*
G37*
X256681675Y-128110408D02*
X256566660Y-129119877D01*
X255557191Y-129004862D01*
X255672206Y-127995393D01*
X256681675Y-128110408D01*
G36*
X256681675Y-128110408D02*
G01*
X256566660Y-129119877D01*
X255557191Y-129004862D01*
X255672206Y-127995393D01*
X256681675Y-128110408D01*
G37*
X256969211Y-125586735D02*
X256854196Y-126596204D01*
X255844727Y-126481190D01*
X255959742Y-125471721D01*
X256969211Y-125586735D01*
G36*
X256969211Y-125586735D02*
G01*
X256854196Y-126596204D01*
X255844727Y-126481190D01*
X255959742Y-125471721D01*
X256969211Y-125586735D01*
G37*
X257256747Y-123063063D02*
X257141732Y-124072532D01*
X256132263Y-123957517D01*
X256247278Y-122948048D01*
X257256747Y-123063063D01*
G36*
X257256747Y-123063063D02*
G01*
X257141732Y-124072532D01*
X256132263Y-123957517D01*
X256247278Y-122948048D01*
X257256747Y-123063063D01*
G37*
X257544283Y-120539390D02*
X257429269Y-121548859D01*
X256419800Y-121433845D01*
X256534814Y-120424376D01*
X257544283Y-120539390D01*
G36*
X257544283Y-120539390D02*
G01*
X257429269Y-121548859D01*
X256419800Y-121433845D01*
X256534814Y-120424376D01*
X257544283Y-120539390D01*
G37*
%TD*%
D12*
%TO.C,S1*%
X150000000Y-150000000D03*
D13*
X144520929Y-150479357D03*
X155479071Y-149520643D03*
D14*
X145345861Y-154171509D03*
X150518577Y-155927358D03*
X155307808Y-153299951D03*
X150518577Y-155927358D03*
D15*
X147256039Y-156212794D03*
X158570345Y-153014516D03*
%TD*%
D12*
%TO.C,S2*%
X148518352Y-133064690D03*
D13*
X143039281Y-133544047D03*
X153997423Y-132585333D03*
D14*
X143864213Y-137236199D03*
X149036929Y-138992048D03*
X153826160Y-136364641D03*
X149036929Y-138992048D03*
D15*
X145774391Y-139277484D03*
X157088697Y-136079206D03*
%TD*%
D12*
%TO.C,S3*%
X147036705Y-116129380D03*
D13*
X141557634Y-116608737D03*
X152515776Y-115650023D03*
D14*
X142382566Y-120300889D03*
X147555282Y-122056738D03*
X152344513Y-119429331D03*
X147555282Y-122056738D03*
D15*
X144292744Y-122342174D03*
X155607050Y-119143896D03*
%TD*%
D12*
%TO.C,S4*%
X145555057Y-99194070D03*
D13*
X140075986Y-99673427D03*
X151034128Y-98714713D03*
D14*
X140900918Y-103365579D03*
X146073634Y-105121428D03*
X150862865Y-102494021D03*
X146073634Y-105121428D03*
D15*
X142811096Y-105406864D03*
X154125402Y-102208586D03*
%TD*%
D12*
%TO.C,S5*%
X167931505Y-148431197D03*
D13*
X162452434Y-148910554D03*
X173410576Y-147951840D03*
D14*
X163277366Y-152602706D03*
X168450082Y-154358555D03*
X173239313Y-151731148D03*
X168450082Y-154358555D03*
D15*
X165187544Y-154643991D03*
X176501850Y-151445713D03*
%TD*%
D12*
%TO.C,S6*%
X166449857Y-131495887D03*
D13*
X160970786Y-131975244D03*
X171928928Y-131016530D03*
D14*
X161795718Y-135667396D03*
X166968434Y-137423245D03*
X171757665Y-134795838D03*
X166968434Y-137423245D03*
D15*
X163705896Y-137708681D03*
X175020202Y-134510403D03*
%TD*%
D12*
%TO.C,S7*%
X164968209Y-114560577D03*
D13*
X159489138Y-115039934D03*
X170447280Y-114081220D03*
D14*
X160314070Y-118732086D03*
X165486786Y-120487935D03*
X170276017Y-117860528D03*
X165486786Y-120487935D03*
D15*
X162224248Y-120773371D03*
X173538554Y-117575093D03*
%TD*%
D12*
%TO.C,S8*%
X163486562Y-97625267D03*
D13*
X158007491Y-98104624D03*
X168965633Y-97145910D03*
D14*
X158832423Y-101796776D03*
X164005139Y-103552625D03*
X168794370Y-100925218D03*
X164005139Y-103552625D03*
D15*
X160742601Y-103838061D03*
X172056907Y-100639783D03*
%TD*%
D12*
%TO.C,S9*%
X185775853Y-135866199D03*
D13*
X180275853Y-135866199D03*
X191275853Y-135866199D03*
D14*
X180775853Y-139616199D03*
X185775853Y-141816199D03*
X190775853Y-139616199D03*
X185775853Y-141816199D03*
D16*
X182500853Y-141816199D03*
X194050853Y-139616199D03*
%TD*%
D12*
%TO.C,S10*%
X185775853Y-118866199D03*
D13*
X180275853Y-118866199D03*
X191275853Y-118866199D03*
D14*
X180775853Y-122616199D03*
X185775853Y-124816199D03*
X190775853Y-122616199D03*
X185775853Y-124816199D03*
D16*
X182500853Y-124816199D03*
X194050853Y-122616199D03*
%TD*%
D12*
%TO.C,S11*%
X185775853Y-101866199D03*
D13*
X180275853Y-101866199D03*
X191275853Y-101866199D03*
D14*
X180775853Y-105616199D03*
X185775853Y-107816199D03*
X190775853Y-105616199D03*
X185775853Y-107816199D03*
D16*
X182500853Y-107816199D03*
X194050853Y-105616199D03*
%TD*%
D12*
%TO.C,S12*%
X185775853Y-84866199D03*
D13*
X180275853Y-84866199D03*
X191275853Y-84866199D03*
D14*
X180775853Y-88616199D03*
X185775853Y-90816199D03*
X190775853Y-88616199D03*
X185775853Y-90816199D03*
D16*
X182500853Y-90816199D03*
X194050853Y-88616199D03*
%TD*%
D12*
%TO.C,S13*%
X204447387Y-131886716D03*
D13*
X198957646Y-131550949D03*
X209937128Y-132222483D03*
D14*
X199227781Y-135324479D03*
X204084148Y-137825618D03*
X209209129Y-135934964D03*
X204084148Y-137825618D03*
D17*
X200815257Y-137625684D03*
X212478020Y-136134898D03*
%TD*%
D12*
%TO.C,S14*%
X205485213Y-114918424D03*
D13*
X199995472Y-114582657D03*
X210974954Y-115254191D03*
D14*
X200265607Y-118356187D03*
X205121974Y-120857326D03*
X210246955Y-118966672D03*
X205121974Y-120857326D03*
D17*
X201853083Y-120657392D03*
X213515846Y-119166606D03*
%TD*%
D12*
%TO.C,S15*%
X206523038Y-97950133D03*
D13*
X201033297Y-97614366D03*
X212012779Y-98285900D03*
D14*
X201303432Y-101387896D03*
X206159799Y-103889035D03*
X211284780Y-101998381D03*
X206159799Y-103889035D03*
D17*
X202890908Y-103689101D03*
X214553671Y-102198315D03*
%TD*%
D12*
%TO.C,S16*%
X207560863Y-80981841D03*
D13*
X202071122Y-80646074D03*
X213050604Y-81317608D03*
D14*
X202341257Y-84419604D03*
X207197624Y-86920743D03*
X212322605Y-85030089D03*
X207197624Y-86920743D03*
D17*
X203928733Y-86720809D03*
X215591496Y-85230023D03*
%TD*%
D12*
%TO.C,S17*%
X221289467Y-147939360D03*
D13*
X215824822Y-147316742D03*
X226754112Y-148561978D03*
D14*
X215897096Y-151099238D03*
X220615908Y-153851113D03*
X225832814Y-152231271D03*
X220615908Y-153851113D03*
D18*
X217361960Y-153480372D03*
X229086762Y-152602011D03*
%TD*%
D12*
%TO.C,S18*%
X223213922Y-131048638D03*
D13*
X217749277Y-130426020D03*
X228678567Y-131671256D03*
D14*
X217821551Y-134208516D03*
X222540363Y-136960391D03*
X227757269Y-135340549D03*
X222540363Y-136960391D03*
D18*
X219286415Y-136589650D03*
X231011217Y-135711289D03*
%TD*%
D12*
%TO.C,S19*%
X225138376Y-114157917D03*
D13*
X219673731Y-113535299D03*
X230603021Y-114780535D03*
D14*
X219746005Y-117317795D03*
X224464817Y-120069670D03*
X229681723Y-118449828D03*
X224464817Y-120069670D03*
D18*
X221210869Y-119698929D03*
X232935671Y-118820568D03*
%TD*%
D12*
%TO.C,S20*%
X227062831Y-97267195D03*
D13*
X221598186Y-96644577D03*
X232527476Y-97889813D03*
D14*
X221670460Y-100427073D03*
X226389272Y-103178948D03*
X231606178Y-101559106D03*
X226389272Y-103178948D03*
D18*
X223135324Y-102808207D03*
X234860126Y-101929846D03*
%TD*%
D12*
%TO.C,S21*%
X238834151Y-152957733D03*
D13*
X233369506Y-152335115D03*
X244298796Y-153580351D03*
D14*
X233441780Y-156117611D03*
X238160592Y-158869486D03*
X243377498Y-157249644D03*
X238160592Y-158869486D03*
D18*
X234906644Y-158498745D03*
X246631446Y-157620384D03*
%TD*%
D12*
%TO.C,S22*%
X240758605Y-136067011D03*
D13*
X235293960Y-135444393D03*
X246223250Y-136689629D03*
D14*
X235366234Y-139226889D03*
X240085046Y-141978764D03*
X245301952Y-140358922D03*
X240085046Y-141978764D03*
D18*
X236831098Y-141608023D03*
X248555900Y-140729662D03*
%TD*%
D12*
%TO.C,S23*%
X242683060Y-119176290D03*
D13*
X237218415Y-118553672D03*
X248147705Y-119798908D03*
D14*
X237290689Y-122336168D03*
X242009501Y-125088043D03*
X247226407Y-123468201D03*
X242009501Y-125088043D03*
D18*
X238755553Y-124717302D03*
X250480355Y-123838941D03*
%TD*%
D12*
%TO.C,S24*%
X244607514Y-102285568D03*
D13*
X239142869Y-101662950D03*
X250072159Y-102908186D03*
D14*
X239215143Y-105445446D03*
X243933955Y-108197321D03*
X249150861Y-106577479D03*
X243933955Y-108197321D03*
D18*
X240680007Y-107826580D03*
X252404809Y-106948219D03*
%TD*%
D12*
%TO.C,S25*%
X204677824Y-169070138D03*
D13*
X199188083Y-168734371D03*
X210167565Y-169405905D03*
D14*
X199458218Y-172507901D03*
X204314585Y-175009040D03*
X209439566Y-173118386D03*
X204314585Y-175009040D03*
D17*
X201045694Y-174809106D03*
X212708457Y-173318320D03*
%TD*%
D12*
%TO.C,S26*%
X223678910Y-171604100D03*
D13*
X218289324Y-170507576D03*
X229068496Y-172700624D03*
D14*
X218031657Y-174281978D03*
X222492671Y-177434652D03*
X227830904Y-176275657D03*
X222492671Y-177434652D03*
D19*
X219283417Y-176781722D03*
X231040157Y-176928587D03*
%TD*%
D12*
%TO.C,S27*%
X242060271Y-176826989D03*
D13*
X236875743Y-174991051D03*
X247244799Y-178662927D03*
D14*
X236095288Y-178692860D03*
X240074120Y-182435706D03*
X245521703Y-182030929D03*
X240074120Y-182435706D03*
D20*
X236986969Y-181342488D03*
X248608854Y-183124146D03*
%TD*%
D12*
%TO.C,S28*%
X259786138Y-185650055D03*
D13*
X255147485Y-182694907D03*
X264424791Y-188605203D03*
D14*
X253554307Y-186126275D03*
X256589205Y-190668234D03*
X261988222Y-191499271D03*
X256589205Y-190668234D03*
D21*
X253827098Y-188908578D03*
X264750329Y-193258927D03*
%TD*%
D22*
%TO.C,D1*%
X147702611Y-142672347D03*
X150990053Y-142384733D03*
D23*
X145550830Y-142860603D03*
D24*
X153141834Y-142196477D03*
%TD*%
D22*
%TO.C,D2*%
X146220963Y-125737037D03*
X149508405Y-125449423D03*
D23*
X144069182Y-125925293D03*
D24*
X151660186Y-125261167D03*
%TD*%
D22*
%TO.C,D3*%
X144739316Y-108801727D03*
X148026758Y-108514113D03*
D23*
X142587535Y-108989983D03*
D24*
X150178539Y-108325857D03*
%TD*%
D22*
%TO.C,D4*%
X143257668Y-91866417D03*
X146545110Y-91578803D03*
D23*
X141105887Y-92054673D03*
D24*
X148696891Y-91390547D03*
%TD*%
D22*
%TO.C,D5*%
X165634116Y-141103543D03*
X168921558Y-140815929D03*
D23*
X163482335Y-141291799D03*
D24*
X171073339Y-140627673D03*
%TD*%
D22*
%TO.C,D6*%
X164152468Y-124168234D03*
X167439910Y-123880620D03*
D23*
X162000687Y-124356490D03*
D24*
X169591691Y-123692364D03*
%TD*%
D22*
%TO.C,D7*%
X162670820Y-107232924D03*
X165958262Y-106945310D03*
D23*
X160519039Y-107421180D03*
D24*
X168110043Y-106757054D03*
%TD*%
D22*
%TO.C,D8*%
X161189173Y-90297614D03*
X164476615Y-90010000D03*
D23*
X159037392Y-90485870D03*
D24*
X166628396Y-89821744D03*
%TD*%
D25*
%TO.C,D9*%
X184125853Y-128366199D03*
X187425853Y-128366199D03*
D26*
X181965853Y-128366199D03*
D24*
X189585853Y-128366199D03*
%TD*%
D25*
%TO.C,D10*%
X184125853Y-111366199D03*
X187425853Y-111366199D03*
D26*
X181965853Y-111366199D03*
D24*
X189585853Y-111366199D03*
%TD*%
D25*
%TO.C,D11*%
X184125853Y-94366199D03*
X187425853Y-94366199D03*
D26*
X181965853Y-94366199D03*
D24*
X189585853Y-94366199D03*
%TD*%
D25*
%TO.C,D12*%
X184125853Y-77366199D03*
X187425853Y-77366199D03*
D26*
X181965853Y-77366199D03*
D24*
X189585853Y-77366199D03*
%TD*%
D27*
%TO.C,D13*%
X203258329Y-124299975D03*
X206552173Y-124501435D03*
D28*
X201102357Y-124168110D03*
D24*
X208708145Y-124633300D03*
%TD*%
D27*
%TO.C,D14*%
X204296155Y-107331683D03*
X207589999Y-107533143D03*
D28*
X202140183Y-107199818D03*
D24*
X209745971Y-107665008D03*
%TD*%
D27*
%TO.C,D15*%
X205333980Y-90363391D03*
X208627824Y-90564851D03*
D28*
X203178008Y-90231526D03*
D24*
X210783796Y-90696716D03*
%TD*%
D27*
%TO.C,D16*%
X206371805Y-73395100D03*
X209665649Y-73596560D03*
D28*
X204215833Y-73263235D03*
D24*
X211821621Y-73728425D03*
%TD*%
D29*
%TO.C,D17*%
X220499097Y-140300786D03*
X223777885Y-140674356D03*
D30*
X218352982Y-140056267D03*
D24*
X225924000Y-140918875D03*
%TD*%
D29*
%TO.C,D18*%
X222423552Y-123410064D03*
X225702340Y-123783634D03*
D30*
X220277437Y-123165545D03*
D24*
X227848455Y-124028153D03*
%TD*%
D29*
%TO.C,D19*%
X224348006Y-106519343D03*
X227626794Y-106892913D03*
D30*
X222201891Y-106274824D03*
D24*
X229772909Y-107137432D03*
%TD*%
D29*
%TO.C,D20*%
X226272461Y-89628621D03*
X229551249Y-90002191D03*
D30*
X224126346Y-89384102D03*
D24*
X231697364Y-90246710D03*
%TD*%
D29*
%TO.C,D21*%
X238043781Y-145319159D03*
X241322569Y-145692729D03*
D30*
X235897666Y-145074640D03*
D24*
X243468684Y-145937248D03*
%TD*%
D29*
%TO.C,D22*%
X239968235Y-128428438D03*
X243247023Y-128802008D03*
D30*
X237822120Y-128183919D03*
D24*
X245393138Y-129046527D03*
%TD*%
D29*
%TO.C,D23*%
X241892690Y-111537716D03*
X245171478Y-111911286D03*
D30*
X239746575Y-111293197D03*
D24*
X247317593Y-112155805D03*
%TD*%
D29*
%TO.C,D24*%
X243817145Y-94646995D03*
X247095933Y-95020565D03*
D30*
X241671030Y-94402476D03*
D24*
X249242048Y-95265084D03*
%TD*%
D27*
%TO.C,D25*%
X203488766Y-161483397D03*
X206782610Y-161684857D03*
D28*
X201332794Y-161351532D03*
D24*
X208938582Y-161816722D03*
%TD*%
D31*
%TO.C,D26*%
X223557294Y-163925708D03*
X226791046Y-164583622D03*
D32*
X221440657Y-163495073D03*
D24*
X228907683Y-165014257D03*
%TD*%
D33*
%TO.C,D27*%
X243008464Y-169206396D03*
X246119180Y-170307958D03*
D34*
X240972358Y-168485373D03*
D24*
X248155286Y-171028981D03*
%TD*%
D35*
%TO.C,D28*%
X262424289Y-178438075D03*
X265207481Y-180211163D03*
D36*
X260602564Y-177277507D03*
D24*
X267029206Y-181371731D03*
%TD*%
D37*
%TO.C,MCU1*%
X254963103Y-120756589D03*
X254675567Y-123280261D03*
X254388031Y-125803934D03*
X254100495Y-128327606D03*
X253812959Y-130851279D03*
X253525423Y-133374951D03*
X253237886Y-135898624D03*
X252950350Y-138422296D03*
X252662814Y-140945969D03*
X252375278Y-143469641D03*
X252087742Y-145993314D03*
X251800206Y-148516986D03*
X266942241Y-150242203D03*
X267229777Y-147718531D03*
X267517313Y-145194858D03*
X267804849Y-142671186D03*
X268092385Y-140147513D03*
X268379921Y-137623841D03*
X268667458Y-135100168D03*
X268954994Y-132576496D03*
X269242530Y-130052823D03*
X269530066Y-127529151D03*
X269817602Y-125005478D03*
X270105138Y-122481806D03*
D38*
X256729674Y-120957864D03*
D39*
X257739143Y-121072878D03*
D40*
X254963103Y-120756589D03*
D38*
X256442138Y-123481537D03*
D39*
X257451607Y-123596551D03*
D38*
X256154602Y-126005209D03*
D39*
X257164071Y-126120223D03*
D38*
X255867066Y-128528882D03*
D39*
X256876535Y-128643896D03*
D38*
X255579529Y-131052554D03*
D39*
X256588998Y-131167569D03*
D38*
X255291993Y-133576227D03*
D39*
X256301462Y-133691241D03*
D38*
X255004457Y-136099899D03*
D39*
X256013926Y-136214914D03*
D38*
X254716921Y-138623572D03*
D39*
X255726390Y-138738586D03*
D38*
X254429385Y-141147244D03*
D39*
X255438854Y-141262259D03*
D38*
X254141849Y-143670917D03*
D39*
X255151318Y-143785931D03*
D38*
X253854312Y-146194589D03*
D39*
X254863781Y-146309604D03*
D38*
X253566776Y-148718262D03*
D39*
X254576245Y-148833276D03*
D41*
X267329099Y-122165516D03*
X266754026Y-127212861D03*
D42*
X267763495Y-127327875D03*
X268338568Y-122280530D03*
D41*
X267041563Y-124689188D03*
X266466490Y-129736533D03*
D42*
X268051032Y-124804203D03*
X267475959Y-129851548D03*
D41*
X265891418Y-134783878D03*
X265603882Y-137307551D03*
D42*
X266613351Y-137422565D03*
D41*
X265316346Y-139831223D03*
X264166201Y-149925914D03*
D42*
X266325815Y-139946238D03*
X265175670Y-150040928D03*
D41*
X265028809Y-142354896D03*
D42*
X267188423Y-132375220D03*
X266900887Y-134898893D03*
X266038278Y-142469910D03*
D41*
X264741273Y-144878569D03*
D42*
X265750742Y-144993583D03*
X265463206Y-147517255D03*
D41*
X264453737Y-147402241D03*
X266178954Y-132260206D03*
%TD*%
D43*
%TO.C,*%
X264717282Y-115708342D03*
X261736566Y-115368732D03*
D44*
X265263223Y-117541931D03*
X262282508Y-117202321D03*
X260792150Y-117032517D03*
D45*
X266977985Y-114858800D03*
X259724910Y-114032417D03*
X259474731Y-116228210D03*
X266727806Y-117054594D03*
D43*
X264717282Y-115708342D03*
X261736566Y-115368732D03*
%TD*%
D46*
%TO.C,*%
X271250213Y-115788406D03*
X270865323Y-119166550D03*
%TD*%
D47*
%TO.C,_3*%
X257642786Y-160133055D03*
D48*
X259629930Y-160359461D03*
X255655642Y-159906649D03*
%TD*%
M02*
