M48
; DRILL file {KiCad 8.0.5-8.0.5-0~ubuntu22.04.1} date 2024-10-08T22:05:46+0200
; FORMAT={-:-/ absolute / inch / decimal}
; #@! TF.CreationDate,2024-10-08T22:05:46+02:00
; #@! TF.GenerationSoftware,Kicad,Pcbnew,8.0.5-8.0.5-0~ubuntu22.04.1
; #@! TF.FileFunction,Plated,1,2,PTH
FMAT,2
INCH
; #@! TA.AperFunction,Plated,PTH,ViaDrill
T1C0.0157
; #@! TA.AperFunction,Plated,PTH,ComponentDrill
T2C0.0295
; #@! TA.AperFunction,Plated,PTH,ComponentDrill
T3C0.0390
; #@! TA.AperFunction,Plated,PTH,ComponentDrill
T4C0.0433
%
G90
G05
T1
X5.3673Y-3.9417
X5.446Y-4.5913
X5.5051Y-5.2606
X5.5445Y-5.9102
X6.0759Y-3.863
X6.1153Y-4.5323
X6.1941Y-5.2016
X6.2728Y-5.8709
X6.9421Y-5.3787
X6.9421Y-3.3512
X6.9618Y-4.6898
X6.9618Y-4.0205
X7.6901Y-5.2016
X7.6901Y-6.678
X7.7098Y-4.552
X7.7689Y-3.863
X7.8082Y-3.1937
X8.3397Y-5.8512
X8.4185Y-5.1819
X8.4382Y-6.7567
X8.4972Y-4.5126
X8.5563Y-3.8433
X9.0287Y-6.0283
X9.0878Y-5.3787
X9.1272Y-6.9928
X9.1862Y-4.7094
X9.2452Y-4.0402
X9.7964Y-7.3276
X9.8206Y-5.7643
X9.8319Y-5.6649
X9.8432Y-5.5656
X9.8546Y-5.4662
X9.8659Y-5.3669
X9.8772Y-5.2675
X9.8802Y-5.7711
X9.8885Y-5.1682
X9.8915Y-5.6717
X9.8998Y-5.0688
X9.9029Y-5.5724
X9.9112Y-4.9694
X9.9142Y-5.473
X9.9225Y-4.8701
X9.9255Y-5.3737
X9.9338Y-4.7707
X9.9368Y-5.2743
X9.9451Y-4.6714
X9.9481Y-5.175
X9.9595Y-5.0756
X9.9708Y-4.9762
X9.9821Y-4.8769
X9.9933Y-4.5717
X9.9933Y-4.611
X9.9934Y-4.7775
X10.0047Y-4.6782
X10.2098Y-4.9457
X10.2295Y-4.5126
X10.3087Y-4.6302
X10.3279Y-4.9457
T2
X9.7041Y-6.1821
X9.7824Y-6.1911
X9.8606Y-6.2
T3
X5.1943Y-3.5108
X5.2526Y-4.1776
X5.311Y-4.8443
X5.3693Y-5.511
X5.4931Y-3.4847
X5.5515Y-4.1514
X5.6098Y-4.8182
X5.6681Y-5.4849
X5.9003Y-3.449
X5.9586Y-4.1158
X6.0169Y-4.7825
X6.0753Y-5.4493
X6.1991Y-3.4229
X6.2574Y-4.0896
X6.3158Y-4.7564
X6.3741Y-5.4231
X6.803Y-2.9325
X6.803Y-4.2711
X6.803Y-4.9404
X6.803Y-3.6018
X7.103Y-2.9325
X7.103Y-4.2711
X7.103Y-4.9404
X7.103Y-3.6018
X7.5564Y-4.7751
X7.5654Y-6.239
X7.5972Y-4.1071
X7.6381Y-3.439
X7.6789Y-2.771
X7.8558Y-4.7934
X7.8649Y-6.2573
X7.8967Y-4.1254
X7.9375Y-3.4573
X7.9784Y-2.7893
X8.2355Y-5.4006
X8.3113Y-4.7356
X8.3571Y-6.3234
X8.387Y-4.0707
X8.4628Y-3.4057
X8.5336Y-5.4346
X8.6094Y-4.7696
X8.6511Y-6.3832
X8.6851Y-4.1046
X8.7609Y-3.4396
X8.9263Y-5.5982
X9.002Y-4.9332
X9.0778Y-4.2682
X9.126Y-6.5199
X9.1535Y-3.6032
X9.2243Y-5.6322
X9.3001Y-4.9672
X9.3759Y-4.3022
X9.4088Y-6.62
X9.4516Y-3.6372
X9.8989Y-6.866
X10.1519Y-7.0272
T4
X9.5523Y-5.7337
X9.5637Y-5.6344
X9.575Y-5.535
X9.5863Y-5.4357
X9.5976Y-5.3363
X9.6089Y-5.237
X9.6203Y-5.1376
X9.6316Y-5.0382
X9.6429Y-4.9389
X9.6542Y-4.8395
X9.6655Y-4.7402
X9.6769Y-4.6408
X9.6769Y-4.6408
X10.1485Y-5.8017
X10.1598Y-5.7023
X10.1711Y-5.6029
X10.1824Y-5.5036
X10.1938Y-5.4042
X10.2051Y-5.3049
X10.2164Y-5.2055
X10.2277Y-5.1062
X10.239Y-5.0068
X10.2504Y-4.9074
X10.2617Y-4.8081
X10.273Y-4.7087
X10.273Y-4.7087
M30
