%TF.GenerationSoftware,KiCad,Pcbnew,8.0.5-8.0.5-0~ubuntu22.04.1*%
%TF.CreationDate,2024-10-08T22:05:51+02:00*%
%TF.ProjectId,KeyboardV0,4b657962-6f61-4726-9456-302e6b696361,v1.0.0*%
%TF.SameCoordinates,Original*%
%TF.FileFunction,Profile,NP*%
%FSLAX46Y46*%
G04 Gerber Fmt 4.6, Leading zero omitted, Abs format (unit mm)*
G04 Created by KiCad (PCBNEW 8.0.5-8.0.5-0~ubuntu22.04.1) date 2024-10-08 22:05:51*
%MOMM*%
%LPD*%
G01*
G04 APERTURE LIST*
%TA.AperFunction,Profile*%
%ADD10C,0.150000*%
%TD*%
G04 APERTURE END LIST*
D10*
X203765158Y-177253578D02*
X220881190Y-180745216D01*
X187459631Y-70308004D02*
G75*
G02*
X185994573Y-71486110I-1465037J321872D01*
G01*
X165609811Y-72387636D02*
G75*
G02*
X166604950Y-71486090I995183J-98500D01*
G01*
X165609811Y-72387634D02*
X164651120Y-82073468D01*
X221100514Y-180807649D02*
X237322544Y-186791849D01*
X124598028Y-87808868D02*
X130698931Y-157542498D01*
X188011863Y-67794426D02*
X187459631Y-70308004D01*
X184883276Y-176059925D02*
X203558832Y-177226226D01*
X248469722Y-108686745D02*
X250529586Y-90607521D01*
X249649218Y-89500746D02*
G75*
G02*
X250529587Y-90607521I-113224J-993589D01*
G01*
X211438830Y-82127813D02*
G75*
G02*
X210108718Y-80658116I169765J1490382D01*
G01*
X237322544Y-186791849D02*
G75*
G02*
X237609350Y-186934063I-519148J-1407283D01*
G01*
X237609349Y-186934064D02*
X253407499Y-196998595D01*
X124598028Y-87808868D02*
G75*
G02*
X125507073Y-86725568I996165J87134D01*
G01*
X168238699Y-155262012D02*
G75*
G02*
X169577507Y-155867214I130692J-1494323D01*
G01*
X264187836Y-112260142D02*
G75*
G02*
X265050110Y-113360769I-131742J-991295D01*
G01*
X169577526Y-155867200D02*
X184140212Y-175654604D01*
X220881190Y-180745216D02*
G75*
G02*
X221100517Y-180807641I-299796J-1469818D01*
G01*
X164651120Y-82073468D02*
G75*
G02*
X163289150Y-83420045I-1492728J147734D01*
G01*
X188011864Y-67794426D02*
G75*
G02*
X189049618Y-67010869I976730J-214608D01*
G01*
X125507069Y-86725517D02*
X163289147Y-83420014D01*
X263625986Y-182456521D02*
G75*
G02*
X263471728Y-183062116I-997693J-68311D01*
G01*
X131782285Y-158451536D02*
G75*
G02*
X130698891Y-157542501I-87190J996202D01*
G01*
X203558832Y-177226226D02*
G75*
G02*
X203765157Y-177253581I-93537J-1497309D01*
G01*
X264187837Y-112260146D02*
X249762513Y-110343482D01*
X184883276Y-176059925D02*
G75*
G02*
X184140191Y-175654619I62317J998088D01*
G01*
X210108775Y-80658115D02*
X209951172Y-69216209D01*
X254788193Y-196692504D02*
X263471714Y-183062107D01*
X249649218Y-89500746D02*
X232101627Y-87501451D01*
X185994573Y-71486132D02*
X166604950Y-71486133D01*
X263625984Y-182456518D02*
G75*
G02*
X265050129Y-113360771I388091900J26563517D01*
G01*
X209012311Y-68231843D02*
X189049618Y-67010872D01*
X230773082Y-85940803D02*
X230804377Y-85273760D01*
X229918675Y-84233326D02*
G75*
G02*
X230804431Y-85273763I-113182J-993609D01*
G01*
X229918675Y-84233326D02*
X211438828Y-82127810D01*
X232101629Y-87501451D02*
G75*
G02*
X230773087Y-85940803I169765J1490319D01*
G01*
X209012313Y-68231846D02*
G75*
G02*
X209951146Y-69216209I-61021J-998085D01*
G01*
X131782281Y-158451539D02*
X168238699Y-155262012D01*
X254788193Y-196692504D02*
G75*
G02*
X253407489Y-196998611I-843399J537269D01*
G01*
X249762511Y-110343482D02*
G75*
G02*
X248469717Y-108686744I197582J1486947D01*
G01*
M02*
