%TF.GenerationSoftware,KiCad,Pcbnew,8.0.5-8.0.5-0~ubuntu22.04.1*%
%TF.CreationDate,2024-10-08T22:05:51+02:00*%
%TF.ProjectId,KeyboardV0,4b657962-6f61-4726-9456-302e6b696361,v1.0.0*%
%TF.SameCoordinates,Original*%
%TF.FileFunction,Legend,Top*%
%TF.FilePolarity,Positive*%
%FSLAX46Y46*%
G04 Gerber Fmt 4.6, Leading zero omitted, Abs format (unit mm)*
G04 Created by KiCad (PCBNEW 8.0.5-8.0.5-0~ubuntu22.04.1) date 2024-10-08 22:05:51*
%MOMM*%
%LPD*%
G01*
G04 APERTURE LIST*
%ADD10C,0.000000*%
%ADD11C,0.150000*%
%ADD12C,0.100000*%
G04 APERTURE END LIST*
D10*
G36*
X228209453Y-107446077D02*
G01*
X227643437Y-112413936D01*
X222675578Y-111847920D01*
X223241594Y-106880061D01*
X228209453Y-107446077D01*
G37*
D11*
X245928066Y-158547207D02*
X246685073Y-158633457D01*
X249902355Y-159000020D02*
X250659362Y-159086270D01*
X247915212Y-158773614D02*
X248672219Y-158859864D01*
X248250590Y-159195243D02*
X248336840Y-158438236D01*
D12*
%TO.C,D9*%
X176854947Y-125886130D02*
X176254947Y-125486130D01*
X176854947Y-125486130D02*
X177354947Y-125486131D01*
X176854946Y-125086130D02*
X176854947Y-125886130D01*
X176254947Y-125486130D02*
X176854946Y-125086130D01*
X176254947Y-125486130D02*
X176254949Y-126036128D01*
X176254947Y-125486130D02*
X176254947Y-124936128D01*
X175854947Y-125486129D02*
X176254947Y-125486130D01*
%TO.C,D21*%
X230805944Y-142256752D02*
X230715382Y-143051610D01*
X230760663Y-142654181D02*
X231257449Y-142710782D01*
X230715382Y-143051610D02*
X230164519Y-142586260D01*
X230164519Y-142586260D02*
X230805944Y-142256752D01*
X230164519Y-142586260D02*
X230226784Y-142039795D01*
X230164519Y-142586260D02*
X230102258Y-143132722D01*
X229767091Y-142540978D02*
X230164519Y-142586260D01*
%TO.C,D4*%
X136014395Y-89219233D02*
X135381814Y-88873050D01*
X135979532Y-88820755D02*
X136477629Y-88777177D01*
X135944669Y-88422277D02*
X136014395Y-89219233D01*
X135381814Y-88873050D02*
X135944669Y-88422277D01*
X135381814Y-88873050D02*
X135429751Y-89420953D01*
X135381814Y-88873050D02*
X135333879Y-88325141D01*
X134983337Y-88907911D02*
X135381814Y-88873050D01*
%TO.C,D3*%
X137496042Y-106154544D02*
X136863461Y-105808361D01*
X137461179Y-105756066D02*
X137959276Y-105712488D01*
X137426316Y-105357588D02*
X137496042Y-106154544D01*
X136863461Y-105808361D02*
X137426316Y-105357588D01*
X136863461Y-105808361D02*
X136911398Y-106356264D01*
X136863461Y-105808361D02*
X136815526Y-105260452D01*
X136464984Y-105843222D02*
X136863461Y-105808361D01*
%TO.C,D18*%
X215185714Y-120347657D02*
X215095152Y-121142515D01*
X215140433Y-120745086D02*
X215637219Y-120801687D01*
X215095152Y-121142515D02*
X214544289Y-120677165D01*
X214544289Y-120677165D02*
X215185714Y-120347657D01*
X214544289Y-120677165D02*
X214606554Y-120130700D01*
X214544289Y-120677165D02*
X214482028Y-121223627D01*
X214146861Y-120631883D02*
X214544289Y-120677165D01*
D11*
%TO.C,MCU1*%
X247197803Y-116758453D02*
X246910268Y-119282124D01*
X247197803Y-116758453D02*
X244674129Y-116470916D01*
X246910268Y-119282124D02*
X244386592Y-118994589D01*
X244386592Y-118994589D02*
X244674129Y-116470916D01*
D12*
%TO.C,D8*%
X153945899Y-87650431D02*
X153313318Y-87304248D01*
X153911036Y-87251953D02*
X154409133Y-87208375D01*
X153876173Y-86853475D02*
X153945899Y-87650431D01*
X153313318Y-87304248D02*
X153876173Y-86853475D01*
X153313318Y-87304248D02*
X153361255Y-87852151D01*
X153313318Y-87304248D02*
X153265383Y-86756339D01*
X152914841Y-87339109D02*
X153313318Y-87304248D01*
%TO.C,D23*%
X234654854Y-108475307D02*
X234564292Y-109270165D01*
X234609573Y-108872736D02*
X235106359Y-108929337D01*
X234564292Y-109270165D02*
X234013429Y-108804815D01*
X234013429Y-108804815D02*
X234654854Y-108475307D01*
X234013429Y-108804815D02*
X234075694Y-108258350D01*
X234013429Y-108804815D02*
X233951168Y-109351277D01*
X233616001Y-108759533D02*
X234013429Y-108804815D01*
%TO.C,D12*%
X176854946Y-74886135D02*
X176254946Y-74486135D01*
X176854946Y-74486135D02*
X177354946Y-74486136D01*
X176854945Y-74086135D02*
X176854946Y-74886135D01*
X176254946Y-74486135D02*
X176854945Y-74086135D01*
X176254946Y-74486135D02*
X176254948Y-75036133D01*
X176254946Y-74486135D02*
X176254946Y-73936133D01*
X175854946Y-74486134D02*
X176254946Y-74486135D01*
%TO.C,D17*%
X213261256Y-137238376D02*
X213170694Y-138033234D01*
X213215975Y-137635805D02*
X213712761Y-137692406D01*
X213170694Y-138033234D02*
X212619831Y-137567884D01*
X212619831Y-137567884D02*
X213261256Y-137238376D01*
X212619831Y-137567884D02*
X212682096Y-137021419D01*
X212619831Y-137567884D02*
X212557570Y-138114346D01*
X212222403Y-137522602D02*
X212619831Y-137567884D01*
%TO.C,D14*%
X197046122Y-104168354D02*
X196997283Y-104966861D01*
X197021701Y-104567608D02*
X197520770Y-104598132D01*
X196997283Y-104966861D02*
X196422822Y-104530979D01*
X196422822Y-104530979D02*
X197046122Y-104168354D01*
X196422822Y-104530979D02*
X196456399Y-103982005D01*
X196422822Y-104530979D02*
X196389245Y-105079953D01*
X196023568Y-104506560D02*
X196422822Y-104530979D01*
%TO.C,D16*%
X199121772Y-70231772D02*
X199072933Y-71030279D01*
X199097351Y-70631026D02*
X199596420Y-70661550D01*
X199072933Y-71030279D02*
X198498472Y-70594397D01*
X198498472Y-70594397D02*
X199121772Y-70231772D01*
X198498472Y-70594397D02*
X198532049Y-70045423D01*
X198498472Y-70594397D02*
X198464895Y-71143371D01*
X198099218Y-70569978D02*
X198498472Y-70594397D01*
%TO.C,D15*%
X198083949Y-87200063D02*
X198035110Y-87998570D01*
X198059528Y-87599317D02*
X198558597Y-87629841D01*
X198035110Y-87998570D02*
X197460649Y-87562688D01*
X197460649Y-87562688D02*
X198083949Y-87200063D01*
X197460649Y-87562688D02*
X197494226Y-87013714D01*
X197460649Y-87562688D02*
X197427072Y-88111662D01*
X197061395Y-87538269D02*
X197460649Y-87562688D01*
%TO.C,D25*%
X196238732Y-158320069D02*
X196189893Y-159118576D01*
X196214311Y-158719323D02*
X196713380Y-158749847D01*
X196189893Y-159118576D02*
X195615432Y-158682694D01*
X195615432Y-158682694D02*
X196238732Y-158320069D01*
X195615432Y-158682694D02*
X195649009Y-158133720D01*
X195615432Y-158682694D02*
X195581855Y-159231668D01*
X195216178Y-158658275D02*
X195615432Y-158682694D01*
%TO.C,D19*%
X217110169Y-103456936D02*
X217019607Y-104251794D01*
X217064888Y-103854365D02*
X217561674Y-103910966D01*
X217019607Y-104251794D02*
X216468744Y-103786444D01*
X216468744Y-103786444D02*
X217110169Y-103456936D01*
X216468744Y-103786444D02*
X216531009Y-103239979D01*
X216468744Y-103786444D02*
X216406483Y-104332906D01*
X216071316Y-103741162D02*
X216468744Y-103786444D01*
%TO.C,D11*%
X176854948Y-91886133D02*
X176254948Y-91486133D01*
X176854948Y-91486133D02*
X177354948Y-91486134D01*
X176854947Y-91086133D02*
X176854948Y-91886133D01*
X176254948Y-91486133D02*
X176854947Y-91086133D01*
X176254948Y-91486133D02*
X176254950Y-92036131D01*
X176254948Y-91486133D02*
X176254948Y-90936131D01*
X175854948Y-91486132D02*
X176254948Y-91486133D01*
%TO.C,D28*%
X255070744Y-176241518D02*
X254640904Y-176916233D01*
X254855823Y-176578877D02*
X255277520Y-176847526D01*
X254640904Y-176916233D02*
X254349789Y-176256496D01*
X254349789Y-176256496D02*
X255070744Y-176241518D01*
X254349789Y-176256496D02*
X254645304Y-175792633D01*
X254349789Y-176256496D02*
X254054275Y-176720362D01*
X254012432Y-176041578D02*
X254349789Y-176256496D01*
%TO.C,D10*%
X176854946Y-108886135D02*
X176254946Y-108486135D01*
X176854946Y-108486135D02*
X177354946Y-108486136D01*
X176854945Y-108086135D02*
X176854946Y-108886135D01*
X176254946Y-108486135D02*
X176854945Y-108086135D01*
X176254946Y-108486135D02*
X176254948Y-109036133D01*
X176254946Y-108486135D02*
X176254946Y-107936133D01*
X175854946Y-108486134D02*
X176254946Y-108486135D01*
%TO.C,D6*%
X156909194Y-121521051D02*
X156276613Y-121174868D01*
X156874331Y-121122573D02*
X157372428Y-121078995D01*
X156839468Y-120724095D02*
X156909194Y-121521051D01*
X156276613Y-121174868D02*
X156839468Y-120724095D01*
X156276613Y-121174868D02*
X156324550Y-121722771D01*
X156276613Y-121174868D02*
X156228678Y-120626959D01*
X155878136Y-121209729D02*
X156276613Y-121174868D01*
%TO.C,D20*%
X219034623Y-86566214D02*
X218944061Y-87361072D01*
X218989342Y-86963643D02*
X219486128Y-87020244D01*
X218944061Y-87361072D02*
X218393198Y-86895722D01*
X218393198Y-86895722D02*
X219034623Y-86566214D01*
X218393198Y-86895722D02*
X218455463Y-86349257D01*
X218393198Y-86895722D02*
X218330937Y-87442184D01*
X217995770Y-86850440D02*
X218393198Y-86895722D01*
%TO.C,D5*%
X158390842Y-138456361D02*
X157758261Y-138110178D01*
X158355979Y-138057883D02*
X158854076Y-138014305D01*
X158321116Y-137659405D02*
X158390842Y-138456361D01*
X157758261Y-138110178D02*
X158321116Y-137659405D01*
X157758261Y-138110178D02*
X157806198Y-138658081D01*
X157758261Y-138110178D02*
X157710326Y-137562269D01*
X157359784Y-138145039D02*
X157758261Y-138110178D01*
%TO.C,D1*%
X140459340Y-140025162D02*
X139826759Y-139678979D01*
X140424477Y-139626684D02*
X140922574Y-139583106D01*
X140389614Y-139228206D02*
X140459340Y-140025162D01*
X139826759Y-139678979D02*
X140389614Y-139228206D01*
X139826759Y-139678979D02*
X139874696Y-140226882D01*
X139826759Y-139678979D02*
X139778824Y-139131070D01*
X139428282Y-139713840D02*
X139826759Y-139678979D01*
%TO.C,D7*%
X155427547Y-104585741D02*
X154794966Y-104239558D01*
X155392684Y-104187263D02*
X155890781Y-104143685D01*
X155357821Y-103788785D02*
X155427547Y-104585741D01*
X154794966Y-104239558D02*
X155357821Y-103788785D01*
X154794966Y-104239558D02*
X154842903Y-104787461D01*
X154794966Y-104239558D02*
X154747031Y-103691649D01*
X154396489Y-104274419D02*
X154794966Y-104239558D01*
%TO.C,D2*%
X138977688Y-123089853D02*
X138345107Y-122743670D01*
X138942825Y-122691375D02*
X139440922Y-122647797D01*
X138907962Y-122292897D02*
X138977688Y-123089853D01*
X138345107Y-122743670D02*
X138907962Y-122292897D01*
X138345107Y-122743670D02*
X138393044Y-123291573D01*
X138345107Y-122743670D02*
X138297172Y-122195761D01*
X137946630Y-122778531D02*
X138345107Y-122743670D01*
%TO.C,D22*%
X232730395Y-125366029D02*
X232639833Y-126160887D01*
X232685114Y-125763458D02*
X233181900Y-125820059D01*
X232639833Y-126160887D02*
X232088970Y-125695537D01*
X232088970Y-125695537D02*
X232730395Y-125366029D01*
X232088970Y-125695537D02*
X232151235Y-125149072D01*
X232088970Y-125695537D02*
X232026709Y-126241999D01*
X231691542Y-125650255D02*
X232088970Y-125695537D01*
%TO.C,D13*%
X196008295Y-121136648D02*
X195959456Y-121935155D01*
X195983874Y-121535902D02*
X196482943Y-121566426D01*
X195959456Y-121935155D02*
X195384995Y-121499273D01*
X195384995Y-121499273D02*
X196008295Y-121136648D01*
X195384995Y-121499273D02*
X195418572Y-120950299D01*
X195384995Y-121499273D02*
X195351418Y-122048247D01*
X194985741Y-121474854D02*
X195384995Y-121499273D01*
%TO.C,D27*%
X235762102Y-166583507D02*
X235495056Y-167337621D01*
X235628577Y-166960563D02*
X236099898Y-167127467D01*
X235495056Y-167337621D02*
X235062992Y-166760280D01*
X235062992Y-166760280D02*
X235762102Y-166583507D01*
X235062992Y-166760280D02*
X235246587Y-166241827D01*
X235062992Y-166760280D02*
X234879398Y-167278732D01*
X234685936Y-166626757D02*
X235062992Y-166760280D01*
%TO.C,D26*%
X216327993Y-161032473D02*
X216168499Y-161816414D01*
X216248246Y-161424443D02*
X216738209Y-161524128D01*
X216168499Y-161816414D02*
X215660290Y-161304822D01*
X215660290Y-161304822D02*
X216327993Y-161032473D01*
X215660290Y-161304822D02*
X215769944Y-160765863D01*
X215660290Y-161304822D02*
X215550639Y-161843781D01*
X215268321Y-161225074D02*
X215660290Y-161304822D01*
%TO.C,D24*%
X236579306Y-91584585D02*
X236488744Y-92379443D01*
X236534025Y-91982014D02*
X237030811Y-92038615D01*
X236488744Y-92379443D02*
X235937881Y-91914093D01*
X235937881Y-91914093D02*
X236579306Y-91584585D01*
X235937881Y-91914093D02*
X236000146Y-91367628D01*
X235937881Y-91914093D02*
X235875620Y-92460555D01*
X235540453Y-91868811D02*
X235937881Y-91914093D01*
%TD*%
M02*
