%TF.GenerationSoftware,KiCad,Pcbnew,8.0.5-8.0.5-0~ubuntu22.04.1*%
%TF.CreationDate,2024-10-08T22:05:51+02:00*%
%TF.ProjectId,KeyboardV0,4b657962-6f61-4726-9456-302e6b696361,v1.0.0*%
%TF.SameCoordinates,Original*%
%TF.FileFunction,Paste,Top*%
%TF.FilePolarity,Positive*%
%FSLAX46Y46*%
G04 Gerber Fmt 4.6, Leading zero omitted, Abs format (unit mm)*
G04 Created by KiCad (PCBNEW 8.0.5-8.0.5-0~ubuntu22.04.1) date 2024-10-08 22:05:51*
%MOMM*%
%LPD*%
G01*
G04 APERTURE LIST*
G04 Aperture macros list*
%AMRotRect*
0 Rectangle, with rotation*
0 The origin of the aperture is its center*
0 $1 length*
0 $2 width*
0 $3 Rotation angle, in degrees counterclockwise*
0 Add horizontal line*
21,1,$1,$2,0,0,$3*%
G04 Aperture macros list end*
%ADD10RotRect,2.600000X2.600000X176.500000*%
%ADD11RotRect,2.600000X2.600000X173.500000*%
%ADD12R,0.900000X1.200000*%
%ADD13RotRect,0.900000X1.200000X353.500000*%
%ADD14RotRect,0.900000X1.200000X5.000000*%
%ADD15RotRect,2.600000X2.600000X185.000000*%
%ADD16RotRect,0.900000X1.700000X83.500000*%
%ADD17R,2.600000X2.600000*%
%ADD18RotRect,0.900000X1.200000X356.500000*%
%ADD19RotRect,2.600000X2.600000X147.500000*%
%ADD20RotRect,0.900000X1.200000X327.500000*%
%ADD21RotRect,2.600000X2.600000X168.500000*%
%ADD22RotRect,2.600000X2.600000X160.500000*%
%ADD23RotRect,0.700000X1.500000X173.500000*%
%ADD24RotRect,1.000000X0.800000X173.500000*%
%ADD25RotRect,0.900000X1.200000X340.500000*%
%ADD26RotRect,0.900000X1.200000X348.500000*%
G04 APERTURE END LIST*
D10*
%TO.C,S14*%
X204344937Y-116286539D03*
X192682176Y-117777325D03*
%TD*%
D11*
%TO.C,S20*%
X225689220Y-99049781D03*
X213964419Y-99928142D03*
%TD*%
D12*
%TO.C,D9*%
X178254947Y-125486132D03*
X174954947Y-125486128D03*
%TD*%
D13*
%TO.C,D21*%
X232151664Y-142812665D03*
X228872876Y-142439095D03*
%TD*%
D14*
%TO.C,D4*%
X137374204Y-88698738D03*
X134086762Y-88986350D03*
%TD*%
D15*
%TO.C,S5*%
X167330941Y-148565648D03*
X156016636Y-151763929D03*
%TD*%
D14*
%TO.C,D3*%
X138855851Y-105634049D03*
X135568409Y-105921661D03*
%TD*%
D13*
%TO.C,D18*%
X216531434Y-120903570D03*
X213252646Y-120530000D03*
%TD*%
D15*
%TO.C,S6*%
X165849295Y-131630337D03*
X154534990Y-134828618D03*
%TD*%
D10*
%TO.C,S25*%
X203537550Y-170438253D03*
X191874789Y-171929039D03*
%TD*%
D11*
%TO.C,S21*%
X237460540Y-154740317D03*
X225735739Y-155618678D03*
%TD*%
D16*
%TO.C,*%
X261694416Y-116286486D03*
X262079306Y-112908342D03*
%TD*%
D17*
%TO.C,S10*%
X184879947Y-119736131D03*
X173329947Y-121936131D03*
%TD*%
D14*
%TO.C,D8*%
X155305708Y-87129936D03*
X152018266Y-87417548D03*
%TD*%
D13*
%TO.C,D23*%
X236000574Y-109031220D03*
X232721786Y-108657650D03*
%TD*%
D12*
%TO.C,D12*%
X178254946Y-74486137D03*
X174954946Y-74486133D03*
%TD*%
D13*
%TO.C,D17*%
X214606976Y-137794289D03*
X211328188Y-137420719D03*
%TD*%
D11*
%TO.C,S22*%
X239384992Y-137849597D03*
X227660191Y-138727958D03*
%TD*%
%TO.C,S19*%
X223764763Y-115940502D03*
X212039962Y-116818863D03*
%TD*%
D10*
%TO.C,S15*%
X205382763Y-99318251D03*
X193720002Y-100809037D03*
%TD*%
D18*
%TO.C,D14*%
X198419092Y-104653076D03*
X195125246Y-104451616D03*
%TD*%
D11*
%TO.C,S17*%
X219915853Y-149721945D03*
X208191052Y-150600306D03*
%TD*%
D18*
%TO.C,D16*%
X200494742Y-70716494D03*
X197200896Y-70515034D03*
%TD*%
D17*
%TO.C,S9*%
X184879945Y-136736133D03*
X173329945Y-138936133D03*
%TD*%
D19*
%TO.C,S28*%
X255579422Y-190378859D03*
X244656191Y-186028511D03*
%TD*%
D15*
%TO.C,S1*%
X149399439Y-150134451D03*
X138085134Y-153332732D03*
%TD*%
D18*
%TO.C,D15*%
X199456919Y-87684785D03*
X196163073Y-87483325D03*
%TD*%
%TO.C,D25*%
X197611702Y-158804791D03*
X194317856Y-158603331D03*
%TD*%
D13*
%TO.C,D19*%
X218455889Y-104012849D03*
X215177101Y-103639279D03*
%TD*%
D11*
%TO.C,S23*%
X241309448Y-120958875D03*
X229584647Y-121837236D03*
%TD*%
D12*
%TO.C,D11*%
X178254948Y-91486135D03*
X174954948Y-91486131D03*
%TD*%
D20*
%TO.C,D28*%
X256036573Y-177331095D03*
X253253379Y-175558009D03*
%TD*%
D15*
%TO.C,S8*%
X162885999Y-97759715D03*
X151571694Y-100957996D03*
%TD*%
D10*
%TO.C,S16*%
X206420588Y-82349957D03*
X194757827Y-83840743D03*
%TD*%
D21*
%TO.C,S26*%
X221869251Y-174048520D03*
X210112512Y-173901656D03*
%TD*%
D12*
%TO.C,D10*%
X178254946Y-108486137D03*
X174954946Y-108486133D03*
%TD*%
D14*
%TO.C,D6*%
X158269003Y-121000556D03*
X154981561Y-121288168D03*
%TD*%
D13*
%TO.C,D20*%
X220380343Y-87122127D03*
X217101555Y-86748557D03*
%TD*%
D17*
%TO.C,S11*%
X184879948Y-102736131D03*
X173329948Y-104936131D03*
%TD*%
D14*
%TO.C,D5*%
X159750651Y-137935866D03*
X156463209Y-138223478D03*
%TD*%
D15*
%TO.C,S4*%
X144954495Y-99328520D03*
X133640190Y-102526801D03*
%TD*%
D10*
%TO.C,S13*%
X191644351Y-134745619D03*
X203307112Y-133254833D03*
%TD*%
D22*
%TO.C,S27*%
X239437946Y-180244082D03*
X227816062Y-178462421D03*
%TD*%
D14*
%TO.C,D1*%
X141819149Y-139504667D03*
X138531707Y-139792279D03*
%TD*%
%TO.C,D7*%
X156787356Y-104065246D03*
X153499914Y-104352858D03*
%TD*%
D11*
%TO.C,S18*%
X221840310Y-132831223D03*
X210115509Y-133709584D03*
%TD*%
D14*
%TO.C,D2*%
X140337497Y-122569358D03*
X137050055Y-122856970D03*
%TD*%
D11*
%TO.C,S24*%
X243233903Y-104068152D03*
X231509102Y-104946513D03*
%TD*%
D17*
%TO.C,S12*%
X184879946Y-85736132D03*
X173329946Y-87936132D03*
%TD*%
D15*
%TO.C,S2*%
X147917790Y-133199142D03*
X136603485Y-136397423D03*
%TD*%
%TO.C,S3*%
X135121837Y-119462110D03*
X146436142Y-116263829D03*
%TD*%
D23*
%TO.C,*%
X251621241Y-114152452D03*
X253111600Y-114322255D03*
X256092314Y-114661865D03*
D24*
X250554000Y-111152352D03*
X250303821Y-113348144D03*
X257807076Y-111978734D03*
X257556898Y-114174528D03*
%TD*%
D15*
%TO.C,S7*%
X164367645Y-114695027D03*
X153053340Y-117893308D03*
%TD*%
D13*
%TO.C,D22*%
X234076115Y-125921942D03*
X230797327Y-125548372D03*
%TD*%
D18*
%TO.C,D13*%
X197381265Y-121621370D03*
X194087419Y-121419910D03*
%TD*%
D25*
%TO.C,D27*%
X236948275Y-167427891D03*
X233837559Y-166326333D03*
%TD*%
D26*
%TO.C,D26*%
X217620141Y-161703557D03*
X214386389Y-161045645D03*
%TD*%
D13*
%TO.C,D24*%
X237925026Y-92140498D03*
X234646238Y-91766928D03*
%TD*%
M02*
