M48
; DRILL file {KiCad 8.0.5-8.0.5-0~ubuntu22.04.1} date 2024-10-08T22:05:46+0200
; FORMAT={-:-/ absolute / inch / decimal}
; #@! TF.CreationDate,2024-10-08T22:05:46+02:00
; #@! TF.GenerationSoftware,Kicad,Pcbnew,8.0.5-8.0.5-0~ubuntu22.04.1
; #@! TF.FileFunction,NonPlated,1,2,NPTH
FMAT,2
INCH
; #@! TA.AperFunction,NonPlated,NPTH,ComponentDrill
T1C0.0354
; #@! TA.AperFunction,NonPlated,NPTH,ComponentDrill
T2C0.0670
; #@! TA.AperFunction,NonPlated,NPTH,ComponentDrill
T3C0.1181
; #@! TA.AperFunction,NonPlated,NPTH,ComponentDrill
T4C0.1350
%
G90
G05
T1
X9.9435Y-4.4287
X9.9435Y-4.4287
X10.0609Y-4.4421
X10.0609Y-4.4421
T2
X5.1537Y-3.8108
X5.2121Y-4.4775
X5.2704Y-5.1443
X5.3287Y-5.811
X5.5852Y-3.773
X5.6435Y-4.4398
X5.7018Y-5.1065
X5.7602Y-5.7733
X5.8597Y-3.749
X5.918Y-4.4157
X5.9764Y-5.0825
X6.0347Y-5.7492
X6.2911Y-3.7113
X6.3495Y-4.378
X6.4078Y-5.0447
X6.4661Y-5.7115
X6.7364Y-5.2357
X6.7364Y-3.2278
X6.7364Y-4.5664
X6.7364Y-3.8971
X7.1695Y-5.2357
X7.1695Y-3.2278
X7.1695Y-4.5664
X7.1695Y-3.8971
X7.4719Y-5.0658
X7.481Y-6.5297
X7.5128Y-4.3977
X7.5536Y-3.7297
X7.5945Y-3.0617
X7.9042Y-5.0922
X7.9133Y-6.5561
X7.945Y-4.4242
X7.9859Y-3.7561
X8.0268Y-3.0881
X8.136Y-5.6865
X8.2117Y-5.0215
X8.233Y-6.5995
X8.2875Y-4.3565
X8.3633Y-3.6915
X8.5663Y-5.7355
X8.642Y-5.0705
X8.6574Y-6.6858
X8.7178Y-4.4055
X8.7936Y-3.7405
X8.8267Y-5.8841
X8.9025Y-5.2191
X8.9648Y-6.776
X8.9782Y-4.5541
X9.054Y-3.8891
X9.257Y-5.9331
X9.3328Y-5.2681
X9.373Y-6.9206
X9.4085Y-4.6031
X9.4843Y-3.9381
X9.6841Y-7.0793
X10.0494Y-7.312
T3
X5.1862Y-3.9561
X5.2446Y-4.6229
X5.3029Y-5.2896
X5.3612Y-5.9564
X5.3899Y-4.0253
X5.3899Y-4.0253
X5.4482Y-4.692
X5.4482Y-4.692
X5.5065Y-5.3587
X5.5065Y-5.3587
X5.5649Y-6.0255
X5.5649Y-6.0255
X5.5784Y-3.9218
X5.6368Y-4.5886
X5.6951Y-5.2553
X5.7534Y-5.922
X5.8922Y-3.8944
X5.9505Y-4.5611
X6.0089Y-5.2278
X6.0672Y-5.8946
X6.0958Y-3.9635
X6.0958Y-3.9635
X6.1542Y-4.6302
X6.1542Y-4.6302
X6.2125Y-5.297
X6.2125Y-5.297
X6.2708Y-5.9637
X6.2708Y-5.9637
X6.2844Y-3.86
X6.3427Y-4.5268
X6.4011Y-5.1935
X6.4594Y-5.8603
X6.7561Y-5.3833
X6.7561Y-3.3754
X6.7561Y-4.714
X6.7561Y-4.0447
X6.953Y-5.4699
X6.953Y-5.4699
X6.953Y-3.4621
X6.953Y-3.4621
X6.953Y-4.8006
X6.953Y-4.8006
X6.953Y-4.1313
X6.953Y-4.1313
X7.1498Y-5.3833
X7.1498Y-3.3754
X7.1498Y-4.714
X7.1498Y-4.0447
X7.4826Y-5.2143
X7.4916Y-6.6783
X7.5234Y-4.5463
X7.5643Y-3.8783
X7.6051Y-3.2102
X7.6737Y-5.3128
X7.6737Y-5.3128
X7.6828Y-6.7767
X7.6828Y-6.7767
X7.7146Y-4.6448
X7.7146Y-4.6448
X7.7555Y-3.9767
X7.7555Y-3.9767
X7.7963Y-3.3087
X7.7963Y-3.3087
X7.8755Y-5.2384
X7.8846Y-6.7023
X7.9164Y-4.5703
X7.9572Y-3.9023
X7.9981Y-3.2343
X8.1388Y-5.8354
X8.2146Y-5.1704
X8.2229Y-6.7481
X8.2904Y-4.5054
X8.3246Y-5.9437
X8.3246Y-5.9437
X8.3661Y-3.8404
X8.3985Y-6.8722
X8.3985Y-6.8722
X8.4004Y-5.2788
X8.4004Y-5.2788
X8.4761Y-4.6138
X8.4761Y-4.6138
X8.53Y-5.88
X8.5519Y-3.9488
X8.5519Y-3.9488
X8.6058Y-5.215
X8.6087Y-6.8266
X8.6815Y-4.55
X8.7573Y-3.885
X8.8296Y-6.033
X8.9053Y-5.368
X8.934Y-6.9218
X8.9811Y-4.703
X9.0153Y-6.1413
X9.0153Y-6.1413
X9.0569Y-4.038
X9.0907Y-7.0691
X9.0907Y-7.0691
X9.0911Y-5.4763
X9.0911Y-5.4763
X9.1669Y-4.8113
X9.1669Y-4.8113
X9.2207Y-6.0775
X9.2426Y-4.1463
X9.2426Y-4.1463
X9.2965Y-5.4126
X9.3051Y-7.0532
X9.3723Y-4.7476
X9.448Y-4.0826
X9.6214Y-7.2144
X9.7409Y-7.3932
X9.7409Y-7.3932
X9.9534Y-7.426
T4
X5.3695Y-3.7919
X5.4278Y-4.4586
X5.4861Y-5.1254
X5.5445Y-5.7921
X6.0754Y-3.7301
X6.1338Y-4.3969
X6.1921Y-5.0636
X6.2504Y-5.7304
X6.953Y-5.2357
X6.953Y-3.2278
X6.953Y-4.5664
X6.953Y-3.8971
X7.6881Y-5.079
X7.6971Y-6.5429
X7.7289Y-4.411
X7.7698Y-3.7429
X7.8106Y-3.0749
X8.3511Y-5.711
X8.4269Y-5.046
X8.4452Y-6.6427
X8.5027Y-4.381
X8.5784Y-3.716
X9.0419Y-5.9086
X9.1176Y-5.2436
X9.1689Y-6.8483
X9.1934Y-4.5786
X9.2692Y-3.9136
X9.8667Y-7.1957
M30
