0
SECTION
2
HEADER
9
$INSUNITS
70
4
0
ENDSEC
0
SECTION
2
TABLES
0
TABLE
2
LTYPE
0
LTYPE
72
65
70
64
2
CONTINUOUS
3
______
73
0
40
0
0
ENDTAB
0
TABLE
2
LAYER
0
ENDTAB
0
ENDSEC
0
SECTION
2
ENTITIES
0
LINE
8
0
10
142.0023313
20
-158.981219
11
159.4357385
21
-157.4559935
0
LINE
8
0
10
159.4357385
20
-157.4559935
11
157.9976687
21
-141.018781
0
LINE
8
0
10
157.9976687
20
-141.018781
11
140.5642615
21
-142.5440065
0
LINE
8
0
10
140.5642615
20
-142.5440065
11
142.0023313
21
-158.981219
0
LINE
8
0
10
140.5206837
20
-142.0459091
11
157.9540909
21
-140.5206836
0
LINE
8
0
10
157.9540909
20
-140.5206836
11
156.5160211
21
-124.0834711
0
LINE
8
0
10
156.5160211
20
-124.0834711
11
139.0826139
21
-125.6086966
0
LINE
8
0
10
139.0826139
20
-125.6086966
11
140.5206837
21
-142.0459091
0
LINE
8
0
10
139.0390361
20
-125.1105992
11
156.4724433
21
-123.5853737
0
LINE
8
0
10
156.4724433
20
-123.5853737
11
155.0343735
21
-107.1481612
0
LINE
8
0
10
155.0343735
20
-107.1481612
11
137.6009663
21
-108.6733867
0
LINE
8
0
10
137.6009663
20
-108.6733867
11
139.0390361
21
-125.1105992
0
LINE
8
0
10
137.5573885
20
-108.1752893
11
154.9907957
21
-106.6500638
0
LINE
8
0
10
154.9907957
20
-106.6500638
11
153.5527259
21
-90.2128513
0
LINE
8
0
10
153.5527259
20
-90.2128513
11
136.1193187
21
-91.7380768
0
LINE
8
0
10
136.1193187
20
-91.7380768
11
137.5573885
21
-108.1752893
0
LINE
8
0
10
159.9338359
20
-157.4124156
11
177.3672431
21
-155.8871901
0
LINE
8
0
10
177.3672431
20
-155.8871901
11
175.9291733
21
-139.4499776
0
LINE
8
0
10
175.9291733
20
-139.4499776
11
158.4957661
21
-140.9752031
0
LINE
8
0
10
158.4957661
20
-140.9752031
11
159.9338359
21
-157.4124156
0
LINE
8
0
10
158.4521883
20
-140.4771057
11
175.8855955
21
-138.9518802
0
LINE
8
0
10
175.8855955
20
-138.9518802
11
174.4475257
21
-122.5146677
0
LINE
8
0
10
174.4475257
20
-122.5146677
11
157.0141185
21
-124.0398932
0
LINE
8
0
10
157.0141185
20
-124.0398932
11
158.4521883
21
-140.4771057
0
LINE
8
0
10
156.9705407
20
-123.5417958
11
174.4039479
21
-122.0165703
0
LINE
8
0
10
174.4039479
20
-122.0165703
11
172.9658781
21
-105.5793578
0
LINE
8
0
10
172.9658781
20
-105.5793578
11
155.5324709
21
-107.1045833
0
LINE
8
0
10
155.5324709
20
-107.1045833
11
156.9705407
21
-123.5417958
0
LINE
8
0
10
155.4888931
20
-106.6064859
11
172.9223003
21
-105.0812604
0
LINE
8
0
10
172.9223003
20
-105.0812604
11
171.4842305
21
-88.6440479
0
LINE
8
0
10
171.4842305
20
-88.6440479
11
154.0508233
21
-90.1692734
0
LINE
8
0
10
154.0508233
20
-90.1692734
11
155.4888931
21
-106.6064859
0
LINE
8
0
10
177.0258534
20
-144.1161986
11
194.5258534
21
-144.1161986
0
LINE
8
0
10
194.5258534
20
-144.1161986
11
194.5258534
21
-127.6161986
0
LINE
8
0
10
194.5258534
20
-127.6161986
11
177.0258534
21
-127.6161986
0
LINE
8
0
10
177.0258534
20
-127.6161986
11
177.0258534
21
-144.1161986
0
LINE
8
0
10
177.0258534
20
-127.1161986
11
194.5258534
21
-127.1161986
0
LINE
8
0
10
194.5258534
20
-127.1161986
11
194.5258534
21
-110.6161986
0
LINE
8
0
10
194.5258534
20
-110.6161986
11
177.0258534
21
-110.6161986
0
LINE
8
0
10
177.0258534
20
-110.6161986
11
177.0258534
21
-127.1161986
0
LINE
8
0
10
177.0258534
20
-110.1161986
11
194.5258534
21
-110.1161986
0
LINE
8
0
10
194.5258534
20
-110.1161986
11
194.5258534
21
-93.6161986
0
LINE
8
0
10
194.5258534
20
-93.6161986
11
177.0258534
21
-93.6161986
0
LINE
8
0
10
177.0258534
20
-93.6161986
11
177.0258534
21
-110.1161986
0
LINE
8
0
10
177.0258534
20
-93.1161986
11
194.5258534
21
-93.1161986
0
LINE
8
0
10
194.5258534
20
-93.1161986
11
194.5258534
21
-76.6161986
0
LINE
8
0
10
194.5258534
20
-76.6161986
11
177.0258534
21
-76.6161986
0
LINE
8
0
10
177.0258534
20
-76.6161986
11
177.0258534
21
-93.1161986
0
LINE
8
0
10
195.2100574
20
-139.5871531
11
212.6774163
21
-140.6555025
0
LINE
8
0
10
212.6774163
20
-140.6555025
11
213.6847172
21
-124.1862783
0
LINE
8
0
10
213.6847172
20
-124.1862783
11
196.2173583
21
-123.1179289
0
LINE
8
0
10
196.2173583
20
-123.1179289
11
195.2100574
21
-139.5871531
0
LINE
8
0
10
196.2478826
20
-122.6188615
11
213.7152415
21
-123.6872109
0
LINE
8
0
10
213.7152415
20
-123.6872109
11
214.7225424
21
-107.2179867
0
LINE
8
0
10
214.7225424
20
-107.2179867
11
197.2551835
21
-106.1496373
0
LINE
8
0
10
197.2551835
20
-106.1496373
11
196.2478826
21
-122.6188615
0
LINE
8
0
10
197.2857078
20
-105.6505699
11
214.7530667
21
-106.7189193
0
LINE
8
0
10
214.7530667
20
-106.7189193
11
215.7603676
21
-90.2496951
0
LINE
8
0
10
215.7603676
20
-90.2496951
11
198.2930087
21
-89.1813457
0
LINE
8
0
10
198.2930087
20
-89.1813457
11
197.2857078
21
-105.6505699
0
LINE
8
0
10
198.323533
20
-88.6822783
11
215.7908919
21
-89.7506277
0
LINE
8
0
10
215.7908919
20
-89.7506277
11
216.7981928
21
-73.2814035
0
LINE
8
0
10
216.7981928
20
-73.2814035
11
199.3308339
21
-72.2130541
0
LINE
8
0
10
199.3308339
20
-72.2130541
11
198.323533
21
-88.6822783
0
LINE
8
0
10
211.6617866
20
-155.1457993
11
229.0492941
21
-157.1268555
0
LINE
8
0
10
229.0492941
20
-157.1268555
11
230.9171472
21
-140.7329199
0
LINE
8
0
10
230.9171472
20
-140.7329199
11
213.5296397
21
-138.7518637
0
LINE
8
0
10
213.5296397
20
-138.7518637
11
211.6617866
21
-155.1457993
0
LINE
8
0
10
213.5862412
20
-138.2550778
11
230.9737487
21
-140.236134
0
LINE
8
0
10
230.9737487
20
-140.236134
11
232.8416018
21
-123.8421984
0
LINE
8
0
10
232.8416018
20
-123.8421984
11
215.4540943
21
-121.8611422
0
LINE
8
0
10
215.4540943
20
-121.8611422
11
213.5862412
21
-138.2550778
0
LINE
8
0
10
215.5106958
20
-121.3643563
11
232.8982033
21
-123.3454125
0
LINE
8
0
10
232.8982033
20
-123.3454125
11
234.7660564
21
-106.9514769
0
LINE
8
0
10
234.7660564
20
-106.9514769
11
217.3785489
21
-104.9704207
0
LINE
8
0
10
217.3785489
20
-104.9704207
11
215.5106958
21
-121.3643563
0
LINE
8
0
10
217.4351504
20
-104.4736348
11
234.8226579
21
-106.454691
0
LINE
8
0
10
234.8226579
20
-106.454691
11
236.690511
21
-90.0607554
0
LINE
8
0
10
236.690511
20
-90.0607554
11
219.3030035
21
-88.0796992
0
LINE
8
0
10
219.3030035
20
-88.0796992
11
217.4351504
21
-104.4736348
0
LINE
8
0
10
229.2064704
20
-160.1641727
11
246.5939779
21
-162.1452289
0
LINE
8
0
10
246.5939779
20
-162.1452289
11
248.461831
21
-145.7512933
0
LINE
8
0
10
248.461831
20
-145.7512933
11
231.0743235
21
-143.7702371
0
LINE
8
0
10
231.0743235
20
-143.7702371
11
229.2064704
21
-160.1641727
0
LINE
8
0
10
231.130925
20
-143.2734512
11
248.5184325
21
-145.2545074
0
LINE
8
0
10
248.5184325
20
-145.2545074
11
250.3862856
21
-128.8605718
0
LINE
8
0
10
250.3862856
20
-128.8605718
11
232.9987781
21
-126.8795156
0
LINE
8
0
10
232.9987781
20
-126.8795156
11
231.130925
21
-143.2734512
0
LINE
8
0
10
233.0553796
20
-126.3827297
11
250.4428871
21
-128.3637859
0
LINE
8
0
10
250.4428871
20
-128.3637859
11
252.3107402
21
-111.9698503
0
LINE
8
0
10
252.3107402
20
-111.9698503
11
234.9232327
21
-109.9887941
0
LINE
8
0
10
234.9232327
20
-109.9887941
11
233.0553796
21
-126.3827297
0
LINE
8
0
10
234.9798342
20
-109.4920082
11
252.3673417
21
-111.4730644
0
LINE
8
0
10
252.3673417
20
-111.4730644
11
254.2351948
21
-95.0791288
0
LINE
8
0
10
254.2351948
20
-95.0791288
11
236.8476873
21
-93.0980726
0
LINE
8
0
10
236.8476873
20
-93.0980726
11
234.9798342
21
-109.4920082
0
LINE
8
0
10
195.4404936
20
-176.7705755
11
212.9078525
21
-177.8389249
0
LINE
8
0
10
212.9078525
20
-177.8389249
11
213.9151534
21
-161.3697007
0
LINE
8
0
10
213.9151534
20
-161.3697007
11
196.4477945
21
-160.3013513
0
LINE
8
0
10
196.4477945
20
-160.3013513
11
195.4404936
21
-176.7705755
0
LINE
8
0
10
213.4597838
20
-177.9440092
11
230.6084661
21
-181.432948
0
LINE
8
0
10
230.6084661
20
-181.432948
11
233.898037
21
-165.2641904
0
LINE
8
0
10
233.898037
20
-165.2641904
11
216.7493547
21
-161.7752516
0
LINE
8
0
10
216.7493547
20
-161.7752516
11
213.4597838
21
-177.9440092
0
LINE
8
0
10
231.0582511
20
-181.6829709
11
247.5544772
21
-187.5245909
0
LINE
8
0
10
247.5544772
20
-187.5245909
11
253.0622903
21
-171.9710063
0
LINE
8
0
10
253.0622903
20
-171.9710063
11
236.5660642
21
-166.1293863
0
LINE
8
0
10
236.5660642
20
-166.1293863
11
231.0582511
21
-181.6829709
0
LINE
8
0
10
247.9737406
20
-187.9066631
11
262.7330909
21
-197.3094062
0
LINE
8
0
10
262.7330909
20
-197.3094062
11
271.5985344
21
-183.3934473
0
LINE
8
0
10
271.5985344
20
-183.3934473
11
256.8391841
21
-173.9907042
0
LINE
8
0
10
256.8391841
20
-173.9907042
11
247.9737406
21
-187.9066631
0
ENDSEC
0
EOF