0
SECTION
2
HEADER
9
$INSUNITS
70
4
0
ENDSEC
0
SECTION
2
TABLES
0
TABLE
2
LTYPE
0
LTYPE
72
65
70
64
2
CONTINUOUS
3
______
73
0
40
0
0
ENDTAB
0
TABLE
2
LAYER
0
ENDTAB
0
ENDSEC
0
SECTION
2
ENTITIES
0
LINE
8
0
10
134.677975
20
-89.6055834
11
172.460053
21
-86.3000799
0
ARC
8
0
10
134.7651307
20
-90.6017781
40
1
50
95.0000001
51
184.9999976
0
LINE
8
0
10
133.768936
20
-90.6889338
11
139.8698379
21
-160.4225628
0
ARC
8
0
10
140.8660326
20
-160.3354071
40
1
50
184.9999999
51
274.9999976
0
LINE
8
0
10
140.9531883
20
-161.3316018
11
177.4096041
21
-158.1420786
0
LINE
8
0
10
178.7484316
20
-158.747265
11
193.3111184
21
-178.5346704
0
ARC
8
0
10
194.1165144
20
-177.9419333
40
1
50
216.3514838
51
266.4264719
0
LINE
8
0
10
194.054185
20
-178.9399889
11
212.7297382
21
-180.1062919
0
LINE
8
0
10
212.9360663
20
-180.1336453
11
230.0520979
21
-183.6252837
0
LINE
8
0
10
230.2714192
20
-183.687715
11
246.4934489
21
-189.6719175
0
LINE
8
0
10
246.7802548
20
-189.8141291
11
262.5784061
21
-199.8786614
0
ARC
8
0
10
263.1157057
20
-199.03527
40
1
50
237.5000002
51
327.499999
0
LINE
8
0
10
263.9590971
20
-199.5725696
11
272.6426179
21
-185.9421725
0
ARC
8
0
10
271.7992265
20
-185.4048729
40
1
50
327.4999995
51
363.915587
0
ARC
8
0
10
660.888865
20
-158.773065
40
389
50
173.7228818
51
183.9155861
0
ARC
8
0
10
273.227032
20
-116.131498
40
1
50
353.722879
51
82.4315593
0
LINE
8
0
10
273.3587424
20
-115.1402098
11
258.933419
21
-113.2235473
0
LINE
8
0
10
257.6406269
20
-111.5668101
11
259.7004941
21
-93.4875876
0
ARC
8
0
10
258.7069222
20
-93.3743844
40
1
50
353.4999999
51
443.5000011
0
LINE
8
0
10
258.8201254
20
-92.3808125
11
241.2725363
21
-90.3815172
0
LINE
8
0
10
239.943989
20
-88.8208679
11
239.9752817
21
-88.1538249
0
ARC
8
0
10
238.9763803
20
-88.1069639
40
1
50
357.3140762
51
443.5000011
0
LINE
8
0
10
239.0895835
20
-87.113392
11
220.6097349
21
-85.0078792
0
LINE
8
0
10
219.279682
20
-83.5381809
11
219.1220771
21
-72.0962727
0
ARC
8
0
10
218.122172
20
-72.1100457
40
1
50
0.7891622
51
86.5000023
0
LINE
8
0
10
218.1832205
20
-71.1119109
11
198.2205245
21
-69.8909401
0
ARC
8
0
10
198.159476
20
-70.8890749
40
1
50
86.5
51
167.608995
0
LINE
8
0
10
197.18277
20
-70.6744929
11
196.6305376
21
-73.1880716
0
LINE
8
0
10
195.1654786
20
-74.3661986
11
175.7758534
21
-74.3661986
0
ARC
8
0
10
175.7758534
20
-75.3661986
40
1
50
90
51
174.347355
0
LINE
8
0
10
174.7807161
20
-75.2677013
11
173.8220255
21
-84.9535338
0
ARC
8
0
10
177.5403376
20
-159.6363706
40
1.5
50
36.3514829
51
94.9999976
0
ARC
8
0
10
212.636244
20
-181.6033754
40
1.5
50
78.4699707
51
86.4264719
0
ARC
8
0
10
229.7522756
20
-185.0950138
40
1.5
50
69.751304
51
78.4699707
0
ARC
8
0
10
245.9743053
20
-191.0792162
40
1.5
50
57.499999
51
69.751304
0
ARC
8
0
10
259.1309847
20
-111.7366149
40
1.5
50
173.5000011
51
262.4315587
0
ARC
8
0
10
241.4423411
20
-88.8911594
40
1.5
50
177.3140788
51
263.5000011
0
ARC
8
0
10
220.7795397
20
-83.5175214
40
1.5
50
180.7891598
51
263.5000011
0
ARC
8
0
10
195.1654786
20
-72.8661986
40
1.5
50
270
51
347.608995
0
ARC
8
0
10
172.3293195
20
-84.8057879
40
1.5
50
274.9999976
51
354.347355
0
ENDSEC
0
EOF