0
SECTION
2
HEADER
9
$INSUNITS
70
4
0
ENDSEC
0
SECTION
2
TABLES
0
TABLE
2
LTYPE
0
LTYPE
72
65
70
64
2
CONTINUOUS
3
______
73
0
40
0
0
ENDTAB
0
TABLE
2
LAYER
0
ENDTAB
0
ENDSEC
0
SECTION
2
ENTITIES
0
LINE
8
0
10
134.677975
20
-89.6055834
11
172.460053
21
-86.3000799
0
ARC
8
0
10
134.7651307
20
-90.6017781
40
1
50
95.0000001
51
184.9999976
0
LINE
8
0
10
133.768936
20
-90.6889338
11
139.8698379
21
-160.4225628
0
ARC
8
0
10
140.8660326
20
-160.3354071
40
1
50
184.9999999
51
274.9999976
0
LINE
8
0
10
140.9531883
20
-161.3316018
11
177.4096041
21
-158.1420786
0
LINE
8
0
10
178.7484316
20
-158.747265
11
192.1068444
21
-176.8983339
0
LINE
8
0
10
209.0202082
20
-179.8746288
11
212.7297382
21
-180.1062919
0
LINE
8
0
10
212.9360663
20
-180.1336453
11
230.0520979
21
-183.6252837
0
LINE
8
0
10
230.2714192
20
-183.687715
11
246.4934489
21
-189.6719175
0
LINE
8
0
10
246.7802548
20
-189.8141291
11
262.5784061
21
-199.8786614
0
ARC
8
0
10
263.1157057
20
-199.03527
40
1
50
237.5000002
51
327.499999
0
LINE
8
0
10
263.9590971
20
-199.5725696
11
271.917531
21
-187.0803312
0
LINE
8
0
10
273.3376689
20
-115.1374097
11
258.933419
21
-113.2235473
0
LINE
8
0
10
257.6406269
20
-111.5668101
11
259.7004941
21
-93.4875876
0
ARC
8
0
10
258.7069222
20
-93.3743844
40
1
50
353.4999999
51
443.5000011
0
LINE
8
0
10
258.8201254
20
-92.3808125
11
241.2725363
21
-90.3815172
0
LINE
8
0
10
239.943989
20
-88.8208679
11
239.9752817
21
-88.1538249
0
ARC
8
0
10
238.9763803
20
-88.1069639
40
1
50
357.3140762
51
443.5000011
0
LINE
8
0
10
239.0895835
20
-87.113392
11
220.6097349
21
-85.0078792
0
LINE
8
0
10
219.279682
20
-83.5381809
11
219.1220771
21
-72.0962727
0
ARC
8
0
10
218.122172
20
-72.1100457
40
1
50
0.7891622
51
86.5000023
0
LINE
8
0
10
218.1832205
20
-71.1119109
11
198.2205245
21
-69.8909401
0
ARC
8
0
10
198.159476
20
-70.8890749
40
1
50
86.5
51
167.608995
0
LINE
8
0
10
197.18277
20
-70.6744929
11
196.6305376
21
-73.1880716
0
LINE
8
0
10
195.1654786
20
-74.3661986
11
175.7758534
21
-74.3661986
0
ARC
8
0
10
175.7758534
20
-75.3661986
40
1
50
90
51
174.347355
0
LINE
8
0
10
174.7807161
20
-75.2677013
11
173.8220255
21
-84.9535338
0
ARC
8
0
10
177.5403376
20
-159.6363706
40
1.5
50
36.3514829
51
94.9999976
0
ARC
8
0
10
212.636244
20
-181.6033754
40
1.5
50
78.4699707
51
86.4264719
0
ARC
8
0
10
229.7522756
20
-185.0950138
40
1.5
50
69.751304
51
78.4699707
0
ARC
8
0
10
245.9743053
20
-191.0792162
40
1.5
50
57.499999
51
69.751304
0
ARC
8
0
10
259.1309847
20
-111.7366149
40
1.5
50
173.5000011
51
262.4315587
0
ARC
8
0
10
241.4423411
20
-88.8911594
40
1.5
50
177.3140788
51
263.5000011
0
ARC
8
0
10
220.7795397
20
-83.5175214
40
1.5
50
180.7891598
51
263.5000011
0
ARC
8
0
10
195.1654786
20
-72.8661986
40
1.5
50
270
51
347.608995
0
ARC
8
0
10
172.3293195
20
-84.8057879
40
1.5
50
274.9999976
51
354.347355
0
ARC
8
0
10
165.933481
20
-375.1783255
40
200
50
437.559031
51
442.4803148
0
ARC
8
0
10
660.888865
20
-158.773065
40
390
50
533.5759363
51
535.7556857
0
ARC
8
0
10
660.888865
20
-158.773065
40
390
50
541.6591417
51
544.1623445
0
LINE
8
0
10
248.2521782
20
-167.4671526
11
271.0523681
21
-170.0649061
0
LINE
8
0
10
271.9584266
20
-129.9093489
11
252.7803068
21
-127.7242784
0
ARC
8
0
10
252.6671036
20
-128.7178502
40
1
50
83.5
51
173.5
0
LINE
8
0
10
251.6735317
20
-128.604647
11
247.3718096
21
-166.3603776
0
ARC
8
0
10
248.3653815
20
-166.4735808
40
1
50
173.5
51
263.5
0
LINE
8
0
10
143.7276312
20
-157.475118
11
157.475118
21
-156.2723688
0
LINE
8
0
10
157.475118
20
-156.2723688
11
156.2723688
21
-142.524882
0
LINE
8
0
10
156.2723688
20
-142.524882
11
142.524882
21
-143.7276312
0
LINE
8
0
10
142.524882
20
-143.7276312
11
143.7276312
21
-157.475118
0
LINE
8
0
10
142.2459836
20
-140.5398081
11
155.9934704
21
-139.3370589
0
LINE
8
0
10
155.9934704
20
-139.3370589
11
154.7907212
21
-125.5895721
0
LINE
8
0
10
154.7907212
20
-125.5895721
11
141.0432344
21
-126.7923213
0
LINE
8
0
10
141.0432344
20
-126.7923213
11
142.2459836
21
-140.5398081
0
LINE
8
0
10
140.764336
20
-123.6044982
11
154.5118228
21
-122.401749
0
LINE
8
0
10
154.5118228
20
-122.401749
11
153.3090736
21
-108.6542622
0
LINE
8
0
10
153.3090736
20
-108.6542622
11
139.5615868
21
-109.8570114
0
LINE
8
0
10
139.5615868
20
-109.8570114
11
140.764336
21
-123.6044982
0
LINE
8
0
10
139.2826884
20
-106.6691883
11
153.0301752
21
-105.4664391
0
LINE
8
0
10
153.0301752
20
-105.4664391
11
151.827426
21
-91.7189523
0
LINE
8
0
10
151.827426
20
-91.7189523
11
138.0799392
21
-92.9217015
0
LINE
8
0
10
138.0799392
20
-92.9217015
11
139.2826884
21
-106.6691883
0
LINE
8
0
10
161.6591358
20
-155.9063146
11
175.4066226
21
-154.7035654
0
LINE
8
0
10
175.4066226
20
-154.7035654
11
174.2038734
21
-140.9560786
0
LINE
8
0
10
174.2038734
20
-140.9560786
11
160.4563866
21
-142.1588278
0
LINE
8
0
10
160.4563866
20
-142.1588278
11
161.6591358
21
-155.9063146
0
LINE
8
0
10
160.1774882
20
-138.9710047
11
173.924975
21
-137.7682555
0
LINE
8
0
10
173.924975
20
-137.7682555
11
172.7222258
21
-124.0207687
0
LINE
8
0
10
172.7222258
20
-124.0207687
11
158.974739
21
-125.2235179
0
LINE
8
0
10
158.974739
20
-125.2235179
11
160.1774882
21
-138.9710047
0
LINE
8
0
10
158.6958406
20
-122.0356948
11
172.4433274
21
-120.8329456
0
LINE
8
0
10
172.4433274
20
-120.8329456
11
171.2405782
21
-107.0854588
0
LINE
8
0
10
171.2405782
20
-107.0854588
11
157.4930914
21
-108.288208
0
LINE
8
0
10
157.4930914
20
-108.288208
11
158.6958406
21
-122.0356948
0
LINE
8
0
10
157.214193
20
-105.1003849
11
170.9616798
21
-103.8976357
0
LINE
8
0
10
170.9616798
20
-103.8976357
11
169.7589306
21
-90.1501489
0
LINE
8
0
10
169.7589306
20
-90.1501489
11
156.0114438
21
-91.3528981
0
LINE
8
0
10
156.0114438
20
-91.3528981
11
157.214193
21
-105.1003849
0
LINE
8
0
10
178.8758534
20
-142.7661986
11
192.6758534
21
-142.7661986
0
LINE
8
0
10
192.6758534
20
-142.7661986
11
192.6758534
21
-128.9661986
0
LINE
8
0
10
192.6758534
20
-128.9661986
11
178.8758534
21
-128.9661986
0
LINE
8
0
10
178.8758534
20
-128.9661986
11
178.8758534
21
-142.7661986
0
LINE
8
0
10
178.8758534
20
-125.7661986
11
192.6758534
21
-125.7661986
0
LINE
8
0
10
192.6758534
20
-125.7661986
11
192.6758534
21
-111.9661986
0
LINE
8
0
10
192.6758534
20
-111.9661986
11
178.8758534
21
-111.9661986
0
LINE
8
0
10
178.8758534
20
-111.9661986
11
178.8758534
21
-125.7661986
0
LINE
8
0
10
178.8758534
20
-108.7661986
11
192.6758534
21
-108.7661986
0
LINE
8
0
10
192.6758534
20
-108.7661986
11
192.6758534
21
-94.9661986
0
LINE
8
0
10
192.6758534
20
-94.9661986
11
178.8758534
21
-94.9661986
0
LINE
8
0
10
178.8758534
20
-94.9661986
11
178.8758534
21
-108.7661986
0
LINE
8
0
10
178.8758534
20
-91.7661986
11
192.6758534
21
-91.7661986
0
LINE
8
0
10
192.6758534
20
-91.7661986
11
192.6758534
21
-77.9661986
0
LINE
8
0
10
192.6758534
20
-77.9661986
11
178.8758534
21
-77.9661986
0
LINE
8
0
10
178.8758534
20
-77.9661986
11
178.8758534
21
-91.7661986
0
LINE
8
0
10
197.1390223
20
-138.3526109
11
210.9132825
21
-139.1950807
0
LINE
8
0
10
210.9132825
20
-139.1950807
11
211.7557523
21
-125.4208205
0
LINE
8
0
10
211.7557523
20
-125.4208205
11
197.9814921
21
-124.5783507
0
LINE
8
0
10
197.9814921
20
-124.5783507
11
197.1390223
21
-138.3526109
0
LINE
8
0
10
198.1768475
20
-121.3843193
11
211.9511077
21
-122.2267891
0
LINE
8
0
10
211.9511077
20
-122.2267891
11
212.7935775
21
-108.4525289
0
LINE
8
0
10
212.7935775
20
-108.4525289
11
199.0193173
21
-107.6100591
0
LINE
8
0
10
199.0193173
20
-107.6100591
11
198.1768475
21
-121.3843193
0
LINE
8
0
10
199.2146727
20
-104.4160277
11
212.9889329
21
-105.2584975
0
LINE
8
0
10
212.9889329
20
-105.2584975
11
213.8314027
21
-91.4842373
0
LINE
8
0
10
213.8314027
20
-91.4842373
11
200.0571425
21
-90.6417675
0
LINE
8
0
10
200.0571425
20
-90.6417675
11
199.2146727
21
-104.4160277
0
LINE
8
0
10
200.2524979
20
-87.4477361
11
214.0267581
21
-88.2902059
0
LINE
8
0
10
214.0267581
20
-88.2902059
11
214.8692279
21
-74.5159457
0
LINE
8
0
10
214.8692279
20
-74.5159457
11
201.0949677
21
-73.6734759
0
LINE
8
0
10
201.0949677
20
-73.6734759
11
200.2524979
21
-87.4477361
0
LINE
8
0
10
213.6527189
20
-154.0139032
11
227.3640105
21
-155.5761076
0
LINE
8
0
10
227.3640105
20
-155.5761076
11
228.9262149
21
-141.864816
0
LINE
8
0
10
228.9262149
20
-141.864816
11
215.2149233
21
-140.3026116
0
LINE
8
0
10
215.2149233
20
-140.3026116
11
213.6527189
21
-154.0139032
0
LINE
8
0
10
215.5771735
20
-137.1231817
11
229.2884651
21
-138.6853861
0
LINE
8
0
10
229.2884651
20
-138.6853861
11
230.8506695
21
-124.9740945
0
LINE
8
0
10
230.8506695
20
-124.9740945
11
217.1393779
21
-123.4118901
0
LINE
8
0
10
217.1393779
20
-123.4118901
11
215.5771735
21
-137.1231817
0
LINE
8
0
10
217.5016281
20
-120.2324602
11
231.2129197
21
-121.7946646
0
LINE
8
0
10
231.2129197
20
-121.7946646
11
232.7751241
21
-108.083373
0
LINE
8
0
10
232.7751241
20
-108.083373
11
219.0638325
21
-106.5211686
0
LINE
8
0
10
219.0638325
20
-106.5211686
11
217.5016281
21
-120.2324602
0
LINE
8
0
10
219.4260827
20
-103.3417387
11
233.1373743
21
-104.9039431
0
LINE
8
0
10
233.1373743
20
-104.9039431
11
234.6995787
21
-91.1926515
0
LINE
8
0
10
234.6995787
20
-91.1926515
11
220.9882871
21
-89.6304471
0
LINE
8
0
10
220.9882871
20
-89.6304471
11
219.4260827
21
-103.3417387
0
LINE
8
0
10
231.1974027
20
-159.0322766
11
244.9086943
21
-160.594481
0
LINE
8
0
10
244.9086943
20
-160.594481
11
246.4708987
21
-146.8831894
0
LINE
8
0
10
246.4708987
20
-146.8831894
11
232.7596071
21
-145.320985
0
LINE
8
0
10
232.7596071
20
-145.320985
11
231.1974027
21
-159.0322766
0
LINE
8
0
10
233.1218573
20
-142.1415551
11
246.8331489
21
-143.7037595
0
LINE
8
0
10
246.8331489
20
-143.7037595
11
248.3953533
21
-129.9924679
0
LINE
8
0
10
248.3953533
20
-129.9924679
11
234.6840617
21
-128.4302635
0
LINE
8
0
10
234.6840617
20
-128.4302635
11
233.1218573
21
-142.1415551
0
LINE
8
0
10
235.0463119
20
-125.2508336
11
248.7576035
21
-126.813038
0
LINE
8
0
10
248.7576035
20
-126.813038
11
250.3198079
21
-113.1017464
0
LINE
8
0
10
250.3198079
20
-113.1017464
11
236.6085163
21
-111.539542
0
LINE
8
0
10
236.6085163
20
-111.539542
11
235.0463119
21
-125.2508336
0
LINE
8
0
10
236.9707665
20
-108.3601121
11
250.6820581
21
-109.9223165
0
LINE
8
0
10
250.6820581
20
-109.9223165
11
252.2442625
21
-96.2110249
0
LINE
8
0
10
252.2442625
20
-96.2110249
11
238.5329709
21
-94.6488205
0
LINE
8
0
10
238.5329709
20
-94.6488205
11
236.9707665
21
-108.3601121
0
LINE
8
0
10
197.3694585
20
-175.5360333
11
211.1437187
21
-176.3785031
0
LINE
8
0
10
211.1437187
20
-176.3785031
11
211.9861885
21
-162.6042429
0
LINE
8
0
10
211.9861885
20
-162.6042429
11
198.2119283
21
-161.7617731
0
LINE
8
0
10
198.2119283
20
-161.7617731
11
197.3694585
21
-175.5360333
0
LINE
8
0
10
215.5417912
20
-176.9899415
11
229.0647521
21
-179.741219
0
LINE
8
0
10
229.0647521
20
-179.741219
11
231.8160296
21
-166.2182581
0
LINE
8
0
10
231.8160296
20
-166.2182581
11
218.2930687
21
-163.4669806
0
LINE
8
0
10
218.2930687
20
-163.4669806
11
215.5417912
21
-176.9899415
0
LINE
8
0
10
233.2527771
20
-181.0279476
11
246.2612297
21
-185.6344822
0
LINE
8
0
10
246.2612297
20
-185.6344822
11
250.8677643
21
-172.6260296
0
LINE
8
0
10
250.8677643
20
-172.6260296
11
237.8593117
21
-168.019495
0
LINE
8
0
10
237.8593117
20
-168.019495
11
233.2527771
21
-181.0279476
0
LINE
8
0
10
250.2593692
20
-187.7620889
11
261.8981712
21
-195.1768235
0
LINE
8
0
10
261.8981712
20
-195.1768235
11
269.3129058
21
-183.5380215
0
LINE
8
0
10
269.3129058
20
-183.5380215
11
257.6741038
21
-176.1232869
0
LINE
8
0
10
257.6741038
20
-176.1232869
11
250.2593692
21
-187.7620889
0
ENDSEC
0
EOF