0
SECTION
2
HEADER
9
$INSUNITS
70
4
0
ENDSEC
0
SECTION
2
TABLES
0
TABLE
2
LTYPE
0
LTYPE
72
65
70
64
2
CONTINUOUS
3
______
73
0
40
0
0
ENDTAB
0
TABLE
2
LAYER
0
ENDTAB
0
ENDSEC
0
SECTION
2
ENTITIES
0
LINE
8
0
10
143.7276312
20
-157.475118
11
157.475118
21
-156.2723688
0
LINE
8
0
10
157.475118
20
-156.2723688
11
156.2723688
21
-142.524882
0
LINE
8
0
10
156.2723688
20
-142.524882
11
142.524882
21
-143.7276312
0
LINE
8
0
10
142.524882
20
-143.7276312
11
143.7276312
21
-157.475118
0
LINE
8
0
10
142.2459836
20
-140.5398081
11
155.9934704
21
-139.3370589
0
LINE
8
0
10
155.9934704
20
-139.3370589
11
154.7907212
21
-125.5895721
0
LINE
8
0
10
154.7907212
20
-125.5895721
11
141.0432344
21
-126.7923213
0
LINE
8
0
10
141.0432344
20
-126.7923213
11
142.2459836
21
-140.5398081
0
LINE
8
0
10
140.764336
20
-123.6044982
11
154.5118228
21
-122.401749
0
LINE
8
0
10
154.5118228
20
-122.401749
11
153.3090736
21
-108.6542622
0
LINE
8
0
10
153.3090736
20
-108.6542622
11
139.5615868
21
-109.8570114
0
LINE
8
0
10
139.5615868
20
-109.8570114
11
140.764336
21
-123.6044982
0
LINE
8
0
10
139.2826884
20
-106.6691883
11
153.0301752
21
-105.4664391
0
LINE
8
0
10
153.0301752
20
-105.4664391
11
151.827426
21
-91.7189523
0
LINE
8
0
10
151.827426
20
-91.7189523
11
138.0799392
21
-92.9217015
0
LINE
8
0
10
138.0799392
20
-92.9217015
11
139.2826884
21
-106.6691883
0
LINE
8
0
10
161.6591358
20
-155.9063146
11
175.4066226
21
-154.7035654
0
LINE
8
0
10
175.4066226
20
-154.7035654
11
174.2038734
21
-140.9560786
0
LINE
8
0
10
174.2038734
20
-140.9560786
11
160.4563866
21
-142.1588278
0
LINE
8
0
10
160.4563866
20
-142.1588278
11
161.6591358
21
-155.9063146
0
LINE
8
0
10
160.1774882
20
-138.9710047
11
173.924975
21
-137.7682555
0
LINE
8
0
10
173.924975
20
-137.7682555
11
172.7222258
21
-124.0207687
0
LINE
8
0
10
172.7222258
20
-124.0207687
11
158.974739
21
-125.2235179
0
LINE
8
0
10
158.974739
20
-125.2235179
11
160.1774882
21
-138.9710047
0
LINE
8
0
10
158.6958406
20
-122.0356948
11
172.4433274
21
-120.8329456
0
LINE
8
0
10
172.4433274
20
-120.8329456
11
171.2405782
21
-107.0854588
0
LINE
8
0
10
171.2405782
20
-107.0854588
11
157.4930914
21
-108.288208
0
LINE
8
0
10
157.4930914
20
-108.288208
11
158.6958406
21
-122.0356948
0
LINE
8
0
10
157.214193
20
-105.1003849
11
170.9616798
21
-103.8976357
0
LINE
8
0
10
170.9616798
20
-103.8976357
11
169.7589306
21
-90.1501489
0
LINE
8
0
10
169.7589306
20
-90.1501489
11
156.0114438
21
-91.3528981
0
LINE
8
0
10
156.0114438
20
-91.3528981
11
157.214193
21
-105.1003849
0
LINE
8
0
10
178.8758534
20
-142.7661986
11
192.6758534
21
-142.7661986
0
LINE
8
0
10
192.6758534
20
-142.7661986
11
192.6758534
21
-128.9661986
0
LINE
8
0
10
192.6758534
20
-128.9661986
11
178.8758534
21
-128.9661986
0
LINE
8
0
10
178.8758534
20
-128.9661986
11
178.8758534
21
-142.7661986
0
LINE
8
0
10
178.8758534
20
-125.7661986
11
192.6758534
21
-125.7661986
0
LINE
8
0
10
192.6758534
20
-125.7661986
11
192.6758534
21
-111.9661986
0
LINE
8
0
10
192.6758534
20
-111.9661986
11
178.8758534
21
-111.9661986
0
LINE
8
0
10
178.8758534
20
-111.9661986
11
178.8758534
21
-125.7661986
0
LINE
8
0
10
178.8758534
20
-108.7661986
11
192.6758534
21
-108.7661986
0
LINE
8
0
10
192.6758534
20
-108.7661986
11
192.6758534
21
-94.9661986
0
LINE
8
0
10
192.6758534
20
-94.9661986
11
178.8758534
21
-94.9661986
0
LINE
8
0
10
178.8758534
20
-94.9661986
11
178.8758534
21
-108.7661986
0
LINE
8
0
10
178.8758534
20
-91.7661986
11
192.6758534
21
-91.7661986
0
LINE
8
0
10
192.6758534
20
-91.7661986
11
192.6758534
21
-77.9661986
0
LINE
8
0
10
192.6758534
20
-77.9661986
11
178.8758534
21
-77.9661986
0
LINE
8
0
10
178.8758534
20
-77.9661986
11
178.8758534
21
-91.7661986
0
LINE
8
0
10
197.1390223
20
-138.3526109
11
210.9132825
21
-139.1950807
0
LINE
8
0
10
210.9132825
20
-139.1950807
11
211.7557523
21
-125.4208205
0
LINE
8
0
10
211.7557523
20
-125.4208205
11
197.9814921
21
-124.5783507
0
LINE
8
0
10
197.9814921
20
-124.5783507
11
197.1390223
21
-138.3526109
0
LINE
8
0
10
198.1768475
20
-121.3843193
11
211.9511077
21
-122.2267891
0
LINE
8
0
10
211.9511077
20
-122.2267891
11
212.7935775
21
-108.4525289
0
LINE
8
0
10
212.7935775
20
-108.4525289
11
199.0193173
21
-107.6100591
0
LINE
8
0
10
199.0193173
20
-107.6100591
11
198.1768475
21
-121.3843193
0
LINE
8
0
10
199.2146727
20
-104.4160277
11
212.9889329
21
-105.2584975
0
LINE
8
0
10
212.9889329
20
-105.2584975
11
213.8314027
21
-91.4842373
0
LINE
8
0
10
213.8314027
20
-91.4842373
11
200.0571425
21
-90.6417675
0
LINE
8
0
10
200.0571425
20
-90.6417675
11
199.2146727
21
-104.4160277
0
LINE
8
0
10
200.2524979
20
-87.4477361
11
214.0267581
21
-88.2902059
0
LINE
8
0
10
214.0267581
20
-88.2902059
11
214.8692279
21
-74.5159457
0
LINE
8
0
10
214.8692279
20
-74.5159457
11
201.0949677
21
-73.6734759
0
LINE
8
0
10
201.0949677
20
-73.6734759
11
200.2524979
21
-87.4477361
0
LINE
8
0
10
213.6527189
20
-154.0139032
11
227.3640105
21
-155.5761076
0
LINE
8
0
10
227.3640105
20
-155.5761076
11
228.9262149
21
-141.864816
0
LINE
8
0
10
228.9262149
20
-141.864816
11
215.2149233
21
-140.3026116
0
LINE
8
0
10
215.2149233
20
-140.3026116
11
213.6527189
21
-154.0139032
0
LINE
8
0
10
215.5771735
20
-137.1231817
11
229.2884651
21
-138.6853861
0
LINE
8
0
10
229.2884651
20
-138.6853861
11
230.8506695
21
-124.9740945
0
LINE
8
0
10
230.8506695
20
-124.9740945
11
217.1393779
21
-123.4118901
0
LINE
8
0
10
217.1393779
20
-123.4118901
11
215.5771735
21
-137.1231817
0
LINE
8
0
10
217.5016281
20
-120.2324602
11
231.2129197
21
-121.7946646
0
LINE
8
0
10
231.2129197
20
-121.7946646
11
232.7751241
21
-108.083373
0
LINE
8
0
10
232.7751241
20
-108.083373
11
219.0638325
21
-106.5211686
0
LINE
8
0
10
219.0638325
20
-106.5211686
11
217.5016281
21
-120.2324602
0
LINE
8
0
10
219.4260827
20
-103.3417387
11
233.1373743
21
-104.9039431
0
LINE
8
0
10
233.1373743
20
-104.9039431
11
234.6995787
21
-91.1926515
0
LINE
8
0
10
234.6995787
20
-91.1926515
11
220.9882871
21
-89.6304471
0
LINE
8
0
10
220.9882871
20
-89.6304471
11
219.4260827
21
-103.3417387
0
LINE
8
0
10
231.1974027
20
-159.0322766
11
244.9086943
21
-160.594481
0
LINE
8
0
10
244.9086943
20
-160.594481
11
246.4708987
21
-146.8831894
0
LINE
8
0
10
246.4708987
20
-146.8831894
11
232.7596071
21
-145.320985
0
LINE
8
0
10
232.7596071
20
-145.320985
11
231.1974027
21
-159.0322766
0
LINE
8
0
10
233.1218573
20
-142.1415551
11
246.8331489
21
-143.7037595
0
LINE
8
0
10
246.8331489
20
-143.7037595
11
248.3953533
21
-129.9924679
0
LINE
8
0
10
248.3953533
20
-129.9924679
11
234.6840617
21
-128.4302635
0
LINE
8
0
10
234.6840617
20
-128.4302635
11
233.1218573
21
-142.1415551
0
LINE
8
0
10
235.0463119
20
-125.2508336
11
248.7576035
21
-126.813038
0
LINE
8
0
10
248.7576035
20
-126.813038
11
250.3198079
21
-113.1017464
0
LINE
8
0
10
250.3198079
20
-113.1017464
11
236.6085163
21
-111.539542
0
LINE
8
0
10
236.6085163
20
-111.539542
11
235.0463119
21
-125.2508336
0
LINE
8
0
10
236.9707665
20
-108.3601121
11
250.6820581
21
-109.9223165
0
LINE
8
0
10
250.6820581
20
-109.9223165
11
252.2442625
21
-96.2110249
0
LINE
8
0
10
252.2442625
20
-96.2110249
11
238.5329709
21
-94.6488205
0
LINE
8
0
10
238.5329709
20
-94.6488205
11
236.9707665
21
-108.3601121
0
LINE
8
0
10
197.3694585
20
-175.5360333
11
211.1437187
21
-176.3785031
0
LINE
8
0
10
211.1437187
20
-176.3785031
11
211.9861885
21
-162.6042429
0
LINE
8
0
10
211.9861885
20
-162.6042429
11
198.2119283
21
-161.7617731
0
LINE
8
0
10
198.2119283
20
-161.7617731
11
197.3694585
21
-175.5360333
0
LINE
8
0
10
215.5417912
20
-176.9899415
11
229.0647521
21
-179.741219
0
LINE
8
0
10
229.0647521
20
-179.741219
11
231.8160296
21
-166.2182581
0
LINE
8
0
10
231.8160296
20
-166.2182581
11
218.2930687
21
-163.4669806
0
LINE
8
0
10
218.2930687
20
-163.4669806
11
215.5417912
21
-176.9899415
0
LINE
8
0
10
233.2527771
20
-181.0279476
11
246.2612297
21
-185.6344822
0
LINE
8
0
10
246.2612297
20
-185.6344822
11
250.8677643
21
-172.6260296
0
LINE
8
0
10
250.8677643
20
-172.6260296
11
237.8593117
21
-168.019495
0
LINE
8
0
10
237.8593117
20
-168.019495
11
233.2527771
21
-181.0279476
0
LINE
8
0
10
250.2593692
20
-187.7620889
11
261.8981712
21
-195.1768235
0
LINE
8
0
10
261.8981712
20
-195.1768235
11
269.3129058
21
-183.5380215
0
LINE
8
0
10
269.3129058
20
-183.5380215
11
257.6741038
21
-176.1232869
0
LINE
8
0
10
257.6741038
20
-176.1232869
11
250.2593692
21
-187.7620889
0
ENDSEC
0
EOF